<?xml version="1.0" encoding="UTF-8"?>
<svg id="Vrstva_1" xmlns="http://www.w3.org/2000/svg" version="1.1" xmlns:xlink="http://www.w3.org/1999/xlink" viewBox="0 0 1200 140">
  <!-- Generator: Adobe Illustrator 29.8.1, SVG Export Plug-In . SVG Version: 2.1.1 Build 2)  -->
  <defs>
    <style>
      .st0, .st1 {
        fill: #afaeae;
      }

      .st2 {
        fill: url(#Nepojmenovaný_přechod_3);
      }

      .st3 {
        fill: url(#Nepojmenovaný_přechod_13);
      }

      .st4 {
        fill: url(#Nepojmenovaný_přechod_8);
      }

      .st5 {
        fill: url(#Nepojmenovaný_přechod_17);
      }

      .st6 {
        fill: url(#Nepojmenovaný_přechod_5);
      }

      .st7 {
        fill: url(#Nepojmenovaný_přechod_11);
      }

      .st8 {
        fill: url(#Nepojmenovaný_přechod_6);
      }

      .st9 {
        fill: url(#Nepojmenovaný_přechod_27);
      }

      .st10 {
        fill: url(#Nepojmenovaný_přechod_9);
      }

      .st11 {
        fill: url(#Nepojmenovaný_přechod_36);
      }

      .st12 {
        fill: url(#Nepojmenovaný_přechod_4);
      }

      .st13, .st14, .st15 {
        isolation: isolate;
      }

      .st13, .st15 {
        font-family: ArialMT, Arial;
        font-size: 18px;
      }

      .st16 {
        fill: #2a4e9c;
      }

      .st17 {
        fill: #fff;
      }

      .st18 {
        fill: url(#Nepojmenovaný_přechod_18);
      }

      .st19 {
        fill: url(#Nepojmenovaný_přechod_28);
      }

      .st20 {
        fill: #f7f6f6;
      }

      .st21 {
        stroke: #1d1d1b;
        stroke-width: .57px;
      }

      .st21, .st22 {
        fill: none;
      }

      .st21, .st1, .st23 {
        stroke-miterlimit: 10;
      }

      .st24 {
        fill: url(#Nepojmenovaný_přechod_23);
      }

      .st25 {
        fill: #847b6d;
      }

      .st26 {
        fill: url(#Nepojmenovaný_přechod_20);
      }

      .st27 {
        fill: url(#Nepojmenovaný_přechod_12);
      }

      .st28 {
        fill: url(#Nepojmenovaný_přechod_2);
      }

      .st1 {
        stroke: #898989;
        stroke-width: .02px;
      }

      .st29 {
        fill: url(#Nepojmenovaný_přechod_22);
      }

      .st30 {
        fill: #878787;
      }

      .st31 {
        fill: url(#Nepojmenovaný_přechod_34);
      }

      .st32 {
        fill: url(#Nepojmenovaný_přechod_10);
      }

      .st33 {
        fill: url(#Nepojmenovaný_přechod_26);
      }

      .st23 {
        stroke: #eaeaea;
        stroke-width: .7px;
      }

      .st23, .st34 {
        fill: #eaeaea;
      }

      .st35 {
        fill: url(#Nepojmenovaný_přechod_19);
      }

      .st36 {
        fill: url(#Nepojmenovaný_přechod_7);
      }

      .st37 {
        fill: url(#Nepojmenovaný_přechod_14);
      }

      .st38 {
        fill: #1d1d1b;
      }

      .st39 {
        fill: url(#Nepojmenovaný_přechod_32);
      }

      .st40 {
        fill: url(#Nepojmenovaný_přechod_21);
      }

      .st41 {
        fill: url(#Nepojmenovaný_přechod_29);
      }

      .st42 {
        fill: url(#Nepojmenovaný_přechod_15);
      }

      .st43 {
        fill: #000100;
      }

      .st44 {
        fill: url(#Nepojmenovaný_přechod_33);
      }

      .st45 {
        fill: url(#Nepojmenovaný_přechod_31);
      }

      .st46 {
        fill: url(#Nepojmenovaný_přechod);
      }

      .st47 {
        fill: url(#Nepojmenovaný_přechod_35);
      }

      .st48 {
        fill: #8e1b31;
      }

      .st15 {
        fill: #006eab;
      }

      .st49 {
        fill: url(#Nepojmenovaný_přechod_16);
      }

      .st50 {
        clip-path: url(#clippath);
      }

      .st51 {
        fill: url(#Nepojmenovaný_přechod_30);
      }

      .st52 {
        fill: #f7f7f7;
      }

      .st53 {
        fill: #c6c6c5;
      }

      .st54 {
        fill: url(#Nepojmenovaný_přechod_24);
      }

      .st55 {
        fill: url(#Nepojmenovaný_přechod_25);
      }
    </style>
    <clipPath id="clippath">
      <rect class="st22" x="656.51" y="54.45" width="511.24" height="28.44"/>
    </clipPath>
    <radialGradient id="Nepojmenovaný_přechod" data-name="Nepojmenovaný přechod" cx="657.08" cy="766.58" fx="657.08" fy="766.58" r="6.2" gradientTransform="translate(0 -702)" gradientUnits="userSpaceOnUse">
      <stop offset="0" stop-color="#e7b68c"/>
      <stop offset="1" stop-color="#e5aa78"/>
    </radialGradient>
    <radialGradient id="Nepojmenovaný_přechod_2" data-name="Nepojmenovaný přechod 2" cx="657.08" cy="776.52" fx="657.08" fy="776.52" r="6.2" gradientTransform="translate(0 -702)" gradientUnits="userSpaceOnUse">
      <stop offset="0" stop-color="#e7b68c"/>
      <stop offset="1" stop-color="#e5aa78"/>
    </radialGradient>
    <radialGradient id="Nepojmenovaný_přechod_3" data-name="Nepojmenovaný přechod 3" cx="701.96" cy="766.58" fx="701.96" fy="766.58" r="6.2" gradientTransform="translate(0 -702)" gradientUnits="userSpaceOnUse">
      <stop offset="0" stop-color="#e7b68c"/>
      <stop offset="1" stop-color="#e5aa78"/>
    </radialGradient>
    <radialGradient id="Nepojmenovaný_přechod_4" data-name="Nepojmenovaný přechod 4" cx="701.96" cy="776.52" fx="701.96" fy="776.52" r="6.2" gradientTransform="translate(0 -702)" gradientUnits="userSpaceOnUse">
      <stop offset="0" stop-color="#e7b68c"/>
      <stop offset="1" stop-color="#e5aa78"/>
    </radialGradient>
    <radialGradient id="Nepojmenovaný_přechod_5" data-name="Nepojmenovaný přechod 5" cx="746.33" cy="766.58" fx="746.33" fy="766.58" r="6.2" gradientTransform="translate(0 -702)" gradientUnits="userSpaceOnUse">
      <stop offset="0" stop-color="#e7b68c"/>
      <stop offset="1" stop-color="#e5aa78"/>
    </radialGradient>
    <radialGradient id="Nepojmenovaný_přechod_6" data-name="Nepojmenovaný přechod 6" cx="746.33" cy="776.52" fx="746.33" fy="776.52" r="6.2" gradientTransform="translate(0 -702)" gradientUnits="userSpaceOnUse">
      <stop offset="0" stop-color="#e7b68c"/>
      <stop offset="1" stop-color="#e5aa78"/>
    </radialGradient>
    <radialGradient id="Nepojmenovaný_přechod_7" data-name="Nepojmenovaný přechod 7" cx="791.13" cy="766.58" fx="791.13" fy="766.58" r="6.2" gradientTransform="translate(0 -702)" gradientUnits="userSpaceOnUse">
      <stop offset="0" stop-color="#e7b68c"/>
      <stop offset="1" stop-color="#e5aa78"/>
    </radialGradient>
    <radialGradient id="Nepojmenovaný_přechod_8" data-name="Nepojmenovaný přechod 8" cx="791.13" cy="776.52" fx="791.13" fy="776.52" r="6.2" gradientTransform="translate(0 -702)" gradientUnits="userSpaceOnUse">
      <stop offset="0" stop-color="#e7b68c"/>
      <stop offset="1" stop-color="#e5aa78"/>
    </radialGradient>
    <radialGradient id="Nepojmenovaný_přechod_9" data-name="Nepojmenovaný přechod 9" cx="835.35" cy="766.58" fx="835.35" fy="766.58" r="6.2" gradientTransform="translate(0 -702)" gradientUnits="userSpaceOnUse">
      <stop offset="0" stop-color="#e7b68c"/>
      <stop offset="1" stop-color="#e5aa78"/>
    </radialGradient>
    <radialGradient id="Nepojmenovaný_přechod_10" data-name="Nepojmenovaný přechod 10" cx="835.35" cy="776.52" fx="835.35" fy="776.52" r="6.2" gradientTransform="translate(0 -702)" gradientUnits="userSpaceOnUse">
      <stop offset="0" stop-color="#e7b68c"/>
      <stop offset="1" stop-color="#e5aa78"/>
    </radialGradient>
    <radialGradient id="Nepojmenovaný_přechod_11" data-name="Nepojmenovaný přechod 11" cx="879.68" cy="766.58" fx="879.68" fy="766.58" r="6.2" gradientTransform="translate(0 -702)" gradientUnits="userSpaceOnUse">
      <stop offset="0" stop-color="#e7b68c"/>
      <stop offset="1" stop-color="#e5aa78"/>
    </radialGradient>
    <radialGradient id="Nepojmenovaný_přechod_12" data-name="Nepojmenovaný přechod 12" cx="879.68" cy="776.52" fx="879.68" fy="776.52" r="6.2" gradientTransform="translate(0 -702)" gradientUnits="userSpaceOnUse">
      <stop offset="0" stop-color="#e7b68c"/>
      <stop offset="1" stop-color="#e5aa78"/>
    </radialGradient>
    <radialGradient id="Nepojmenovaný_přechod_13" data-name="Nepojmenovaný přechod 13" cx="924.23" cy="766.58" fx="924.23" fy="766.58" r="6.2" gradientTransform="translate(0 -702)" gradientUnits="userSpaceOnUse">
      <stop offset="0" stop-color="#e7b68c"/>
      <stop offset="1" stop-color="#e5aa78"/>
    </radialGradient>
    <radialGradient id="Nepojmenovaný_přechod_14" data-name="Nepojmenovaný přechod 14" cx="924.23" cy="776.52" fx="924.23" fy="776.52" r="6.2" gradientTransform="translate(0 -702)" gradientUnits="userSpaceOnUse">
      <stop offset="0" stop-color="#e7b68c"/>
      <stop offset="1" stop-color="#e5aa78"/>
    </radialGradient>
    <radialGradient id="Nepojmenovaný_přechod_15" data-name="Nepojmenovaný přechod 15" cx="968.64" cy="766.58" fx="968.64" fy="766.58" r="6.2" gradientTransform="translate(0 -702)" gradientUnits="userSpaceOnUse">
      <stop offset="0" stop-color="#e7b68c"/>
      <stop offset="1" stop-color="#e5aa78"/>
    </radialGradient>
    <radialGradient id="Nepojmenovaný_přechod_16" data-name="Nepojmenovaný přechod 16" cx="968.64" cy="776.52" fx="968.64" fy="776.52" r="6.2" gradientTransform="translate(0 -702)" gradientUnits="userSpaceOnUse">
      <stop offset="0" stop-color="#e7b68c"/>
      <stop offset="1" stop-color="#e5aa78"/>
    </radialGradient>
    <radialGradient id="Nepojmenovaný_přechod_17" data-name="Nepojmenovaný přechod 17" cx="1012.99" cy="766.58" fx="1012.99" fy="766.58" r="6.2" gradientTransform="translate(0 -702)" gradientUnits="userSpaceOnUse">
      <stop offset="0" stop-color="#e7b68c"/>
      <stop offset="1" stop-color="#e5aa78"/>
    </radialGradient>
    <radialGradient id="Nepojmenovaný_přechod_18" data-name="Nepojmenovaný přechod 18" cx="1012.99" cy="776.52" fx="1012.99" fy="776.52" r="6.2" gradientTransform="translate(0 -702)" gradientUnits="userSpaceOnUse">
      <stop offset="0" stop-color="#e7b68c"/>
      <stop offset="1" stop-color="#e5aa78"/>
    </radialGradient>
    <radialGradient id="Nepojmenovaný_přechod_19" data-name="Nepojmenovaný přechod 19" cx="1057.6" cy="766.58" fx="1057.6" fy="766.58" r="6.2" gradientTransform="translate(0 -702)" gradientUnits="userSpaceOnUse">
      <stop offset="0" stop-color="#e7b68c"/>
      <stop offset="1" stop-color="#e5aa78"/>
    </radialGradient>
    <radialGradient id="Nepojmenovaný_přechod_20" data-name="Nepojmenovaný přechod 20" cx="1057.6" cy="776.52" fx="1057.6" fy="776.52" r="6.2" gradientTransform="translate(0 -702)" gradientUnits="userSpaceOnUse">
      <stop offset="0" stop-color="#e7b68c"/>
      <stop offset="1" stop-color="#e5aa78"/>
    </radialGradient>
    <radialGradient id="Nepojmenovaný_přechod_21" data-name="Nepojmenovaný přechod 21" cx="1101.9" cy="766.58" fx="1101.9" fy="766.58" r="6.2" gradientTransform="translate(0 -702)" gradientUnits="userSpaceOnUse">
      <stop offset="0" stop-color="#e7b68c"/>
      <stop offset="1" stop-color="#e5aa78"/>
    </radialGradient>
    <radialGradient id="Nepojmenovaný_přechod_22" data-name="Nepojmenovaný přechod 22" cx="1101.9" cy="776.52" fx="1101.9" fy="776.52" r="6.2" gradientTransform="translate(0 -702)" gradientUnits="userSpaceOnUse">
      <stop offset="0" stop-color="#e7b68c"/>
      <stop offset="1" stop-color="#e5aa78"/>
    </radialGradient>
    <radialGradient id="Nepojmenovaný_přechod_23" data-name="Nepojmenovaný přechod 23" cx="1146.64" cy="766.58" fx="1146.64" fy="766.58" r="6.2" gradientTransform="translate(0 -702)" gradientUnits="userSpaceOnUse">
      <stop offset="0" stop-color="#e7b68c"/>
      <stop offset="1" stop-color="#e5aa78"/>
    </radialGradient>
    <radialGradient id="Nepojmenovaný_přechod_24" data-name="Nepojmenovaný přechod 24" cx="1146.64" cy="776.52" fx="1146.64" fy="776.52" r="6.2" gradientTransform="translate(0 -702)" gradientUnits="userSpaceOnUse">
      <stop offset="0" stop-color="#e7b68c"/>
      <stop offset="1" stop-color="#e5aa78"/>
    </radialGradient>
    <radialGradient id="Nepojmenovaný_přechod_25" data-name="Nepojmenovaný přechod 25" cx="2667.83" cy="-2077.87" fx="2667.83" fy="-2077.87" r="3.1" gradientTransform="translate(2506.08 3335.77) rotate(-90) scale(1.22 .88)" gradientUnits="userSpaceOnUse">
      <stop offset="0" stop-color="#000100"/>
      <stop offset="1" stop-color="#3b3a39"/>
    </radialGradient>
    <radialGradient id="Nepojmenovaný_přechod_26" data-name="Nepojmenovaný přechod 26" cx="2638.71" cy="-639.9" fx="2638.71" fy="-639.9" r="3.1" gradientTransform="translate(0 -702)" gradientUnits="userSpaceOnUse">
      <stop offset="0" stop-color="#000100"/>
      <stop offset="1" stop-color="#3b3a39"/>
    </radialGradient>
    <radialGradient id="Nepojmenovaný_přechod_27" data-name="Nepojmenovaný přechod 27" cx="2638.71" cy="-589.29" fx="2638.71" fy="-589.29" r="3.1" gradientTransform="translate(0 -702)" gradientUnits="userSpaceOnUse">
      <stop offset="0" stop-color="#000100"/>
      <stop offset="1" stop-color="#3b3a39"/>
    </radialGradient>
    <radialGradient id="Nepojmenovaný_přechod_28" data-name="Nepojmenovaný přechod 28" cx="2638.71" cy="-538.69" fx="2638.71" fy="-538.69" r="3.1" gradientTransform="translate(0 -702)" gradientUnits="userSpaceOnUse">
      <stop offset="0" stop-color="#000100"/>
      <stop offset="1" stop-color="#3b3a39"/>
    </radialGradient>
    <radialGradient id="Nepojmenovaný_přechod_29" data-name="Nepojmenovaný přechod 29" cx="2638.71" cy="-488.08" fx="2638.71" fy="-488.08" r="3.1" gradientTransform="translate(0 -702)" gradientUnits="userSpaceOnUse">
      <stop offset="0" stop-color="#000100"/>
      <stop offset="1" stop-color="#3b3a39"/>
    </radialGradient>
    <radialGradient id="Nepojmenovaný_přechod_30" data-name="Nepojmenovaný přechod 30" cx="2638.71" cy="-437.48" fx="2638.71" fy="-437.48" r="3.1" gradientTransform="translate(0 -702)" gradientUnits="userSpaceOnUse">
      <stop offset="0" stop-color="#000100"/>
      <stop offset="1" stop-color="#3b3a39"/>
    </radialGradient>
    <radialGradient id="Nepojmenovaný_přechod_31" data-name="Nepojmenovaný přechod 31" cx="2638.71" cy="-386.87" fx="2638.71" fy="-386.87" r="3.1" gradientTransform="translate(0 -702)" gradientUnits="userSpaceOnUse">
      <stop offset="0" stop-color="#000100"/>
      <stop offset="1" stop-color="#3b3a39"/>
    </radialGradient>
    <radialGradient id="Nepojmenovaný_přechod_32" data-name="Nepojmenovaný přechod 32" cx="2638.71" cy="-336.26" fx="2638.71" fy="-336.26" r="3.1" gradientTransform="translate(0 -702)" gradientUnits="userSpaceOnUse">
      <stop offset="0" stop-color="#000100"/>
      <stop offset="1" stop-color="#3b3a39"/>
    </radialGradient>
    <radialGradient id="Nepojmenovaný_přechod_33" data-name="Nepojmenovaný přechod 33" cx="2638.71" cy="-285.66" fx="2638.71" fy="-285.66" r="3.1" gradientTransform="translate(0 -702)" gradientUnits="userSpaceOnUse">
      <stop offset="0" stop-color="#000100"/>
      <stop offset="1" stop-color="#3b3a39"/>
    </radialGradient>
    <radialGradient id="Nepojmenovaný_přechod_34" data-name="Nepojmenovaný přechod 34" cx="2638.71" cy="-235.05" fx="2638.71" fy="-235.05" r="3.1" gradientTransform="translate(0 -702)" gradientUnits="userSpaceOnUse">
      <stop offset="0" stop-color="#000100"/>
      <stop offset="1" stop-color="#3b3a39"/>
    </radialGradient>
    <radialGradient id="Nepojmenovaný_přechod_35" data-name="Nepojmenovaný přechod 35" cx="2638.71" cy="-184.44" fx="2638.71" fy="-184.44" r="3.1" gradientTransform="translate(0 -702)" gradientUnits="userSpaceOnUse">
      <stop offset="0" stop-color="#000100"/>
      <stop offset="1" stop-color="#3b3a39"/>
    </radialGradient>
    <radialGradient id="Nepojmenovaný_přechod_36" data-name="Nepojmenovaný přechod 36" cx="2638.71" cy="-133.84" fx="2638.71" fy="-133.84" r="3.1" gradientTransform="translate(0 -702)" gradientUnits="userSpaceOnUse">
      <stop offset="0" stop-color="#000100"/>
      <stop offset="1" stop-color="#3b3a39"/>
    </radialGradient>
  </defs>
  <line class="st21" x1="701.78" y1="26.27" x2="701.78" y2="45.31"/>
  <line class="st21" x1="656.52" y1="26.27" x2="656.52" y2="45.31"/>
  <polygon class="st38" points="663.36 31.74 656.51 29.91 663.36 28.07 663.36 31.74"/>
  <polygon class="st38" points="694.93 31.74 701.78 29.91 694.93 28.07 694.93 31.74"/>
  <rect class="st23" x="490.18" y="29.03" width="81.28" height="81.28"/>
  <g>
    <path class="st38" d="M512.56,43.12c0-.98-.02-1.79-.08-2.57h1.51l.08,1.53h.06c.53-.9,1.41-1.75,2.98-1.75,1.29,0,2.28.78,2.69,1.9h.04c.29-.53.67-.94,1.06-1.24.57-.43,1.2-.67,2.1-.67,1.26,0,3.12.82,3.12,4.12v5.59h-1.69v-5.38c0-1.82-.67-2.92-2.06-2.92-.98,0-1.75.73-2.04,1.57-.08.24-.14.55-.14.86v5.87h-1.69v-5.69c0-1.51-.67-2.61-1.98-2.61-1.08,0-1.86.86-2.14,1.73-.1.26-.14.55-.14.84v5.73h-1.69v-6.91h.01Z"/>
    <path class="st38" d="M534.18,50.04l-.14-1.2h-.06c-.53.75-1.55,1.41-2.9,1.41-1.92,0-2.9-1.35-2.9-2.73,0-2.3,2.04-3.55,5.71-3.53v-.2c0-.78-.22-2.2-2.16-2.2-.88,0-1.81.27-2.47.71l-.39-1.14c.78-.51,1.92-.84,3.12-.84,2.9,0,3.61,1.98,3.61,3.89v3.55c0,.82.04,1.63.16,2.28h-1.58,0ZM533.93,45.19c-1.88-.04-4.02.29-4.02,2.14,0,1.12.75,1.65,1.63,1.65,1.24,0,2.02-.78,2.3-1.59.06-.18.1-.37.1-.55v-1.65h0Z"/>
    <path class="st38" d="M539.19,40.54l1.35,2.04c.35.53.65,1.02.96,1.55h.06c.31-.57.63-1.06.94-1.57l1.33-2.02h1.86l-3.24,4.59,3.34,4.91h-1.96l-1.39-2.14c-.37-.55-.69-1.08-1.02-1.65h-.04c-.31.57-.65,1.08-1,1.65l-1.37,2.14h-1.9l3.37-4.85-3.22-4.65h1.93Z"/>
    <path class="st38" d="M547.05,49.02c0-.73.49-1.24,1.18-1.24s1.16.51,1.16,1.24-.45,1.24-1.18,1.24c-.69,0-1.16-.53-1.16-1.24Z"/>
  </g>
  <g class="st14">
    <g class="st14">
      <g class="st14">
        <g class="st14">
          <g class="st14">
            <g class="st14">
              <g class="st14">
                <g class="st14">
                  <g class="st14">
                    <g class="st14">
                      <g class="st14">
                        <g class="st14">
                          <g class="st14">
                            <text class="st15" transform="translate(811.82 122.4)"><tspan x="0" y="0">{{strip_stock}}</tspan></text>
                          </g>
                        </g>
                      </g>
                    </g>
                  </g>
                </g>
              </g>
            </g>
          </g>
        </g>
      </g>
    </g>
  </g>
  <g class="st14">
    <g class="st14">
      <g class="st14">
        <g class="st14">
          <g class="st14">
            <g class="st14">
              <g class="st14">
                <g class="st14">
                  <g class="st14">
                    <g class="st14">
                      <g class="st14">
                        <g class="st14">
                          <g class="st14">
                            <text class="st15" transform="translate(1041.63 121.93)"><tspan x="0" y="0">{{strip_price}}</tspan></text>
                          </g>
                        </g>
                      </g>
                    </g>
                  </g>
                </g>
              </g>
            </g>
          </g>
        </g>
      </g>
    </g>
  </g>
  <rect class="st23" x="122.55" y="29.03" width="81.28" height="81.28"/>
  <g>
    <path class="st38" d="M137.15,76.22h1.71v11.79h5.65v1.43h-7.36v-13.22Z"/>
    <path class="st38" d="M153.26,83.25h-5.14v4.77h5.73v1.43h-7.44v-13.23h7.14v1.43h-5.44v4.18h5.14v1.42h.01Z"/>
    <path class="st38" d="M156.06,76.4c1.04-.16,2.28-.28,3.63-.28,2.45,0,4.2.57,5.36,1.65,1.18,1.08,1.86,2.61,1.86,4.75s-.67,3.92-1.9,5.14c-1.24,1.24-3.28,1.9-5.85,1.9-1.22,0-2.24-.06-3.1-.16v-13ZM157.77,88.09c.43.08,1.06.1,1.73.1,3.65,0,5.63-2.04,5.63-5.61.02-3.12-1.75-5.1-5.36-5.1-.88,0-1.55.08-2,.18v10.43Z"/>
    <path class="st38" d="M167.62,90.23l5.47-14.23h1.33l-5.49,14.23s-1.31,0-1.31,0Z"/>
    <path class="st38" d="M175.8,82.52c0-.98-.02-1.79-.08-2.57h1.51l.08,1.53h.06c.53-.9,1.41-1.75,2.98-1.75,1.29,0,2.28.78,2.69,1.9h.04c.29-.53.67-.94,1.06-1.24.57-.43,1.2-.67,2.1-.67,1.26,0,3.12.82,3.12,4.12v5.59h-1.69v-5.38c0-1.82-.67-2.92-2.06-2.92-.98,0-1.75.73-2.04,1.57-.08.24-.14.55-.14.86v5.87h-1.69v-5.69c0-1.51-.67-2.61-1.98-2.61-1.08,0-1.86.86-2.14,1.73-.1.26-.14.55-.14.84v5.73h-1.69v-6.91h.01Z"/>
  </g>
  <rect class="st23" x="214.46" y="29.03" width="81.28" height="81.28"/>
  <path class="st38" d="M239.15,89.45l-3.36-13.23h1.81l1.57,6.69c.39,1.65.75,3.3.98,4.57h.04c.22-1.32.63-2.89,1.08-4.59l1.77-6.67h1.79l1.61,6.71c.37,1.57.73,3.14.92,4.53h.04c.27-1.45.65-2.92,1.06-4.57l1.75-6.67h1.75l-3.75,13.23h-1.79l-1.67-6.89c-.41-1.69-.69-2.98-.86-4.32h-.04c-.24,1.31-.53,2.61-1.02,4.32l-1.88,6.89h-1.8,0Z"/>
  <path class="st38" d="M252.08,90.23l5.47-14.23h1.33l-5.49,14.23h-1.31,0Z"/>
  <path class="st38" d="M260.26,82.52c0-.98-.02-1.79-.08-2.57h1.51l.08,1.53h.06c.53-.9,1.41-1.75,2.98-1.75,1.29,0,2.28.78,2.69,1.9h.04c.29-.53.67-.94,1.06-1.24.57-.43,1.2-.67,2.1-.67,1.26,0,3.12.82,3.12,4.12v5.59h-1.69v-5.38c0-1.82-.67-2.92-2.06-2.92-.98,0-1.75.73-2.04,1.57-.08.24-.14.55-.14.86v5.87h-1.69v-5.69c0-1.51-.67-2.61-1.98-2.61-1.08,0-1.86.86-2.14,1.73-.1.26-.14.55-.14.84v5.73h-1.69v-6.91h.01Z"/>
  <rect class="st23" x="306.37" y="29.03" width="81.28" height="81.28"/>
  <path class="st38" d="M326.8,75.52h1.73v13.93h-1.73v-13.93Z"/>
  <path class="st38" d="M331.43,82.52c0-.98-.02-1.79-.08-2.57h1.51l.08,1.53h.06c.53-.9,1.41-1.75,2.98-1.75,1.29,0,2.28.78,2.69,1.9h.04c.29-.53.67-.94,1.06-1.24.57-.43,1.2-.67,2.1-.67,1.26,0,3.12.82,3.12,4.12v5.59h-1.69v-5.38c0-1.82-.67-2.92-2.06-2.92-.98,0-1.75.73-2.04,1.57-.08.24-.14.55-.14.86v5.87h-1.69v-5.69c0-1.51-.67-2.61-1.98-2.61-1.08,0-1.86.86-2.14,1.73-.1.26-.14.55-.14.84v5.73h-1.69v-6.91h.01Z"/>
  <path class="st38" d="M346.34,90.23l5.47-14.23h1.33l-5.49,14.23s-1.31,0-1.31,0Z"/>
  <path class="st38" d="M354.53,82.52c0-.98-.02-1.79-.08-2.57h1.51l.08,1.53h.06c.53-.9,1.41-1.75,2.98-1.75,1.29,0,2.28.78,2.69,1.9h.04c.29-.53.67-.94,1.06-1.24.57-.43,1.2-.67,2.1-.67,1.26,0,3.12.82,3.12,4.12v5.59h-1.69v-5.38c0-1.82-.67-2.92-2.06-2.92-.98,0-1.75.73-2.04,1.57-.08.24-.14.55-.14.86v5.87h-1.69v-5.69c0-1.51-.67-2.61-1.98-2.61-1.08,0-1.86.86-2.14,1.73-.1.26-.14.55-.14.84v5.73h-1.69v-6.91h.01Z"/>
  <g class="st14">
    <g class="st14">
      <g class="st14">
        <g class="st14">
          <g class="st14">
            <g class="st14">
              <g class="st14">
                <g class="st14">
                  <g class="st14">
                    <g class="st14">
                      <g class="st14">
                        <g class="st14">
                          <g class="st14">
                            <text class="st13" transform="translate(507.33 97.91)"><tspan x="0" y="0">{{length}}</tspan></text>
                          </g>
                        </g>
                      </g>
                    </g>
                  </g>
                </g>
              </g>
            </g>
          </g>
        </g>
      </g>
    </g>
  </g>
  <g class="st14">
    <path d="M523.17,62.59h-5.75l-.44,2.99c.34-.05.64-.07,1.08-.07,1.31,0,2.62.3,3.63.97,1.13.71,1.95,1.98,1.95,3.79,0,2.85-2.37,5.17-6.05,5.17-1.72,0-3.17-.44-3.96-.87l.57-2.14c.64.35,1.93.78,3.29.78,1.66,0,3.24-.94,3.24-2.74s-1.26-2.83-4.25-2.83c-.83,0-1.45.05-2.05.14l.99-7.54h7.73v2.34h.02Z"/>
  </g>
  <g class="st14">
    <path d="M531.45,67.07c0-1.15-.02-2.09-.09-3.01h1.77l.09,1.79h.07c.62-1.06,1.66-2.05,3.5-2.05,1.52,0,2.67.92,3.15,2.23h.05c.34-.62.78-1.1,1.24-1.45.67-.51,1.4-.78,2.46-.78,1.47,0,3.66.97,3.66,4.83v6.55h-1.98v-6.3c0-2.14-.78-3.43-2.41-3.43-1.15,0-2.05.85-2.39,1.84-.09.28-.16.64-.16,1.01v6.88h-1.98v-6.67c0-1.77-.78-3.06-2.32-3.06-1.26,0-2.18,1.01-2.51,2.02-.12.3-.16.64-.16.99v6.71h-1.98v-8.12.02h-.01Z"/>
  </g>
  <line class="st21" x1="634.27" y1="80.48" x2="653.3" y2="80.48"/>
  <g>
    <g>
      <rect class="st17" x="30.29" y="28.85" width="81.99" height="81.99"/>
      <path class="st34" d="M111.93,29.2v81.28H30.65V29.2h81.28M112.64,28.5H29.94v82.69h82.7V28.5h0Z"/>
    </g>
    <g>
      <path class="st38" d="M54.89,77.85v-15.11h3.14l3.9,6.48c1.01,1.68,1.88,3.43,2.58,5.07h.04c-.18-2.02-.25-3.97-.25-6.28v-5.27h2.56v15.11h-2.85l-3.95-6.64c-.96-1.66-1.97-3.52-2.71-5.22l-.07.02c.11,1.95.13,3.95.13,6.43v5.4h-2.52Z"/>
      <path class="st38" d="M74.06,77.85l-3.7-15.11h2.94l1.43,6.86c.38,1.84.74,3.77.99,5.27h.04c.25-1.59.67-3.39,1.1-5.29l1.64-6.84h2.89l1.5,6.95c.38,1.79.69,3.48.92,5.11h.04c.27-1.66.63-3.39,1.03-5.22l1.57-6.84h2.8l-4.05,15.11h-2.96l-1.57-7.11c-.38-1.73-.65-3.16-.83-4.8h-.04c-.27,1.61-.56,3.07-1.01,4.8l-1.75,7.11s-2.98,0-2.98,0Z"/>
    </g>
  </g>
  <line class="st21" x1="663.36" y1="29.9" x2="694.93" y2="29.9"/>
  <g>
    <rect class="st23" x="398.27" y="29.03" width="81.28" height="81.28"/>
    <g>
      <path class="st16" d="M423.47,54.08h-.04l-2.67,1.35-.47-2.09,3.54-1.75h2.31v14.58h-2.67v-12.09h0Z"/>
      <path class="st16" d="M431.16,66.17v-1.68l1.73-1.59c3.43-3.19,5.05-4.94,5.07-6.86,0-1.3-.7-2.44-2.6-2.44-1.28,0-2.38.65-3.12,1.21l-.81-1.95c1.05-.85,2.65-1.5,4.49-1.5,3.23,0,4.8,2.04,4.8,4.42,0,2.56-1.84,4.62-4.37,6.98l-1.28,1.1v.04h5.99v2.29h-9.89v-.02h0Z"/>
      <path class="st16" d="M447.26,66.17l-4.89-15.12h3.01l2.06,6.86c.58,1.91,1.08,3.68,1.48,5.52h.04c.4-1.79.94-3.63,1.55-5.47l2.2-6.91h2.94l-5.23,15.12h-3.16Z"/>
    </g>
  </g>
  <g class="st14">
    <path d="M621.09,65.76v4.22l2.84.42c-.03-.25-.07-.49-.07-.9,0-.85.19-1.7.59-2.38.49-.87,1.45-1.58,2.84-1.58,2.16,0,3.77,1.72,3.77,4.11,0,1.21-.34,2.23-.68,2.75l-1.14-.37c.27-.46.61-1.36.61-2.36,0-1.41-.92-2.62-2.4-2.62-1.43.02-2.45.97-2.45,3.18,0,.63.07,1.12.12,1.53l-5.3-.71v-5.29h1.27,0Z"/>
  </g>
  <g class="st14">
    <path class="st38" d="M150.49,51.34h-.05l-2.74,1.38-.48-2.14,3.63-1.79h2.37v14.95h-2.74v-12.39h.01Z"/>
    <path class="st38" d="M168.93,56.16c0,4.81-1.89,7.82-5.45,7.82s-5.29-3.13-5.31-7.68c0-4.64,1.98-7.77,5.47-7.77s5.29,3.22,5.29,7.63ZM161.02,56.3c-.02,3.63.99,5.52,2.55,5.52,1.66,0,2.53-2.02,2.53-5.61s-.83-5.52-2.53-5.52c-1.52,0-2.58,1.86-2.55,5.61Z"/>
    <path class="st38" d="M181.26,56.16c0,4.81-1.89,7.82-5.45,7.82s-5.29-3.13-5.31-7.68c0-4.64,1.98-7.77,5.47-7.77s5.29,3.22,5.29,7.63ZM173.35,56.3c-.02,3.63.99,5.52,2.55,5.52,1.66,0,2.53-2.02,2.53-5.61s-.83-5.52-2.53-5.52c-1.52,0-2.58,1.86-2.55,5.61Z"/>
  </g>
  <g class="st14">
    <path class="st38" d="M259.41,50.78c-.41,0-.87,0-1.45.07-3.13.37-4.65,2.3-5.01,4.37h.07c.74-.85,1.86-1.45,3.36-1.45,2.58,0,4.58,1.84,4.58,4.88,0,2.85-2.09,5.33-5.27,5.33-3.63,0-5.63-2.76-5.63-6.44,0-2.87,1.03-5.22,2.6-6.71,1.38-1.29,3.17-2.02,5.31-2.21.62-.07,1.08-.07,1.43-.05l.02,2.21h0ZM258.08,58.81c0-1.72-.94-2.97-2.6-2.97-1.06,0-2,.64-2.44,1.54-.11.23-.18.51-.18.9.05,1.98.99,3.59,2.81,3.59,1.47,0,2.41-1.26,2.41-3.06Z"/>
  </g>
  <g class="st14">
    <path class="st38" d="M338.61,51.03c-.41,0-.87,0-1.45.07-3.13.37-4.65,2.3-5.01,4.37h.07c.74-.85,1.86-1.45,3.36-1.45,2.58,0,4.58,1.84,4.58,4.88,0,2.85-2.09,5.33-5.27,5.33-3.63,0-5.63-2.76-5.63-6.44,0-2.87,1.03-5.22,2.6-6.71,1.38-1.29,3.17-2.02,5.31-2.21.62-.07,1.08-.07,1.43-.05l.02,2.21h0ZM337.28,59.06c0-1.72-.94-2.97-2.6-2.97-1.06,0-2,.64-2.44,1.54-.11.23-.18.51-.18.9.05,1.98.99,3.59,2.81,3.59,1.47,0,2.41-1.26,2.41-3.06Z"/>
    <path class="st38" d="M352.39,56.41c0,4.81-1.89,7.82-5.45,7.82s-5.29-3.13-5.31-7.68c0-4.64,1.98-7.77,5.47-7.77s5.29,3.22,5.29,7.63ZM344.48,56.55c-.02,3.63.99,5.52,2.55,5.52,1.66,0,2.53-2.02,2.53-5.61s-.83-5.52-2.53-5.52c-1.52,0-2.58,1.86-2.55,5.61Z"/>
    <path class="st38" d="M364.72,56.41c0,4.81-1.89,7.82-5.45,7.82s-5.29-3.13-5.31-7.68c0-4.64,1.98-7.77,5.47-7.77s5.29,3.22,5.29,7.63ZM356.81,56.55c-.02,3.63.99,5.52,2.55,5.52,1.66,0,2.53-2.02,2.53-5.61s-.83-5.52-2.53-5.52c-1.52,0-2.58,1.86-2.55,5.61Z"/>
  </g>
  <g class="st14">
    <path class="st30" d="M665.78,117.19c-.09-1.69-.2-3.73-.18-5.24h-.05c-.41,1.42-.92,2.93-1.53,4.61l-2.14,5.89h-1.19l-1.96-5.78c-.58-1.71-1.06-3.28-1.4-4.72h-.04c-.04,1.51-.13,3.55-.23,5.37l-.32,5.2h-1.49l.85-12.14h2l2.07,5.87c.5,1.49.92,2.83,1.22,4.09h.05c.31-1.22.74-2.56,1.28-4.09l2.16-5.87h2l.76,12.14h-1.53l-.31-5.33h-.02,0Z"/>
    <path class="st30" d="M670.54,110.38h1.57v10.82h5.19v1.31h-6.75v-12.14h-.01Z"/>
    <path class="st30" d="M682.42,117.06v1.17h-4.45v-1.17h4.45Z"/>
    <path class="st30" d="M687.73,112.29h-.04l-2.03,1.1-.31-1.21,2.56-1.37h1.35v11.7h-1.53v-10.23h0Z"/>
    <path class="st30" d="M694.05,122.52v-.97l1.24-1.21c2.99-2.84,4.34-4.36,4.36-6.12,0-1.19-.58-2.29-2.32-2.29-1.06,0-1.94.54-2.48.99l-.5-1.12c.81-.68,1.96-1.19,3.31-1.19,2.52,0,3.58,1.73,3.58,3.4,0,2.16-1.57,3.91-4.03,6.28l-.94.86v.04h5.26v1.31h-7.47v.02h-.01Z"/>
    <path class="st30" d="M707.24,112.29h-.04l-2.03,1.1-.31-1.21,2.56-1.37h1.35v11.7h-1.53v-10.23h0Z"/>
    <path class="st30" d="M713.69,121.58c0-.67.45-1.13,1.08-1.13s1.06.47,1.06,1.13-.42,1.13-1.08,1.13-1.06-.49-1.06-1.13Z"/>
    <path class="st30" d="M725.59,116.54c0,3.98-1.48,6.18-4.07,6.18-2.29,0-3.83-2.14-3.87-6.01,0-3.93,1.69-6.09,4.07-6.09s3.87,2.2,3.87,5.92ZM719.23,116.72c0,3.04.94,4.77,2.38,4.77,1.62,0,2.39-1.89,2.39-4.88s-.74-4.77-2.38-4.77c-1.39,0-2.4,1.69-2.4,4.88h.01Z"/>
    <path class="st30" d="M735.16,110.82v1.04l-5.1,10.66h-1.64l5.08-10.35v-.04h-5.73v-1.31h7.39,0Z"/>
    <path class="st30" d="M745.1,116.54c0,3.98-1.48,6.18-4.07,6.18-2.29,0-3.83-2.14-3.87-6.01,0-3.93,1.69-6.09,4.07-6.09s3.87,2.2,3.87,5.92ZM738.74,116.72c0,3.04.94,4.77,2.38,4.77,1.62,0,2.39-1.89,2.39-4.88s-.74-4.77-2.38-4.77c-1.39,0-2.4,1.69-2.4,4.88h.01Z"/>
    <path class="st30" d="M747.2,121.58c0-.67.45-1.13,1.08-1.13s1.06.47,1.06,1.13-.42,1.13-1.08,1.13-1.06-.49-1.06-1.13Z"/>
    <path class="st30" d="M752.24,121.4c.34.04.74,0,1.28-.05.92-.13,1.78-.5,2.45-1.13.77-.7,1.33-1.73,1.55-3.12h-.05c-.65.79-1.58,1.26-2.75,1.26-2.11,0-3.46-1.58-3.46-3.58,0-2.21,1.6-4.16,4-4.16s3.87,1.94,3.87,4.93c0,2.57-.86,4.38-2.02,5.49-.9.88-2.14,1.42-3.4,1.57-.58.09-1.08.11-1.46.09v-1.3h0ZM752.82,114.67c0,1.46.88,2.49,2.25,2.49,1.06,0,1.89-.52,2.3-1.22.09-.14.14-.32.14-.58,0-2-.74-3.53-2.39-3.53-1.35,0-2.3,1.19-2.3,2.84Z"/>
    <path class="st30" d="M768.86,116.54c0,3.98-1.48,6.18-4.07,6.18-2.29,0-3.83-2.14-3.87-6.01,0-3.93,1.69-6.09,4.07-6.09s3.87,2.2,3.87,5.92ZM762.5,116.72c0,3.04.94,4.77,2.38,4.77,1.62,0,2.39-1.89,2.39-4.88s-.74-4.77-2.38-4.77c-1.39,0-2.4,1.69-2.4,4.88h.01Z"/>
    <path class="st30" d="M770.96,121.58c0-.67.45-1.13,1.08-1.13s1.06.47,1.06,1.13-.41,1.13-1.08,1.13c-.63,0-1.06-.49-1.06-1.13Z"/>
    <path class="st30" d="M782.29,122.52l-1.55-2.68c-.63-1.03-1.03-1.69-1.4-2.39h-.04c-.34.7-.68,1.35-1.31,2.41l-1.46,2.67h-1.8l3.71-6.14-3.56-6h1.82l1.6,2.84c.45.79.79,1.4,1.12,2.05h.05c.34-.72.65-1.28,1.1-2.05l1.66-2.84h1.8l-3.69,5.91,3.78,6.23h-1.83,0Z"/>
  </g>
  <g class="st14">
    <path d="M658.17,13.87h-.03l-1.92,1.04-.29-1.14,2.41-1.29h1.27v11.05h-1.44s0-9.66,0-9.66Z"/>
    <path d="M670.98,17.89c0,3.76-1.39,5.83-3.84,5.83-2.16,0-3.62-2.02-3.66-5.68,0-3.71,1.6-5.75,3.84-5.75s3.66,2.07,3.66,5.59h0ZM664.98,18.06c0,2.87.88,4.5,2.24,4.5,1.53,0,2.26-1.79,2.26-4.61s-.7-4.5-2.24-4.5c-1.31,0-2.26,1.6-2.26,4.61Z"/>
    <path d="M676.44,17.53c0-.85-.02-1.55-.07-2.23h1.31l.07,1.33h.05c.46-.78,1.22-1.51,2.58-1.51,1.12,0,1.97.68,2.33,1.65h.03c.25-.46.58-.82.92-1.07.49-.37,1.04-.58,1.82-.58,1.09,0,2.7.71,2.7,3.57v4.84h-1.46v-4.66c0-1.58-.58-2.53-1.79-2.53-.85,0-1.51.63-1.77,1.36-.07.2-.12.48-.12.75v5.08h-1.46v-4.93c0-1.31-.58-2.26-1.72-2.26-.93,0-1.62.75-1.85,1.5-.08.22-.12.48-.12.73v4.96h-1.46v-6h0Z"/>
    <path d="M690.62,17.53c0-.85-.02-1.55-.07-2.23h1.31l.07,1.33h.05c.46-.78,1.22-1.51,2.58-1.51,1.12,0,1.97.68,2.33,1.65h.03c.25-.46.58-.82.92-1.07.49-.37,1.04-.58,1.82-.58,1.09,0,2.7.71,2.7,3.57v4.84h-1.46v-4.66c0-1.58-.58-2.53-1.79-2.53-.85,0-1.51.63-1.77,1.36-.07.2-.12.48-.12.75v5.08h-1.46v-4.93c0-1.31-.58-2.26-1.72-2.26-.93,0-1.62.75-1.85,1.5-.08.22-.12.48-.12.73v4.96h-1.46v-6h0Z"/>
  </g>
  <line class="st21" x1="637.92" y1="64.49" x2="637.92" y2="73.45"/>
  <polygon class="st38" points="636.09 64.49 637.92 57.64 639.76 64.49 636.09 64.49"/>
  <polygon class="st38" points="636.09 73.45 637.92 80.3 639.76 73.45 636.09 73.45"/>
  <line class="st21" x1="634.27" y1="57.64" x2="653.31" y2="57.64"/>
  <g class="st50">
    <g>
      <g>
        <polygon class="st20" points="657.08 57.87 657.08 80.16 881.11 80.16 1170.13 80.16 1170.13 57.87 657.08 57.87"/>
        <path class="st53" d="M1170.13,57.87v22.29h-513.05v-22.29h513.05M1170.57,57.64h-513.93v22.75h513.93v-22.75h0Z"/>
      </g>
      <g>
        <rect class="st52" x="674.01" y="61.67" width="10.68" height="3.82" rx=".21" ry=".21"/>
        <g>
          <rect class="st1" x="680.56" y="61.42" width="7.5" height="4.57" rx="1.12" ry="1.12"/>
          <rect class="st1" x="670.63" y="61.42" width="7.5" height="4.57" rx="1.12" ry="1.12"/>
        </g>
        <rect class="st52" x="673.57" y="61.37" width="11.54" height="3.45" rx=".24" ry=".24"/>
        <path class="st53" d="M679.35,62.06h5.93c.95,0,.82-.21.15-1.58-.54-1.09-1.1-1.09-1.56-1.09h-9.04c-.46,0-1.02,0-1.56,1.09-.68,1.37-.81,1.58.15,1.58h5.93,0Z"/>
        <path class="st52" d="M679.35,62.21h5.93c.95,0,.82-.21.15-1.58-.54-1.09-1.1-1.09-1.56-1.09h-9.04c-.46,0-1.02,0-1.56,1.09-.68,1.37-.81,1.58.15,1.58h5.93,0Z"/>
        <polygon class="st43" points="668.66 59.99 670.02 59.99 670.02 60.67 669.34 60.67 669.34 66.82 689.47 66.82 689.47 62.19 687.29 59.99 690.04 59.99 690.04 67.42 668.66 67.42 668.66 59.99"/>
      </g>
      <path d="M644.34,75.01v-.5h3.32v.5h-3.32Z"/>
      <path d="M666.32,74.96v-.5h3.32v.5h-3.32Z"/>
      <rect class="st43" x="656.79" y="57.9" width=".58" height="2.04"/>
      <rect class="st43" x="656.79" y="68.37" width=".58" height="2.04"/>
      <rect class="st43" x="656.72" y="78.08" width=".58" height="2.04"/>
      <rect class="st46" x="649.17" y="60.79" width="15.82" height="7.57" rx="1.86" ry="1.86"/>
      <rect class="st28" x="649.17" y="70.74" width="15.82" height="7.57" rx="1.86" ry="1.86"/>
      <g>
        <g>
          <path d="M644.29,68.85h0l-.49.26-.07-.29.61-.33h.32v2.79h-.36v-2.43h-.01Z"/>
          <path d="M645.67,71.28v-.23l.3-.29c.71-.68,1.03-1.04,1.04-1.46,0-.28-.14-.54-.55-.54-.25,0-.46.13-.59.24l-.12-.27c.19-.16.47-.28.79-.28.6,0,.85.41.85.81,0,.51-.37.93-.96,1.5l-.22.21h1.25v.31h-1.79,0Z"/>
          <path d="M648.63,71.28l-.94-2.89h.4l.45,1.42c.12.39.23.74.31,1.08h0c.08-.34.2-.7.33-1.08l.49-1.43h.4l-1.03,2.89h-.41Z"/>
        </g>
        <g>
          <path d="M640.58,70.07v-.37h2.46v.37h-2.46Z"/>
          <path d="M642,71.12h-.37v-2.46h.37v2.46Z"/>
        </g>
      </g>
      <g>
        <g>
          <path d="M667.8,68.85h0l-.49.26-.07-.29.61-.33h.32v2.79h-.36v-2.43h-.01Z"/>
          <path d="M669.18,71.28v-.23l.3-.29c.71-.68,1.03-1.04,1.04-1.46,0-.28-.14-.54-.55-.54-.25,0-.46.13-.59.24l-.12-.27c.19-.16.47-.28.79-.28.6,0,.85.41.85.81,0,.51-.37.93-.96,1.5l-.22.21h1.25v.31h-1.79,0Z"/>
          <path d="M672.14,71.28l-.94-2.89h.4l.45,1.42c.12.39.23.74.31,1.08h0c.08-.34.2-.7.33-1.08l.49-1.43h.4l-1.03,2.89h-.41Z"/>
        </g>
        <g>
          <path d="M664.1,70.07v-.37h2.46v.37h-2.46Z"/>
          <path d="M665.51,71.12h-.37v-2.46h.37v2.46Z"/>
        </g>
      </g>
      <path d="M689.21,75.01v-.5h3.32v.5h-3.32Z"/>
      <path d="M711.2,74.96v-.5h3.32v.5h-3.32Z"/>
      <rect class="st43" x="701.67" y="57.9" width=".58" height="2.04"/>
      <rect class="st43" x="701.67" y="68.37" width=".58" height="2.04"/>
      <rect class="st43" x="701.6" y="78.08" width=".58" height="2.04"/>
      <rect class="st2" x="694.05" y="60.79" width="15.82" height="7.57" rx="1.86" ry="1.86"/>
      <rect class="st12" x="694.05" y="70.74" width="15.82" height="7.57" rx="1.86" ry="1.86"/>
      <g>
        <g>
          <path d="M689.16,68.85h0l-.49.26-.07-.29.61-.33h.32v2.79h-.36v-2.43h-.01Z"/>
          <path d="M690.54,71.28v-.23l.3-.29c.71-.68,1.03-1.04,1.04-1.46,0-.28-.14-.54-.55-.54-.25,0-.46.13-.59.24l-.12-.27c.19-.16.47-.28.79-.28.6,0,.85.41.85.81,0,.51-.37.93-.96,1.5l-.22.21h1.25v.31h-1.79,0Z"/>
          <path d="M693.5,71.28l-.94-2.89h.4l.45,1.42c.12.39.23.74.31,1.08h0c.08-.34.2-.7.33-1.08l.49-1.43h.4l-1.03,2.89h-.41Z"/>
        </g>
        <g>
          <path d="M685.45,70.07v-.37h2.46v.37h-2.46Z"/>
          <path d="M686.87,71.12h-.37v-2.46h.37v2.46Z"/>
        </g>
      </g>
      <g>
        <g>
          <path d="M712.68,68.85h0l-.49.26-.07-.29.61-.33h.32v2.79h-.36v-2.43h-.01Z"/>
          <path d="M714.05,71.28v-.23l.3-.29c.71-.68,1.03-1.04,1.04-1.46,0-.28-.14-.54-.55-.54-.25,0-.46.13-.59.24l-.12-.27c.19-.16.47-.28.79-.28.6,0,.85.41.85.81,0,.51-.37.93-.96,1.5l-.22.21h1.25v.31h-1.79,0Z"/>
          <path d="M717.01,71.28l-.94-2.89h.4l.45,1.42c.12.39.23.74.31,1.08h0c.08-.34.2-.7.33-1.08l.49-1.43h.4l-1.03,2.89h-.41Z"/>
        </g>
        <g>
          <path d="M708.97,70.07v-.37h2.46v.37h-2.46Z"/>
          <path d="M710.38,71.12h-.37v-2.46h.37v2.46Z"/>
        </g>
      </g>
      <path d="M733.59,75.01v-.5h3.32v.5h-3.32Z"/>
      <path d="M755.57,74.96v-.5h3.32v.5h-3.32Z"/>
      <rect class="st43" x="746.04" y="57.9" width=".58" height="2.04"/>
      <rect class="st43" x="746.04" y="68.37" width=".58" height="2.04"/>
      <rect class="st43" x="745.98" y="78.08" width=".58" height="2.04"/>
      <rect class="st6" x="738.42" y="60.79" width="15.82" height="7.57" rx="1.86" ry="1.86"/>
      <rect class="st8" x="738.42" y="70.74" width="15.82" height="7.57" rx="1.86" ry="1.86"/>
      <g>
        <g>
          <path d="M733.54,68.85h0l-.49.26-.07-.29.61-.33h.32v2.79h-.36v-2.43h-.01Z"/>
          <path d="M734.92,71.28v-.23l.3-.29c.71-.68,1.03-1.04,1.04-1.46,0-.28-.14-.54-.55-.54-.25,0-.46.13-.59.24l-.12-.27c.19-.16.47-.28.79-.28.6,0,.85.41.85.81,0,.51-.37.93-.96,1.5l-.22.21h1.25v.31h-1.79,0Z"/>
          <path d="M737.88,71.28l-.94-2.89h.4l.45,1.42c.12.39.23.74.31,1.08h0c.08-.34.2-.7.33-1.08l.49-1.43h.4l-1.03,2.89h-.41Z"/>
        </g>
        <g>
          <path d="M729.83,70.07v-.37h2.46v.37h-2.46Z"/>
          <path d="M731.25,71.12h-.37v-2.46h.37v2.46Z"/>
        </g>
      </g>
      <g>
        <g>
          <path d="M757.05,68.85h0l-.49.26-.07-.29.61-.33h.32v2.79h-.36v-2.43h-.01Z"/>
          <path d="M758.43,71.28v-.23l.3-.29c.71-.68,1.03-1.04,1.04-1.46,0-.28-.14-.54-.55-.54-.25,0-.46.13-.59.24l-.12-.27c.19-.16.47-.28.79-.28.6,0,.85.41.85.81,0,.51-.37.93-.96,1.5l-.22.21h1.25v.31h-1.79,0Z"/>
          <path d="M761.39,71.28l-.94-2.89h.4l.45,1.42c.12.39.23.74.31,1.08h0c.08-.34.2-.7.33-1.08l.49-1.43h.4l-1.03,2.89h-.41Z"/>
        </g>
        <g>
          <path d="M753.35,70.07v-.37h2.46v.37h-2.46Z"/>
          <path d="M754.76,71.12h-.37v-2.46h.37v2.46Z"/>
        </g>
      </g>
      <path d="M778.39,75.01v-.5h3.32v.5h-3.32Z"/>
      <path d="M800.37,74.96v-.5h3.32v.5h-3.32Z"/>
      <rect class="st43" x="790.84" y="57.9" width=".58" height="2.04"/>
      <rect class="st43" x="790.84" y="68.37" width=".58" height="2.04"/>
      <rect class="st43" x="790.78" y="78.08" width=".58" height="2.04"/>
      <rect class="st36" x="783.22" y="60.79" width="15.82" height="7.57" rx="1.86" ry="1.86"/>
      <rect class="st4" x="783.22" y="70.74" width="15.82" height="7.57" rx="1.86" ry="1.86"/>
      <g>
        <g>
          <path d="M778.33,68.85h0l-.49.26-.07-.29.61-.33h.32v2.79h-.36v-2.43h-.01Z"/>
          <path d="M779.71,71.28v-.23l.3-.29c.71-.68,1.03-1.04,1.04-1.46,0-.28-.14-.54-.55-.54-.25,0-.46.13-.59.24l-.12-.27c.19-.16.47-.28.79-.28.6,0,.85.41.85.81,0,.51-.37.93-.96,1.5l-.22.21h1.25v.31h-1.79,0Z"/>
          <path d="M782.67,71.28l-.94-2.89h.4l.45,1.42c.12.39.23.74.31,1.08h0c.08-.34.2-.7.33-1.08l.49-1.43h.4l-1.03,2.89h-.41Z"/>
        </g>
        <g>
          <path d="M774.63,70.07v-.37h2.46v.37h-2.46Z"/>
          <path d="M776.04,71.12h-.37v-2.46h.37v2.46Z"/>
        </g>
      </g>
      <g>
        <g>
          <path d="M801.85,68.85h0l-.49.26-.07-.29.61-.33h.32v2.79h-.36v-2.43h-.01Z"/>
          <path d="M803.22,71.28v-.23l.3-.29c.71-.68,1.03-1.04,1.04-1.46,0-.28-.14-.54-.55-.54-.25,0-.46.13-.59.24l-.12-.27c.19-.16.47-.28.79-.28.6,0,.85.41.85.81,0,.51-.37.93-.96,1.5l-.22.21h1.25v.31h-1.79,0Z"/>
          <path d="M806.18,71.28l-.94-2.89h.4l.45,1.42c.12.39.23.74.31,1.08h0c.08-.34.2-.7.33-1.08l.49-1.43h.4l-1.03,2.89h-.41Z"/>
        </g>
        <g>
          <path d="M798.14,70.07v-.37h2.46v.37h-2.46Z"/>
          <path d="M799.56,71.12h-.37v-2.46h.37v2.46Z"/>
        </g>
      </g>
      <path d="M822.6,75.01v-.5h3.32v.5h-3.32Z"/>
      <path d="M844.59,74.96v-.5h3.32v.5h-3.32Z"/>
      <rect class="st43" x="835.06" y="57.9" width=".58" height="2.04"/>
      <rect class="st43" x="835.06" y="68.37" width=".58" height="2.04"/>
      <rect class="st43" x="835" y="78.08" width=".58" height="2.04"/>
      <rect class="st10" x="827.44" y="60.79" width="15.82" height="7.57" rx="1.86" ry="1.86"/>
      <rect class="st32" x="827.44" y="70.74" width="15.82" height="7.57" rx="1.86" ry="1.86"/>
      <g>
        <g>
          <path d="M822.55,68.85h0l-.49.26-.07-.29.61-.33h.32v2.79h-.36v-2.43h-.01Z"/>
          <path d="M823.93,71.28v-.23l.3-.29c.71-.68,1.03-1.04,1.04-1.46,0-.28-.14-.54-.55-.54-.25,0-.46.13-.59.24l-.12-.27c.19-.16.47-.28.79-.28.6,0,.85.41.85.81,0,.51-.37.93-.96,1.5l-.22.21h1.25v.31h-1.79,0Z"/>
          <path d="M826.89,71.28l-.94-2.89h.4l.45,1.42c.12.39.23.74.31,1.08h0c.08-.34.2-.7.33-1.08l.49-1.43h.4l-1.03,2.89h-.41Z"/>
        </g>
        <g>
          <path d="M818.85,70.07v-.37h2.46v.37h-2.46Z"/>
          <path d="M820.26,71.12h-.37v-2.46h.37v2.46Z"/>
        </g>
      </g>
      <g>
        <g>
          <path d="M846.07,68.85h0l-.49.26-.07-.29.61-.33h.32v2.79h-.36v-2.43h-.01Z"/>
          <path d="M847.44,71.28v-.23l.3-.29c.71-.68,1.03-1.04,1.04-1.46,0-.28-.14-.54-.55-.54-.25,0-.46.13-.59.24l-.12-.27c.19-.16.47-.28.79-.28.6,0,.85.41.85.81,0,.51-.37.93-.96,1.5l-.22.21h1.25v.31h-1.79,0Z"/>
          <path d="M850.4,71.28l-.94-2.89h.4l.45,1.42c.12.39.23.74.31,1.08h0c.08-.34.2-.7.33-1.08l.49-1.43h.4l-1.03,2.89h-.41Z"/>
        </g>
        <g>
          <path d="M842.36,70.07v-.37h2.46v.37h-2.46Z"/>
          <path d="M843.78,71.12h-.37v-2.46h.37v2.46Z"/>
        </g>
      </g>
      <path d="M866.94,75.01v-.5h3.32v.5h-3.32Z"/>
      <path d="M888.93,74.96v-.5h3.32v.5h-3.32Z"/>
      <rect class="st43" x="879.39" y="57.9" width=".58" height="2.04"/>
      <rect class="st43" x="879.39" y="68.37" width=".58" height="2.04"/>
      <rect class="st43" x="879.33" y="78.08" width=".58" height="2.04"/>
      <rect class="st7" x="871.77" y="60.79" width="15.82" height="7.57" rx="1.86" ry="1.86"/>
      <rect class="st27" x="871.77" y="70.74" width="15.82" height="7.57" rx="1.86" ry="1.86"/>
      <g>
        <g>
          <path d="M866.89,68.85h0l-.49.26-.07-.29.61-.33h.32v2.79h-.36v-2.43h-.01Z"/>
          <path d="M868.27,71.28v-.23l.3-.29c.71-.68,1.03-1.04,1.04-1.46,0-.28-.14-.54-.55-.54-.25,0-.46.13-.59.24l-.12-.27c.19-.16.47-.28.79-.28.6,0,.85.41.85.81,0,.51-.37.93-.96,1.5l-.22.21h1.25v.31h-1.79,0Z"/>
          <path d="M871.23,71.28l-.94-2.89h.4l.45,1.42c.12.39.23.74.31,1.08h0c.08-.34.2-.7.33-1.08l.49-1.43h.4l-1.03,2.89h-.41Z"/>
        </g>
        <g>
          <path d="M863.18,70.07v-.37h2.46v.37h-2.46Z"/>
          <path d="M864.6,71.12h-.37v-2.46h.37v2.46Z"/>
        </g>
      </g>
      <g>
        <g>
          <path d="M890.41,68.85h0l-.49.26-.07-.29.61-.33h.32v2.79h-.36v-2.43h-.01Z"/>
          <path d="M891.78,71.28v-.23l.3-.29c.71-.68,1.03-1.04,1.04-1.46,0-.28-.14-.54-.55-.54-.25,0-.46.13-.59.24l-.12-.27c.19-.16.47-.28.79-.28.6,0,.85.41.85.81,0,.51-.37.93-.96,1.5l-.22.21h1.25v.31h-1.79,0Z"/>
          <path d="M894.74,71.28l-.94-2.89h.4l.45,1.42c.12.39.23.74.31,1.08h0c.08-.34.2-.7.33-1.08l.49-1.43h.4l-1.03,2.89h-.41Z"/>
        </g>
        <g>
          <path d="M886.7,70.07v-.37h2.46v.37h-2.46Z"/>
          <path d="M888.11,71.12h-.37v-2.46h.37v2.46Z"/>
        </g>
      </g>
      <path d="M911.49,75.01v-.5h3.32v.5h-3.32Z"/>
      <path d="M933.47,74.96v-.5h3.32v.5h-3.32Z"/>
      <rect class="st43" x="923.94" y="57.9" width=".58" height="2.04"/>
      <rect class="st43" x="923.94" y="68.37" width=".58" height="2.04"/>
      <rect class="st43" x="923.88" y="78.08" width=".58" height="2.04"/>
      <rect class="st3" x="916.32" y="60.79" width="15.82" height="7.57" rx="1.86" ry="1.86"/>
      <rect class="st37" x="916.32" y="70.74" width="15.82" height="7.57" rx="1.86" ry="1.86"/>
      <g>
        <g>
          <path d="M911.44,68.85h0l-.49.26-.07-.29.61-.33h.32v2.79h-.36v-2.43h-.01Z"/>
          <path d="M912.81,71.28v-.23l.3-.29c.71-.68,1.03-1.04,1.04-1.46,0-.28-.14-.54-.55-.54-.25,0-.46.13-.59.24l-.12-.27c.19-.16.47-.28.79-.28.6,0,.85.41.85.81,0,.51-.37.93-.96,1.5l-.22.21h1.25v.31h-1.79,0Z"/>
          <path d="M915.77,71.28l-.94-2.89h.4l.45,1.42c.12.39.23.74.31,1.08h0c.08-.34.2-.7.33-1.08l.49-1.43h.4l-1.03,2.89h-.41Z"/>
        </g>
        <g>
          <path d="M907.73,70.07v-.37h2.46v.37h-2.46Z"/>
          <path d="M909.14,71.12h-.37v-2.46h.37v2.46Z"/>
        </g>
      </g>
      <g>
        <g>
          <path d="M934.95,68.85h0l-.49.26-.07-.29.61-.33h.32v2.79h-.36v-2.43h-.01Z"/>
          <path d="M936.32,71.28v-.23l.3-.29c.71-.68,1.03-1.04,1.04-1.46,0-.28-.14-.54-.55-.54-.25,0-.46.13-.59.24l-.12-.27c.19-.16.47-.28.79-.28.6,0,.85.41.85.81,0,.51-.37.93-.96,1.5l-.22.21h1.25v.31h-1.79,0Z"/>
          <path d="M939.28,71.28l-.94-2.89h.4l.45,1.42c.12.39.23.74.31,1.08h0c.08-.34.2-.7.33-1.08l.49-1.43h.4l-1.03,2.89h-.41Z"/>
        </g>
        <g>
          <path d="M931.24,70.07v-.37h2.46v.37h-2.46Z"/>
          <path d="M932.66,71.12h-.37v-2.46h.37v2.46Z"/>
        </g>
      </g>
      <path d="M955.9,75.01v-.5h3.32v.5h-3.32Z"/>
      <path d="M977.88,74.96v-.5h3.32v.5h-3.32Z"/>
      <rect class="st43" x="968.35" y="57.9" width=".58" height="2.04"/>
      <rect class="st43" x="968.35" y="68.37" width=".58" height="2.04"/>
      <rect class="st43" x="968.29" y="78.08" width=".58" height="2.04"/>
      <rect class="st42" x="960.73" y="60.79" width="15.82" height="7.57" rx="1.86" ry="1.86"/>
      <rect class="st49" x="960.73" y="70.74" width="15.82" height="7.57" rx="1.86" ry="1.86"/>
      <g>
        <g>
          <path d="M955.85,68.85h0l-.49.26-.07-.29.61-.33h.32v2.79h-.36v-2.43h-.01Z"/>
          <path d="M957.22,71.28v-.23l.3-.29c.71-.68,1.03-1.04,1.04-1.46,0-.28-.14-.54-.55-.54-.25,0-.46.13-.59.24l-.12-.27c.19-.16.47-.28.79-.28.6,0,.85.41.85.81,0,.51-.37.93-.96,1.5l-.22.21h1.25v.31h-1.79,0Z"/>
          <path d="M960.18,71.28l-.94-2.89h.4l.45,1.42c.12.39.23.74.31,1.08h0c.08-.34.2-.7.33-1.08l.49-1.43h.4l-1.03,2.89h-.41Z"/>
        </g>
        <g>
          <path d="M952.14,70.07v-.37h2.46v.37h-2.46Z"/>
          <path d="M953.56,71.12h-.37v-2.46h.37v2.46Z"/>
        </g>
      </g>
      <g>
        <g>
          <path d="M979.36,68.85h0l-.49.26-.07-.29.61-.33h.32v2.79h-.36v-2.43h-.01Z"/>
          <path d="M980.73,71.28v-.23l.3-.29c.71-.68,1.03-1.04,1.04-1.46,0-.28-.14-.54-.55-.54-.25,0-.46.13-.59.24l-.12-.27c.19-.16.47-.28.79-.28.6,0,.85.41.85.81,0,.51-.37.93-.96,1.5l-.22.21h1.25v.31h-1.79,0Z"/>
          <path d="M983.7,71.28l-.94-2.89h.4l.45,1.42c.12.39.23.74.31,1.08h0c.08-.34.2-.7.33-1.08l.49-1.43h.4l-1.03,2.89h-.41Z"/>
        </g>
        <g>
          <path d="M975.65,70.07v-.37h2.46v.37h-2.46Z"/>
          <path d="M977.07,71.12h-.37v-2.46h.37v2.46Z"/>
        </g>
      </g>
      <path d="M1000.25,75.01v-.5h3.32v.5h-3.32Z"/>
      <path d="M1022.23,74.96v-.5h3.32v.5h-3.32,0Z"/>
      <rect class="st43" x="1012.7" y="57.9" width=".58" height="2.04"/>
      <rect class="st43" x="1012.7" y="68.37" width=".58" height="2.04"/>
      <rect class="st43" x="1012.63" y="78.08" width=".58" height="2.04"/>
      <rect class="st5" x="1005.08" y="60.79" width="15.82" height="7.57" rx="1.86" ry="1.86"/>
      <rect class="st18" x="1005.08" y="70.74" width="15.82" height="7.57" rx="1.86" ry="1.86"/>
      <g>
        <g>
          <path d="M1000.2,68.85h0l-.49.26-.07-.29.61-.33h.32v2.79h-.36v-2.43h-.01Z"/>
          <path d="M1001.57,71.28v-.23l.3-.29c.71-.68,1.03-1.04,1.04-1.46,0-.28-.14-.54-.55-.54-.25,0-.46.13-.59.24l-.12-.27c.19-.16.47-.28.79-.28.6,0,.85.41.85.81,0,.51-.37.93-.96,1.5l-.22.21h1.25v.31h-1.79,0Z"/>
          <path d="M1004.53,71.28l-.94-2.89h.4l.45,1.42c.12.39.23.74.31,1.08h0c.08-.34.2-.7.33-1.08l.49-1.43h.4l-1.03,2.89h-.41Z"/>
        </g>
        <g>
          <path d="M996.49,70.07v-.37h2.46v.37h-2.46Z"/>
          <path d="M997.91,71.12h-.37v-2.46h.37v2.46Z"/>
        </g>
      </g>
      <g>
        <g>
          <path d="M1023.71,68.85h0l-.49.26-.07-.29.61-.33h.32v2.79h-.36v-2.43h-.01,0Z"/>
          <path d="M1025.09,71.28v-.23l.3-.29c.71-.68,1.03-1.04,1.04-1.46,0-.28-.14-.54-.55-.54-.25,0-.46.13-.59.24l-.12-.27c.19-.16.47-.28.79-.28.6,0,.85.41.85.81,0,.51-.37.93-.96,1.5l-.22.21h1.25v.31h-1.79Z"/>
          <path d="M1028.05,71.28l-.94-2.89h.4l.45,1.42c.12.39.23.74.31,1.08h0c.08-.34.2-.7.33-1.08l.49-1.43h.4l-1.03,2.89h-.41Z"/>
        </g>
        <g>
          <path d="M1020,70.07v-.37h2.46v.37h-2.46Z"/>
          <path d="M1021.42,71.12h-.37v-2.46h.37v2.46Z"/>
        </g>
      </g>
      <path d="M1044.85,75.01v-.5h3.32v.5h-3.32Z"/>
      <path d="M1066.84,74.96v-.5h3.32v.5h-3.32Z"/>
      <rect class="st43" x="1057.3" y="57.9" width=".58" height="2.04"/>
      <rect class="st43" x="1057.3" y="68.37" width=".58" height="2.04"/>
      <rect class="st43" x="1057.23" y="78.08" width=".58" height="2.04"/>
      <rect class="st35" x="1049.69" y="60.79" width="15.82" height="7.57" rx="1.86" ry="1.86"/>
      <rect class="st26" x="1049.69" y="70.74" width="15.82" height="7.57" rx="1.86" ry="1.86"/>
      <g>
        <g>
          <path d="M1044.8,68.85h0l-.49.26-.07-.29.61-.33h.32v2.79h-.36v-2.43h-.01Z"/>
          <path d="M1046.18,71.28v-.23l.3-.29c.71-.68,1.03-1.04,1.04-1.46,0-.28-.14-.54-.55-.54-.25,0-.46.13-.59.24l-.12-.27c.19-.16.47-.28.79-.28.6,0,.85.41.85.81,0,.51-.37.93-.96,1.5l-.22.21h1.25v.31h-1.79Z"/>
          <path d="M1049.14,71.28l-.94-2.89h.4l.45,1.42c.12.39.23.74.31,1.08h0c.08-.34.2-.7.33-1.08l.49-1.43h.4l-1.03,2.89h-.41Z"/>
        </g>
        <g>
          <path d="M1041.09,70.07v-.37h2.46v.37h-2.46Z"/>
          <path d="M1042.51,71.12h-.37v-2.46h.37v2.46Z"/>
        </g>
      </g>
      <g>
        <g>
          <path d="M1068.32,68.85h0l-.49.26-.07-.29.61-.33h.32v2.79h-.36v-2.43h-.01Z"/>
          <path d="M1069.69,71.28v-.23l.3-.29c.71-.68,1.03-1.04,1.04-1.46,0-.28-.14-.54-.55-.54-.25,0-.46.13-.59.24l-.12-.27c.19-.16.47-.28.79-.28.6,0,.85.41.85.81,0,.51-.37.93-.96,1.5l-.22.21h1.25v.31h-1.79Z"/>
          <path d="M1072.65,71.28l-.94-2.89h.4l.45,1.42c.12.39.23.74.31,1.08h0c.08-.34.2-.7.33-1.08l.49-1.43h.4l-1.03,2.89h-.41Z"/>
        </g>
        <g>
          <path d="M1064.61,70.07v-.37h2.46v.37h-2.46Z"/>
          <path d="M1066.02,71.12h-.37v-2.46h.37v2.46Z"/>
        </g>
      </g>
      <path d="M1089.16,75.01v-.5h3.32v.5h-3.32Z"/>
      <path d="M1111.14,74.96v-.5h3.32v.5h-3.32Z"/>
      <rect class="st43" x="1101.61" y="57.9" width=".58" height="2.04"/>
      <rect class="st43" x="1101.61" y="68.37" width=".58" height="2.04"/>
      <rect class="st43" x="1101.54" y="78.08" width=".58" height="2.04"/>
      <rect class="st40" x="1093.99" y="60.79" width="15.82" height="7.57" rx="1.86" ry="1.86"/>
      <rect class="st29" x="1093.99" y="70.74" width="15.82" height="7.57" rx="1.86" ry="1.86"/>
      <g>
        <g>
          <path d="M1089.11,68.85h0l-.49.26-.07-.29.61-.33h.32v2.79h-.36v-2.43h-.01Z"/>
          <path d="M1090.48,71.28v-.23l.3-.29c.71-.68,1.03-1.04,1.04-1.46,0-.28-.14-.54-.55-.54-.25,0-.46.13-.59.24l-.12-.27c.19-.16.47-.28.79-.28.6,0,.85.41.85.81,0,.51-.37.93-.96,1.5l-.22.21h1.25v.31h-1.79Z"/>
          <path d="M1093.44,71.28l-.94-2.89h.4l.45,1.42c.12.39.23.74.31,1.08h0c.08-.34.2-.7.33-1.08l.49-1.43h.4l-1.03,2.89h-.41Z"/>
        </g>
        <g>
          <path d="M1085.4,70.07v-.37h2.46v.37h-2.46Z"/>
          <path d="M1086.81,71.12h-.37v-2.46h.37v2.46Z"/>
        </g>
      </g>
      <g>
        <g>
          <path d="M1112.62,68.85h0l-.49.26-.07-.29.61-.33h.32v2.79h-.36v-2.43h-.01Z"/>
          <path d="M1113.99,71.28v-.23l.3-.29c.71-.68,1.03-1.04,1.04-1.46,0-.28-.14-.54-.55-.54-.25,0-.46.13-.59.24l-.12-.27c.19-.16.47-.28.79-.28.6,0,.85.41.85.81,0,.51-.37.93-.96,1.5l-.22.21h1.25v.31h-1.79Z"/>
          <path d="M1116.95,71.28l-.94-2.89h.4l.45,1.42c.12.39.23.74.31,1.08h0c.08-.34.2-.7.33-1.08l.49-1.43h.4l-1.03,2.89h-.41Z"/>
        </g>
        <g>
          <path d="M1108.91,70.07v-.37h2.46v.37h-2.46Z"/>
          <path d="M1110.33,71.12h-.37v-2.46h.37v2.46Z"/>
        </g>
      </g>
      <path d="M1133.9,75.01v-.5h3.32v.5h-3.32Z"/>
      <path d="M1155.88,74.96v-.5h3.32v.5h-3.32Z"/>
      <rect class="st43" x="1146.35" y="57.9" width=".58" height="2.04"/>
      <rect class="st43" x="1146.35" y="68.37" width=".58" height="2.04"/>
      <rect class="st43" x="1146.29" y="78.08" width=".58" height="2.04"/>
      <rect class="st24" x="1138.73" y="60.79" width="15.82" height="7.57" rx="1.86" ry="1.86"/>
      <rect class="st54" x="1138.73" y="70.74" width="15.82" height="7.57" rx="1.86" ry="1.86"/>
      <g>
        <g>
          <path d="M1133.85,68.85h0l-.49.26-.07-.29.61-.33h.32v2.79h-.36v-2.43h-.01Z"/>
          <path d="M1135.22,71.28v-.23l.3-.29c.71-.68,1.03-1.04,1.04-1.46,0-.28-.14-.54-.55-.54-.25,0-.46.13-.59.24l-.12-.27c.19-.16.47-.28.79-.28.6,0,.85.41.85.81,0,.51-.37.93-.96,1.5l-.22.21h1.25v.31h-1.79Z"/>
          <path d="M1138.18,71.28l-.94-2.89h.4l.45,1.42c.12.39.23.74.31,1.08h0c.08-.34.2-.7.33-1.08l.49-1.43h.4l-1.03,2.89h-.41Z"/>
        </g>
        <g>
          <path d="M1130.14,70.07v-.37h2.46v.37h-2.46Z"/>
          <path d="M1131.56,71.12h-.37v-2.46h.37v2.46Z"/>
        </g>
      </g>
      <g>
        <g>
          <path d="M1157.36,68.85h0l-.49.26-.07-.29.61-.33h.32v2.79h-.36v-2.43h-.01Z"/>
          <path d="M1158.74,71.28v-.23l.3-.29c.71-.68,1.03-1.04,1.04-1.46,0-.28-.14-.54-.55-.54-.25,0-.46.13-.59.24l-.12-.27c.19-.16.47-.28.79-.28.6,0,.85.41.85.81,0,.51-.37.93-.96,1.5l-.22.21h1.25v.31h-1.79Z"/>
          <path d="M1161.7,71.28l-.94-2.89h.4l.45,1.42c.12.39.23.74.31,1.08h0c.08-.34.2-.7.33-1.08l.49-1.43h.4l-1.03,2.89h-.41Z"/>
        </g>
        <g>
          <path d="M1153.65,70.07v-.37h2.46v.37h-2.46Z"/>
          <path d="M1155.07,71.12h-.37v-2.46h.37v2.46Z"/>
        </g>
      </g>
      <g>
        <rect class="st52" x="718.47" y="61.67" width="10.68" height="3.82" rx=".21" ry=".21"/>
        <g>
          <rect class="st1" x="725.02" y="61.42" width="7.5" height="4.57" rx="1.12" ry="1.12"/>
          <rect class="st1" x="715.09" y="61.42" width="7.5" height="4.57" rx="1.12" ry="1.12"/>
        </g>
        <rect class="st52" x="718.03" y="61.37" width="11.54" height="3.45" rx=".24" ry=".24"/>
        <path class="st53" d="M723.81,62.06h5.93c.95,0,.82-.21.15-1.58-.54-1.09-1.1-1.09-1.56-1.09h-9.04c-.46,0-1.02,0-1.56,1.09-.68,1.37-.81,1.58.15,1.58h5.93,0Z"/>
        <path class="st52" d="M723.81,62.21h5.93c.95,0,.82-.21.15-1.58-.54-1.09-1.1-1.09-1.56-1.09h-9.04c-.46,0-1.02,0-1.56,1.09-.68,1.37-.81,1.58.15,1.58h5.93,0Z"/>
        <polygon class="st43" points="713.12 59.99 714.48 59.99 714.48 60.67 713.8 60.67 713.8 66.82 733.93 66.82 733.93 62.19 731.75 59.99 734.5 59.99 734.5 67.42 713.12 67.42 713.12 59.99"/>
      </g>
      <g>
        <rect class="st52" x="762.93" y="61.67" width="10.68" height="3.82" rx=".21" ry=".21"/>
        <g>
          <rect class="st1" x="769.48" y="61.42" width="7.5" height="4.57" rx="1.12" ry="1.12"/>
          <rect class="st1" x="759.55" y="61.42" width="7.5" height="4.57" rx="1.12" ry="1.12"/>
        </g>
        <rect class="st52" x="762.49" y="61.37" width="11.54" height="3.45" rx=".24" ry=".24"/>
        <path class="st53" d="M768.27,62.06h5.93c.95,0,.82-.21.15-1.58-.54-1.09-1.1-1.09-1.56-1.09h-9.04c-.46,0-1.02,0-1.56,1.09-.68,1.37-.81,1.58.15,1.58h5.93,0Z"/>
        <path class="st52" d="M768.27,62.21h5.93c.95,0,.82-.21.15-1.58-.54-1.09-1.1-1.09-1.56-1.09h-9.04c-.46,0-1.02,0-1.56,1.09-.68,1.37-.81,1.58.15,1.58h5.93,0Z"/>
        <polygon class="st43" points="757.58 59.99 758.94 59.99 758.94 60.67 758.26 60.67 758.26 66.82 778.39 66.82 778.39 62.19 776.21 59.99 778.96 59.99 778.96 67.42 757.58 67.42 757.58 59.99"/>
      </g>
      <g>
        <rect class="st52" x="807.39" y="61.67" width="10.68" height="3.82" rx=".21" ry=".21"/>
        <g>
          <rect class="st1" x="813.94" y="61.42" width="7.5" height="4.57" rx="1.12" ry="1.12"/>
          <rect class="st1" x="804" y="61.42" width="7.5" height="4.57" rx="1.12" ry="1.12"/>
        </g>
        <rect class="st52" x="806.95" y="61.37" width="11.54" height="3.45" rx=".24" ry=".24"/>
        <path class="st53" d="M812.72,62.06h5.93c.95,0,.82-.21.15-1.58-.54-1.09-1.1-1.09-1.56-1.09h-9.04c-.46,0-1.02,0-1.56,1.09-.68,1.37-.81,1.58.15,1.58h5.93,0Z"/>
        <path class="st52" d="M812.72,62.21h5.93c.95,0,.82-.21.15-1.58-.54-1.09-1.1-1.09-1.56-1.09h-9.04c-.46,0-1.02,0-1.56,1.09-.68,1.37-.81,1.58.15,1.58h5.93,0Z"/>
        <polygon class="st43" points="802.04 59.99 803.4 59.99 803.4 60.67 802.72 60.67 802.72 66.82 822.85 66.82 822.85 62.19 820.67 59.99 823.42 59.99 823.42 67.42 802.04 67.42 802.04 59.99"/>
      </g>
      <g>
        <rect class="st52" x="851.85" y="61.67" width="10.68" height="3.82" rx=".21" ry=".21"/>
        <g>
          <rect class="st1" x="858.4" y="61.42" width="7.5" height="4.57" rx="1.12" ry="1.12"/>
          <rect class="st1" x="848.46" y="61.42" width="7.5" height="4.57" rx="1.12" ry="1.12"/>
        </g>
        <rect class="st52" x="851.41" y="61.37" width="11.54" height="3.45" rx=".24" ry=".24"/>
        <path class="st53" d="M857.18,62.06h5.93c.95,0,.82-.21.15-1.58-.54-1.09-1.1-1.09-1.56-1.09h-9.04c-.46,0-1.02,0-1.56,1.09-.68,1.37-.81,1.58.15,1.58h5.93,0Z"/>
        <path class="st52" d="M857.18,62.21h5.93c.95,0,.82-.21.15-1.58-.54-1.09-1.1-1.09-1.56-1.09h-9.04c-.46,0-1.02,0-1.56,1.09-.68,1.37-.81,1.58.15,1.58h5.93,0Z"/>
        <polygon class="st43" points="846.5 59.99 847.86 59.99 847.86 60.67 847.18 60.67 847.18 66.82 867.31 66.82 867.31 62.19 865.13 59.99 867.88 59.99 867.88 67.42 846.5 67.42 846.5 59.99"/>
      </g>
      <g>
        <rect class="st52" x="896.3" y="61.67" width="10.68" height="3.82" rx=".21" ry=".21"/>
        <g>
          <rect class="st1" x="902.86" y="61.42" width="7.5" height="4.57" rx="1.12" ry="1.12"/>
          <rect class="st1" x="892.92" y="61.42" width="7.5" height="4.57" rx="1.12" ry="1.12"/>
        </g>
        <rect class="st52" x="895.87" y="61.37" width="11.54" height="3.45" rx=".24" ry=".24"/>
        <path class="st53" d="M901.64,62.06h5.93c.95,0,.82-.21.15-1.58-.54-1.09-1.1-1.09-1.56-1.09h-9.04c-.46,0-1.02,0-1.56,1.09-.68,1.37-.81,1.58.15,1.58h5.93,0Z"/>
        <path class="st52" d="M901.64,62.21h5.93c.95,0,.82-.21.15-1.58-.54-1.09-1.1-1.09-1.56-1.09h-9.04c-.46,0-1.02,0-1.56,1.09-.68,1.37-.81,1.58.15,1.58h5.93,0Z"/>
        <polygon class="st43" points="890.96 59.99 892.32 59.99 892.32 60.67 891.64 60.67 891.64 66.82 911.77 66.82 911.77 62.19 909.59 59.99 912.34 59.99 912.34 67.42 890.96 67.42 890.96 59.99"/>
      </g>
      <g>
        <rect class="st52" x="940.76" y="61.67" width="10.68" height="3.82" rx=".21" ry=".21"/>
        <g>
          <rect class="st1" x="947.32" y="61.42" width="7.5" height="4.57" rx="1.12" ry="1.12"/>
          <rect class="st1" x="937.38" y="61.42" width="7.5" height="4.57" rx="1.12" ry="1.12"/>
        </g>
        <rect class="st52" x="940.33" y="61.37" width="11.54" height="3.45" rx=".24" ry=".24"/>
        <path class="st53" d="M946.1,62.06h5.93c.95,0,.82-.21.15-1.58-.54-1.09-1.1-1.09-1.56-1.09h-9.04c-.46,0-1.02,0-1.56,1.09-.68,1.37-.81,1.58.15,1.58h5.93,0Z"/>
        <path class="st52" d="M946.1,62.21h5.93c.95,0,.82-.21.15-1.58-.54-1.09-1.1-1.09-1.56-1.09h-9.04c-.46,0-1.02,0-1.56,1.09-.68,1.37-.81,1.58.15,1.58h5.93,0Z"/>
        <polygon class="st43" points="935.42 59.99 936.78 59.99 936.78 60.67 936.1 60.67 936.1 66.82 956.23 66.82 956.23 62.19 954.04 59.99 956.8 59.99 956.8 67.42 935.42 67.42 935.42 59.99"/>
      </g>
      <g>
        <rect class="st52" x="985.22" y="61.67" width="10.68" height="3.82" rx=".21" ry=".21"/>
        <g>
          <rect class="st1" x="991.78" y="61.42" width="7.5" height="4.57" rx="1.12" ry="1.12"/>
          <rect class="st1" x="981.84" y="61.42" width="7.5" height="4.57" rx="1.12" ry="1.12"/>
        </g>
        <rect class="st52" x="984.79" y="61.37" width="11.54" height="3.45" rx=".24" ry=".24"/>
        <path class="st53" d="M990.56,62.06h5.93c.95,0,.82-.21.15-1.58-.54-1.09-1.1-1.09-1.56-1.09h-9.04c-.46,0-1.02,0-1.56,1.09-.68,1.37-.81,1.58.15,1.58h5.93,0Z"/>
        <path class="st52" d="M990.56,62.21h5.93c.95,0,.82-.21.15-1.58-.54-1.09-1.1-1.09-1.56-1.09h-9.04c-.46,0-1.02,0-1.56,1.09-.68,1.37-.81,1.58.15,1.58h5.93,0Z"/>
        <polygon class="st43" points="979.88 59.99 981.24 59.99 981.24 60.67 980.56 60.67 980.56 66.82 1000.7 66.82 1000.7 62.19 998.51 59.99 1001.27 59.99 1001.27 67.42 979.88 67.42 979.88 59.99"/>
      </g>
      <g>
        <rect class="st52" x="1029.69" y="61.67" width="10.68" height="3.82" rx=".21" ry=".21"/>
        <g>
          <rect class="st1" x="1036.25" y="61.42" width="7.5" height="4.57" rx="1.12" ry="1.12"/>
          <rect class="st1" x="1026.31" y="61.42" width="7.5" height="4.57" rx="1.12" ry="1.12"/>
        </g>
        <rect class="st52" x="1029.26" y="61.37" width="11.54" height="3.45" rx=".24" ry=".24"/>
        <path class="st53" d="M1035.03,62.06h5.93c.95,0,.82-.21.15-1.58-.54-1.09-1.1-1.09-1.56-1.09h-9.04c-.46,0-1.02,0-1.56,1.09-.68,1.37-.81,1.58.15,1.58h5.93Z"/>
        <path class="st52" d="M1035.03,62.21h5.93c.95,0,.82-.21.15-1.58-.54-1.09-1.1-1.09-1.56-1.09h-9.04c-.46,0-1.02,0-1.56,1.09-.68,1.37-.81,1.58.15,1.58h5.93Z"/>
        <polygon class="st43" points="1024.35 59.99 1025.7 59.99 1025.7 60.67 1025.03 60.67 1025.03 66.82 1045.16 66.82 1045.16 62.19 1042.97 59.99 1045.73 59.99 1045.73 67.42 1024.35 67.42 1024.35 59.99"/>
      </g>
      <g>
        <rect class="st52" x="1074.15" y="61.67" width="10.68" height="3.82" rx=".21" ry=".21"/>
        <g>
          <rect class="st1" x="1080.71" y="61.42" width="7.5" height="4.57" rx="1.12" ry="1.12"/>
          <rect class="st1" x="1070.77" y="61.42" width="7.5" height="4.57" rx="1.12" ry="1.12"/>
        </g>
        <rect class="st52" x="1073.72" y="61.37" width="11.54" height="3.45" rx=".24" ry=".24"/>
        <path class="st53" d="M1079.49,62.06h5.93c.95,0,.82-.21.15-1.58-.54-1.09-1.1-1.09-1.56-1.09h-9.04c-.46,0-1.02,0-1.56,1.09-.68,1.37-.81,1.58.15,1.58h5.93Z"/>
        <path class="st52" d="M1079.49,62.21h5.93c.95,0,.82-.21.15-1.58-.54-1.09-1.1-1.09-1.56-1.09h-9.04c-.46,0-1.02,0-1.56,1.09-.68,1.37-.81,1.58.15,1.58h5.93Z"/>
        <polygon class="st43" points="1068.81 59.99 1070.16 59.99 1070.16 60.67 1069.49 60.67 1069.49 66.82 1089.62 66.82 1089.62 62.19 1087.43 59.99 1090.19 59.99 1090.19 67.42 1068.81 67.42 1068.81 59.99"/>
      </g>
      <g>
        <rect class="st52" x="1118.61" y="61.67" width="10.68" height="3.82" rx=".21" ry=".21"/>
        <g>
          <rect class="st1" x="1125.17" y="61.42" width="7.5" height="4.57" rx="1.12" ry="1.12"/>
          <rect class="st1" x="1115.23" y="61.42" width="7.5" height="4.57" rx="1.12" ry="1.12"/>
        </g>
        <rect class="st52" x="1118.18" y="61.37" width="11.54" height="3.45" rx=".24" ry=".24"/>
        <path class="st53" d="M1123.95,62.06h5.93c.95,0,.82-.21.15-1.58-.54-1.09-1.1-1.09-1.56-1.09h-9.04c-.46,0-1.02,0-1.56,1.09-.68,1.37-.81,1.58.15,1.58h5.93Z"/>
        <path class="st52" d="M1123.95,62.21h5.93c.95,0,.82-.21.15-1.58-.54-1.09-1.1-1.09-1.56-1.09h-9.04c-.46,0-1.02,0-1.56,1.09-.68,1.37-.81,1.58.15,1.58h5.93Z"/>
        <polygon class="st43" points="1113.27 59.99 1114.62 59.99 1114.62 60.67 1113.95 60.67 1113.95 66.82 1134.08 66.82 1134.08 62.19 1131.89 59.99 1134.64 59.99 1134.64 67.42 1113.27 67.42 1113.27 59.99"/>
      </g>
      <g>
        <rect class="st52" x="1163.07" y="61.67" width="10.68" height="3.82" rx=".21" ry=".21"/>
        <g>
          <rect class="st1" x="1169.63" y="61.42" width="7.5" height="4.57" rx="1.12" ry="1.12"/>
          <rect class="st1" x="1159.69" y="61.42" width="7.5" height="4.57" rx="1.12" ry="1.12"/>
        </g>
        <rect class="st52" x="1162.64" y="61.37" width="11.54" height="3.45" rx=".24" ry=".24"/>
        <path class="st53" d="M1168.41,62.06h5.93c.95,0,.82-.21.15-1.58-.54-1.09-1.1-1.09-1.56-1.09h-9.04c-.46,0-1.02,0-1.56,1.09-.68,1.37-.81,1.58.15,1.58h5.93Z"/>
        <path class="st52" d="M1168.41,62.21h5.93c.95,0,.82-.21.15-1.58-.54-1.09-1.1-1.09-1.56-1.09h-9.04c-.46,0-1.02,0-1.56,1.09-.68,1.37-.81,1.58.15,1.58h5.93Z"/>
        <polygon class="st43" points="1157.73 59.99 1159.08 59.99 1159.08 60.67 1158.4 60.67 1158.4 66.82 1178.54 66.82 1178.54 62.19 1176.35 59.99 1179.1 59.99 1179.1 67.42 1157.73 67.42 1157.73 59.99"/>
      </g>
      <g>
        <g>
          <path class="st0" d="M675.25,72.03c1.6,0,2.89,1.3,2.89,2.89s-1.29,2.89-2.89,2.89-2.89-1.29-2.89-2.89,1.29-2.89,2.89-2.89Z"/>
          <path class="st0" d="M683.45,72.03c1.59,0,2.89,1.3,2.89,2.89s-1.29,2.89-2.89,2.89-2.9-1.29-2.9-2.89,1.29-2.89,2.9-2.89Z"/>
          <rect class="st55" x="676.25" y="72.2" width="6.64" height="5.43"/>
        </g>
        <g>
          <path class="st25" d="M681.44,73.55h.33c-.06.94-.39,1.75-.99,2.43h1.23v.3h-1.61v-.26c.21-.2.38-.43.53-.7s.26-.55.35-.85c.09-.3.14-.61.16-.92Z"/>
          <path class="st25" d="M679.52,75.99l.15-.79c-.12.1-.27.15-.45.15-.15,0-.28-.04-.4-.11-.12-.08-.21-.18-.28-.32s-.1-.3-.1-.47c0-.18.03-.34.1-.48s.17-.25.29-.33.27-.12.45-.12c.46,0,.73.25.82.76l-.32.03c-.07-.35-.24-.52-.5-.52-.1,0-.18.03-.26.08s-.14.13-.18.24c-.04.1-.07.23-.07.37,0,.13.02.25.07.34s.11.16.19.21.16.07.26.07c.18,0,.33-.08.46-.25l.29.04-.28,1.42h-1.2v-.29h.96v-.03h0Z"/>
          <path class="st25" d="M677.31,73.55v2.2c.07-.08.15-.15.24-.21.1-.06.21-.12.34-.18v.31c-.31.15-.54.37-.71.66h-.19v-2.77h.32Z"/>
        </g>
      </g>
      <g>
        <g>
          <path class="st0" d="M719.71,72.03c1.6,0,2.89,1.3,2.89,2.89s-1.29,2.89-2.89,2.89-2.89-1.29-2.89-2.89,1.29-2.89,2.89-2.89Z"/>
          <path class="st0" d="M727.91,72.03c1.59,0,2.89,1.3,2.89,2.89s-1.29,2.89-2.89,2.89-2.9-1.29-2.9-2.89,1.29-2.89,2.9-2.89Z"/>
          <rect class="st33" x="720.71" y="72.2" width="6.64" height="5.43"/>
        </g>
        <g>
          <path class="st25" d="M725.9,73.55h.33c-.06.94-.39,1.75-.99,2.43h1.23v.3h-1.61v-.26c.21-.2.38-.43.53-.7s.26-.55.35-.85c.09-.3.14-.61.16-.92Z"/>
          <path class="st25" d="M723.98,75.99l.15-.79c-.12.1-.27.15-.45.15-.15,0-.28-.04-.4-.11-.12-.08-.21-.18-.28-.32s-.1-.3-.1-.47.03-.34.1-.48.17-.25.29-.33.27-.12.45-.12c.46,0,.73.25.82.76l-.32.03c-.07-.35-.24-.52-.5-.52-.1,0-.18.03-.26.08s-.14.13-.18.24c-.04.1-.07.23-.07.37,0,.13.02.25.07.34s.11.16.19.21.16.07.26.07c.18,0,.33-.08.46-.25l.29.04-.28,1.42h-1.2v-.29h.96v-.03h0Z"/>
          <path class="st25" d="M721.77,73.55v2.2c.07-.08.15-.15.24-.21.1-.06.21-.12.34-.18v.31c-.31.15-.54.37-.71.66h-.19v-2.77h.32Z"/>
        </g>
      </g>
      <g>
        <g>
          <path class="st0" d="M764.17,72.03c1.6,0,2.89,1.3,2.89,2.89s-1.29,2.89-2.89,2.89-2.89-1.29-2.89-2.89,1.29-2.89,2.89-2.89Z"/>
          <path class="st0" d="M772.37,72.03c1.59,0,2.89,1.3,2.89,2.89s-1.29,2.89-2.89,2.89-2.9-1.29-2.9-2.89,1.29-2.89,2.9-2.89Z"/>
          <rect class="st9" x="765.17" y="72.2" width="6.64" height="5.43"/>
        </g>
        <g>
          <path class="st25" d="M770.36,73.55h.33c-.06.94-.39,1.75-.99,2.43h1.23v.3h-1.61v-.26c.21-.2.38-.43.53-.7s.26-.55.35-.85c.09-.3.14-.61.16-.92Z"/>
          <path class="st25" d="M768.44,75.99l.15-.79c-.12.1-.27.15-.45.15-.15,0-.28-.04-.4-.11-.12-.08-.21-.18-.28-.32s-.1-.3-.1-.47c0-.18.03-.34.1-.48s.17-.25.29-.33.27-.12.45-.12c.46,0,.73.25.82.76l-.32.03c-.07-.35-.24-.52-.5-.52-.1,0-.18.03-.26.08s-.14.13-.18.24c-.04.1-.07.23-.07.37,0,.13.02.25.07.34s.11.16.19.21.16.07.26.07c.18,0,.33-.08.46-.25l.29.04-.28,1.42h-1.2v-.29h.96v-.03h0Z"/>
          <path class="st25" d="M766.23,73.55v2.2c.07-.08.15-.15.24-.21.1-.06.21-.12.34-.18v.31c-.31.15-.54.37-.71.66h-.19v-2.77h.32Z"/>
        </g>
      </g>
      <g>
        <g>
          <path class="st0" d="M808.63,72.03c1.6,0,2.89,1.3,2.89,2.89s-1.29,2.89-2.89,2.89-2.89-1.29-2.89-2.89,1.29-2.89,2.89-2.89Z"/>
          <path class="st0" d="M816.83,72.03c1.59,0,2.89,1.3,2.89,2.89s-1.29,2.89-2.89,2.89-2.9-1.29-2.9-2.89,1.29-2.89,2.9-2.89Z"/>
          <rect class="st19" x="809.63" y="72.2" width="6.64" height="5.43"/>
        </g>
        <g>
          <path class="st25" d="M814.82,73.55h.33c-.06.94-.39,1.75-.99,2.43h1.23v.3h-1.61v-.26c.21-.2.38-.43.53-.7s.26-.55.35-.85c.09-.3.14-.61.16-.92Z"/>
          <path class="st25" d="M812.9,75.99l.15-.79c-.12.1-.27.15-.45.15-.15,0-.28-.04-.4-.11-.12-.08-.21-.18-.28-.32s-.1-.3-.1-.47c0-.18.03-.34.1-.48s.17-.25.29-.33.27-.12.45-.12c.46,0,.73.25.82.76l-.32.03c-.07-.35-.24-.52-.5-.52-.1,0-.18.03-.26.08s-.14.13-.18.24c-.04.1-.07.23-.07.37,0,.13.02.25.07.34s.11.16.19.21.16.07.26.07c.18,0,.33-.08.46-.25l.29.04-.28,1.42h-1.2v-.29h.96v-.03h0Z"/>
          <path class="st25" d="M810.68,73.55v2.2c.07-.08.15-.15.24-.21.1-.06.21-.12.34-.18v.31c-.31.15-.54.37-.71.66h-.19v-2.77h.32Z"/>
        </g>
      </g>
      <g>
        <g>
          <path class="st0" d="M853.09,72.03c1.6,0,2.89,1.3,2.89,2.89s-1.29,2.89-2.89,2.89-2.89-1.29-2.89-2.89,1.29-2.89,2.89-2.89Z"/>
          <path class="st0" d="M861.29,72.03c1.59,0,2.89,1.3,2.89,2.89s-1.29,2.89-2.89,2.89-2.9-1.29-2.9-2.89,1.29-2.89,2.9-2.89Z"/>
          <rect class="st41" x="854.09" y="72.2" width="6.64" height="5.43"/>
        </g>
        <g>
          <path class="st25" d="M859.28,73.55h.33c-.06.94-.39,1.75-.99,2.43h1.23v.3h-1.61v-.26c.21-.2.38-.43.53-.7s.26-.55.35-.85c.09-.3.14-.61.16-.92Z"/>
          <path class="st25" d="M857.36,75.99l.15-.79c-.12.1-.27.15-.45.15-.15,0-.28-.04-.4-.11-.12-.08-.21-.18-.28-.32s-.1-.3-.1-.47c0-.18.03-.34.1-.48s.17-.25.29-.33.27-.12.45-.12c.46,0,.73.25.82.76l-.32.03c-.07-.35-.24-.52-.5-.52-.1,0-.18.03-.26.08s-.14.13-.18.24c-.04.1-.07.23-.07.37,0,.13.02.25.07.34s.11.16.19.21.16.07.26.07c.18,0,.33-.08.46-.25l.29.04-.28,1.42h-1.2v-.29h.96v-.03h0Z"/>
          <path class="st25" d="M855.14,73.55v2.2c.07-.08.15-.15.24-.21.1-.06.21-.12.34-.18v.31c-.31.15-.54.37-.71.66h-.19v-2.77h.32Z"/>
        </g>
      </g>
      <g>
        <g>
          <path class="st0" d="M897.55,72.03c1.6,0,2.89,1.3,2.89,2.89s-1.29,2.89-2.89,2.89-2.89-1.29-2.89-2.89,1.29-2.89,2.89-2.89Z"/>
          <path class="st0" d="M905.75,72.03c1.59,0,2.89,1.3,2.89,2.89s-1.29,2.89-2.89,2.89-2.9-1.29-2.9-2.89,1.29-2.89,2.9-2.89Z"/>
          <rect class="st51" x="898.55" y="72.2" width="6.64" height="5.43"/>
        </g>
        <g>
          <path class="st25" d="M903.74,73.55h.33c-.06.94-.39,1.75-.99,2.43h1.23v.3h-1.61v-.26c.21-.2.38-.43.53-.7s.26-.55.35-.85c.09-.3.14-.61.16-.92Z"/>
          <path class="st25" d="M901.81,75.99l.15-.79c-.12.1-.27.15-.45.15-.15,0-.28-.04-.4-.11-.12-.08-.21-.18-.28-.32s-.1-.3-.1-.47c0-.18.03-.34.1-.48s.17-.25.29-.33.27-.12.45-.12c.46,0,.73.25.82.76l-.32.03c-.07-.35-.24-.52-.5-.52-.1,0-.18.03-.26.08s-.14.13-.18.24c-.04.1-.07.23-.07.37,0,.13.02.25.07.34s.11.16.19.21.16.07.26.07c.18,0,.33-.08.46-.25l.29.04-.28,1.42h-1.2v-.29h.96v-.03h0Z"/>
          <path class="st25" d="M899.6,73.55v2.2c.07-.08.15-.15.24-.21.1-.06.21-.12.34-.18v.31c-.31.15-.54.37-.71.66h-.19v-2.77h.32Z"/>
        </g>
      </g>
      <g>
        <g>
          <path class="st0" d="M942.01,72.03c1.6,0,2.89,1.3,2.89,2.89s-1.29,2.89-2.89,2.89-2.89-1.29-2.89-2.89,1.29-2.89,2.89-2.89Z"/>
          <path class="st0" d="M950.21,72.03c1.59,0,2.89,1.3,2.89,2.89s-1.29,2.89-2.89,2.89-2.9-1.29-2.9-2.89,1.29-2.89,2.9-2.89Z"/>
          <rect class="st45" x="943.01" y="72.2" width="6.64" height="5.43"/>
        </g>
        <g>
          <path class="st25" d="M948.2,73.55h.33c-.06.94-.39,1.75-.99,2.43h1.23v.3h-1.61v-.26c.21-.2.38-.43.53-.7s.26-.55.35-.85c.09-.3.14-.61.16-.92Z"/>
          <path class="st25" d="M946.27,75.99l.15-.79c-.12.1-.27.15-.45.15-.15,0-.28-.04-.4-.11-.12-.08-.21-.18-.28-.32s-.1-.3-.1-.47.03-.34.1-.48.17-.25.29-.33.27-.12.45-.12c.46,0,.73.25.82.76l-.32.03c-.07-.35-.24-.52-.5-.52-.1,0-.18.03-.26.08s-.14.13-.18.24c-.04.1-.07.23-.07.37,0,.13.02.25.07.34s.11.16.19.21.16.07.26.07c.18,0,.33-.08.46-.25l.29.04-.28,1.42h-1.2v-.29h.96v-.03h0Z"/>
          <path class="st25" d="M944.06,73.55v2.2c.07-.08.15-.15.24-.21.1-.06.21-.12.34-.18v.31c-.31.15-.54.37-.71.66h-.19v-2.77h.32Z"/>
        </g>
      </g>
      <g>
        <g>
          <path class="st0" d="M986.47,72.03c1.6,0,2.89,1.3,2.89,2.89s-1.29,2.89-2.89,2.89-2.89-1.29-2.89-2.89,1.29-2.89,2.89-2.89Z"/>
          <path class="st0" d="M994.67,72.03c1.59,0,2.89,1.3,2.89,2.89s-1.29,2.89-2.89,2.89-2.9-1.29-2.9-2.89,1.29-2.89,2.9-2.89Z"/>
          <rect class="st39" x="987.47" y="72.2" width="6.64" height="5.43"/>
        </g>
        <g>
          <path class="st25" d="M992.66,73.55h.33c-.06.94-.39,1.75-.99,2.43h1.23v.3h-1.61v-.26c.21-.2.38-.43.53-.7s.26-.55.35-.85c.09-.3.14-.61.16-.92Z"/>
          <path class="st25" d="M990.73,75.99l.15-.79c-.12.1-.27.15-.45.15-.15,0-.28-.04-.4-.11-.12-.08-.21-.18-.28-.32s-.1-.3-.1-.47c0-.18.03-.34.1-.48s.17-.25.29-.33.27-.12.45-.12c.46,0,.73.25.82.76l-.32.03c-.07-.35-.24-.52-.5-.52-.1,0-.18.03-.26.08s-.14.13-.18.24c-.04.1-.07.23-.07.37,0,.13.02.25.07.34s.11.16.19.21.16.07.26.07c.18,0,.33-.08.46-.25l.29.04-.28,1.42h-1.2v-.29h.96v-.03h0Z"/>
          <path class="st25" d="M988.52,73.55v2.2c.07-.08.15-.15.24-.21.1-.06.21-.12.34-.18v.31c-.31.15-.54.37-.71.66h-.19v-2.77h.32Z"/>
        </g>
      </g>
      <g>
        <g>
          <path class="st0" d="M1030.93,72.03c1.6,0,2.89,1.3,2.89,2.89s-1.29,2.89-2.89,2.89-2.89-1.29-2.89-2.89,1.29-2.89,2.89-2.89Z"/>
          <path class="st0" d="M1039.14,72.03c1.59,0,2.89,1.3,2.89,2.89s-1.29,2.89-2.89,2.89-2.9-1.29-2.9-2.89,1.29-2.89,2.9-2.89Z"/>
          <rect class="st44" x="1031.94" y="72.2" width="6.64" height="5.43"/>
        </g>
        <g>
          <path class="st25" d="M1037.13,73.55h.33c-.06.94-.39,1.75-.99,2.43h1.23v.3h-1.61v-.26c.21-.2.38-.43.53-.7s.26-.55.35-.85c.09-.3.14-.61.16-.92Z"/>
          <path class="st25" d="M1035.2,75.99l.15-.79c-.12.1-.27.15-.45.15-.15,0-.28-.04-.4-.11-.12-.08-.21-.18-.28-.32s-.1-.3-.1-.47c0-.18.03-.34.1-.48s.17-.25.29-.33.27-.12.45-.12c.46,0,.73.25.82.76l-.32.03c-.07-.35-.24-.52-.5-.52-.1,0-.18.03-.26.08s-.14.13-.18.24c-.04.1-.07.23-.07.37,0,.13.02.25.07.34.05.09.11.16.19.21s.16.07.26.07c.18,0,.33-.08.46-.25l.29.04-.28,1.42h-1.2v-.29h.96v-.03h0Z"/>
          <path class="st25" d="M1032.99,73.55v2.2c.07-.08.15-.15.24-.21.1-.06.21-.12.34-.18v.31c-.31.15-.54.37-.71.66h-.19v-2.77h.32Z"/>
        </g>
      </g>
      <g>
        <g>
          <path class="st0" d="M1075.39,72.03c1.6,0,2.89,1.3,2.89,2.89s-1.29,2.89-2.89,2.89-2.89-1.29-2.89-2.89,1.29-2.89,2.89-2.89Z"/>
          <path class="st0" d="M1083.6,72.03c1.59,0,2.89,1.3,2.89,2.89s-1.29,2.89-2.89,2.89-2.9-1.29-2.9-2.89,1.29-2.89,2.9-2.89Z"/>
          <rect class="st31" x="1076.4" y="72.2" width="6.64" height="5.43"/>
        </g>
        <g>
          <path class="st25" d="M1081.59,73.55h.33c-.06.94-.39,1.75-.99,2.43h1.23v.3h-1.61v-.26c.21-.2.38-.43.53-.7s.26-.55.35-.85c.09-.3.14-.61.16-.92Z"/>
          <path class="st25" d="M1079.66,75.99l.15-.79c-.12.1-.27.15-.45.15-.15,0-.28-.04-.4-.11-.12-.08-.21-.18-.28-.32s-.1-.3-.1-.47c0-.18.03-.34.1-.48s.17-.25.29-.33.27-.12.45-.12c.46,0,.73.25.82.76l-.32.03c-.07-.35-.24-.52-.5-.52-.1,0-.18.03-.26.08s-.14.13-.18.24c-.04.1-.07.23-.07.37,0,.13.02.25.07.34.05.09.11.16.19.21s.16.07.26.07c.18,0,.33-.08.46-.25l.29.04-.28,1.42h-1.2v-.29h.96v-.03h0Z"/>
          <path class="st25" d="M1077.45,73.55v2.2c.07-.08.15-.15.24-.21.1-.06.21-.12.34-.18v.31c-.31.15-.54.37-.71.66h-.19v-2.77h.32Z"/>
        </g>
      </g>
      <g>
        <g>
          <path class="st0" d="M1119.85,72.03c1.6,0,2.89,1.3,2.89,2.89s-1.29,2.89-2.89,2.89-2.89-1.29-2.89-2.89,1.29-2.89,2.89-2.89Z"/>
          <path class="st0" d="M1128.06,72.03c1.59,0,2.89,1.3,2.89,2.89s-1.29,2.89-2.89,2.89-2.9-1.29-2.9-2.89,1.29-2.89,2.9-2.89Z"/>
          <rect class="st47" x="1120.86" y="72.2" width="6.64" height="5.43"/>
        </g>
        <g>
          <path class="st25" d="M1126.05,73.55h.33c-.06.94-.39,1.75-.99,2.43h1.23v.3h-1.61v-.26c.21-.2.38-.43.53-.7s.26-.55.35-.85c.09-.3.14-.61.16-.92Z"/>
          <path class="st25" d="M1124.12,75.99l.15-.79c-.12.1-.27.15-.45.15-.15,0-.28-.04-.4-.11-.12-.08-.21-.18-.28-.32s-.1-.3-.1-.47c0-.18.03-.34.1-.48s.17-.25.29-.33.27-.12.45-.12c.46,0,.73.25.82.76l-.32.03c-.07-.35-.24-.52-.5-.52-.1,0-.18.03-.26.08s-.14.13-.18.24c-.04.1-.07.23-.07.37,0,.13.02.25.07.34.05.09.11.16.19.21s.16.07.26.07c.18,0,.33-.08.46-.25l.29.04-.28,1.42h-1.2v-.29h.96v-.03h0Z"/>
          <path class="st25" d="M1121.91,73.55v2.2c.07-.08.15-.15.24-.21.1-.06.21-.12.34-.18v.31c-.31.15-.54.37-.71.66h-.19v-2.77h.32Z"/>
        </g>
      </g>
      <g>
        <g>
          <path class="st0" d="M1164.31,72.03c1.6,0,2.89,1.3,2.89,2.89s-1.29,2.89-2.89,2.89-2.89-1.29-2.89-2.89,1.29-2.89,2.89-2.89Z"/>
          <path class="st0" d="M1172.52,72.03c1.59,0,2.89,1.3,2.89,2.89s-1.29,2.89-2.89,2.89-2.9-1.29-2.9-2.89,1.29-2.89,2.9-2.89Z"/>
          <rect class="st11" x="1165.32" y="72.2" width="6.64" height="5.43"/>
        </g>
        <g>
          <path class="st25" d="M1170.51,73.55h.33c-.06.94-.39,1.75-.99,2.43h1.23v.3h-1.61v-.26c.21-.2.38-.43.53-.7s.26-.55.35-.85c.09-.3.14-.61.16-.92Z"/>
          <path class="st25" d="M1168.58,75.99l.15-.79c-.12.1-.27.15-.45.15-.15,0-.28-.04-.4-.11-.12-.08-.21-.18-.28-.32s-.1-.3-.1-.47.03-.34.1-.48.17-.25.29-.33.27-.12.45-.12c.46,0,.73.25.82.76l-.32.03c-.07-.35-.24-.52-.5-.52-.1,0-.18.03-.26.08s-.14.13-.18.24c-.04.1-.07.23-.07.37,0,.13.02.25.07.34.05.09.11.16.19.21s.16.07.26.07c.18,0,.33-.08.46-.25l.29.04-.28,1.42h-1.2v-.29h.96v-.03h0Z"/>
          <path class="st25" d="M1166.37,73.55v2.2c.07-.08.15-.15.24-.21.1-.06.21-.12.34-.18v.31c-.31.15-.54.37-.71.66h-.19v-2.77h.32Z"/>
        </g>
      </g>
    </g>
  </g>
  <g class="st14">
    <path class="st48" d="M420.86,73.93v15.5h-2.83v-15.5h2.83Z"/>
    <path class="st48" d="M424.1,74.14c1.01-.18,2.41-.32,4.32-.32,2.07,0,3.59.44,4.58,1.26.92.76,1.52,1.98,1.52,3.43s-.46,2.69-1.33,3.52c-1.13,1.13-2.9,1.66-4.9,1.66-.53,0-1.01-.02-1.38-.09v5.84h-2.81v-15.29ZM426.91,81.36c.34.09.8.12,1.38.12,2.12,0,3.4-1.04,3.4-2.85s-1.2-2.64-3.15-2.64c-.78,0-1.33.07-1.63.14v5.24Z"/>
    <path class="st48" d="M445.81,76.83h-5.75l-.44,2.99c.34-.05.64-.07,1.08-.07,1.31,0,2.62.3,3.63.97,1.13.71,1.95,1.98,1.95,3.79,0,2.85-2.37,5.17-6.05,5.17-1.72,0-3.17-.44-3.96-.87l.57-2.14c.64.35,1.93.78,3.29.78,1.66,0,3.24-.94,3.24-2.74s-1.26-2.83-4.25-2.83c-.83,0-1.45.05-2.05.14l.99-7.54h7.73v2.34Z"/>
    <path class="st48" d="M454.87,89.43v-3.79h-6.76v-1.84l6.09-9.31h3.33v9.01h1.93v2.14h-1.93v3.79h-2.67ZM454.87,83.5v-4.07c0-.85.02-1.72.09-2.6h-.09c-.46.94-.85,1.7-1.31,2.53l-2.74,4.09-.02.05h4.07Z"/>
  </g>
</svg>