<?xml version="1.0" encoding="UTF-8"?>
<svg id="Vrstva_1" xmlns="http://www.w3.org/2000/svg" version="1.1" xmlns:xlink="http://www.w3.org/1999/xlink" viewBox="0 0 1200 140">
  <!-- Generator: Adobe Illustrator 29.8.1, SVG Export Plug-In . SVG Version: 2.1.1 Build 2)  -->
  <defs>
    <style>
      .st0 {
        fill: #7a1a1b;
      }

      .st1 {
        fill: url(#Nepojmenovaný_přechod_16);
      }

      .st1, .st2, .st3, .st4, .st5, .st6, .st7, .st8, .st9, .st10, .st11, .st12, .st13, .st14, .st15, .st16, .st17, .st18, .st19, .st20, .st21, .st22, .st23, .st24 {
        isolation: isolate;
      }

      .st1, .st2, .st10, .st12, .st16, .st17, .st18, .st20, .st22, .st23 {
        opacity: .53;
      }

      .st2 {
        fill: url(#Nepojmenovaný_přechod_5);
      }

      .st3 {
        fill: url(#Nepojmenovaný_přechod_9);
        opacity: .5;
      }

      .st4 {
        fill: url(#Nepojmenovaný_přechod_15);
      }

      .st4, .st5, .st6, .st7, .st9, .st11, .st13, .st14, .st19, .st24 {
        opacity: .49;
      }

      .st5 {
        fill: url(#Nepojmenovaný_přechod_8);
      }

      .st25 {
        stroke-width: .59px;
      }

      .st25, .st26 {
        stroke: #1d1d1b;
      }

      .st25, .st26, .st27 {
        fill: none;
      }

      .st25, .st26, .st28, .st29 {
        stroke-miterlimit: 10;
      }

      .st6 {
        fill: url(#Nepojmenovaný_přechod_13);
      }

      .st7 {
        fill: url(#Nepojmenovaný_přechod_4);
      }

      .st8, .st21 {
        font-family: ArialMT, Arial;
        font-size: 18px;
      }

      .st9 {
        fill: url(#Nepojmenovaný_přechod_6);
      }

      .st30 {
        fill: #f7f6f6;
      }

      .st26 {
        stroke-width: .57px;
      }

      .st10 {
        fill: url(#Nepojmenovaný_přechod_3);
      }

      .st11 {
        fill: url(#Nepojmenovaný_přechod_11);
      }

      .st12 {
        fill: url(#Nepojmenovaný_přechod_12);
      }

      .st31 {
        fill: #575756;
      }

      .st32 {
        clip-path: url(#clippath-1);
      }

      .st13 {
        fill: url(#Nepojmenovaný_přechod_2);
      }

      .st14 {
        fill: url(#Nepojmenovaný_přechod_17);
      }

      .st28 {
        fill: #fffbdc;
      }

      .st28, .st29 {
        stroke: #eaeaea;
        stroke-width: .7px;
      }

      .st33 {
        fill: #878787;
      }

      .st16 {
        fill: url(#Nepojmenovaný_přechod_7);
      }

      .st17 {
        fill: url(#Nepojmenovaný_přechod_14);
      }

      .st29 {
        fill: #eaeaea;
      }

      .st34 {
        fill: #2c8902;
      }

      .st35 {
        fill: #1d1d1b;
      }

      .st18 {
        fill: url(#Nepojmenovaný_přechod_18);
      }

      .st19 {
        fill: url(#Nepojmenovaný_přechod_19);
      }

      .st20 {
        fill: url(#Nepojmenovaný_přechod_20);
      }

      .st21 {
        fill: #006eab;
      }

      .st36 {
        clip-path: url(#clippath);
      }

      .st22 {
        fill: url(#Nepojmenovaný_přechod_10);
      }

      .st37 {
        fill: #c6c6c5;
      }

      .st23 {
        fill: url(#Nepojmenovaný_přechod);
      }

      .st24 {
        fill: url(#Nepojmenovaný_přechod_21);
      }
    </style>
    <clipPath id="clippath">
      <rect class="st27" x="761.78" y="7.66" width="15.08" height="19.46"/>
    </clipPath>
    <clipPath id="clippath-1">
      <rect class="st27" x="656.05" y="49.56" width="511.28" height="41.11"/>
    </clipPath>
    <linearGradient id="Nepojmenovaný_přechod" data-name="Nepojmenovaný přechod" x1="642.12" y1="-617.4" x2="669.98" y2="-617.4" gradientTransform="translate(0 -562.11) scale(1 -1)" gradientUnits="userSpaceOnUse">
      <stop offset="0" stop-color="#e7b68c" stop-opacity="0"/>
      <stop offset=".13" stop-color="#e6b489" stop-opacity=".3"/>
      <stop offset=".26" stop-color="#e6b286" stop-opacity=".6"/>
      <stop offset=".37" stop-color="#e6b183" stop-opacity=".81"/>
      <stop offset=".46" stop-color="#e6b082" stop-opacity=".95"/>
      <stop offset=".51" stop-color="#e6b082"/>
      <stop offset=".55" stop-color="#e5af81" stop-opacity=".96"/>
      <stop offset=".62" stop-color="#e5af80" stop-opacity=".86"/>
      <stop offset=".72" stop-color="#e5ae7e" stop-opacity=".69"/>
      <stop offset=".82" stop-color="#e5ac7c" stop-opacity=".45"/>
      <stop offset=".94" stop-color="#e5aa79" stop-opacity=".15"/>
      <stop offset="1" stop-color="#e5aa78" stop-opacity="0"/>
    </linearGradient>
    <linearGradient id="Nepojmenovaný_přechod_2" data-name="Nepojmenovaný přechod 2" x1="642.12" y1="-618.9" x2="669.98" y2="-618.9" gradientTransform="translate(0 -562.11) scale(1 -1)" gradientUnits="userSpaceOnUse">
      <stop offset="0" stop-color="#e7b68c" stop-opacity="0"/>
      <stop offset=".13" stop-color="#e6b489" stop-opacity=".3"/>
      <stop offset=".26" stop-color="#e6b286" stop-opacity=".6"/>
      <stop offset=".37" stop-color="#e6b183" stop-opacity=".81"/>
      <stop offset=".46" stop-color="#e6b082" stop-opacity=".95"/>
      <stop offset=".51" stop-color="#e6b082"/>
      <stop offset=".55" stop-color="#e5af81" stop-opacity=".96"/>
      <stop offset=".62" stop-color="#e5af80" stop-opacity=".86"/>
      <stop offset=".72" stop-color="#e5ae7e" stop-opacity=".69"/>
      <stop offset=".82" stop-color="#e5ac7c" stop-opacity=".45"/>
      <stop offset=".94" stop-color="#e5aa79" stop-opacity=".15"/>
      <stop offset="1" stop-color="#e5aa78" stop-opacity="0"/>
    </linearGradient>
    <linearGradient id="Nepojmenovaný_přechod_3" data-name="Nepojmenovaný přechod 3" x1="642.12" y1="2374.23" x2="669.98" y2="2374.23" gradientTransform="translate(0 -2289.39)" gradientUnits="userSpaceOnUse">
      <stop offset="0" stop-color="#e7b68c" stop-opacity="0"/>
      <stop offset=".13" stop-color="#e6b489" stop-opacity=".3"/>
      <stop offset=".26" stop-color="#e6b286" stop-opacity=".6"/>
      <stop offset=".37" stop-color="#e6b183" stop-opacity=".81"/>
      <stop offset=".46" stop-color="#e6b082" stop-opacity=".95"/>
      <stop offset=".51" stop-color="#e6b082"/>
      <stop offset=".55" stop-color="#e5af81" stop-opacity=".96"/>
      <stop offset=".62" stop-color="#e5af80" stop-opacity=".86"/>
      <stop offset=".72" stop-color="#e5ae7e" stop-opacity=".69"/>
      <stop offset=".82" stop-color="#e5ac7c" stop-opacity=".45"/>
      <stop offset=".94" stop-color="#e5aa79" stop-opacity=".15"/>
      <stop offset="1" stop-color="#e5aa78" stop-opacity="0"/>
    </linearGradient>
    <linearGradient id="Nepojmenovaný_přechod_4" data-name="Nepojmenovaný přechod 4" x1="642.12" y1="2372.73" x2="669.98" y2="2372.73" gradientTransform="translate(0 -2289.39)" gradientUnits="userSpaceOnUse">
      <stop offset="0" stop-color="#e7b68c" stop-opacity="0"/>
      <stop offset=".13" stop-color="#e6b489" stop-opacity=".3"/>
      <stop offset=".26" stop-color="#e6b286" stop-opacity=".6"/>
      <stop offset=".37" stop-color="#e6b183" stop-opacity=".81"/>
      <stop offset=".46" stop-color="#e6b082" stop-opacity=".95"/>
      <stop offset=".51" stop-color="#e6b082"/>
      <stop offset=".55" stop-color="#e5af81" stop-opacity=".96"/>
      <stop offset=".62" stop-color="#e5af80" stop-opacity=".86"/>
      <stop offset=".72" stop-color="#e5ae7e" stop-opacity=".69"/>
      <stop offset=".82" stop-color="#e5ac7c" stop-opacity=".45"/>
      <stop offset=".94" stop-color="#e5aa79" stop-opacity=".15"/>
      <stop offset="1" stop-color="#e5aa78" stop-opacity="0"/>
    </linearGradient>
    <linearGradient id="Nepojmenovaný_přechod_5" data-name="Nepojmenovaný přechod 5" x1="755.45" y1="-617.38" x2="783.31" y2="-617.38" gradientTransform="translate(0 -562.11) scale(1 -1)" gradientUnits="userSpaceOnUse">
      <stop offset="0" stop-color="#e7b68c" stop-opacity="0"/>
      <stop offset=".13" stop-color="#e6b489" stop-opacity=".3"/>
      <stop offset=".26" stop-color="#e6b286" stop-opacity=".6"/>
      <stop offset=".37" stop-color="#e6b183" stop-opacity=".81"/>
      <stop offset=".46" stop-color="#e6b082" stop-opacity=".95"/>
      <stop offset=".51" stop-color="#e6b082"/>
      <stop offset=".55" stop-color="#e5af81" stop-opacity=".96"/>
      <stop offset=".62" stop-color="#e5af80" stop-opacity=".86"/>
      <stop offset=".72" stop-color="#e5ae7e" stop-opacity=".69"/>
      <stop offset=".82" stop-color="#e5ac7c" stop-opacity=".45"/>
      <stop offset=".94" stop-color="#e5aa79" stop-opacity=".15"/>
      <stop offset="1" stop-color="#e5aa78" stop-opacity="0"/>
    </linearGradient>
    <linearGradient id="Nepojmenovaný_přechod_6" data-name="Nepojmenovaný přechod 6" x1="755.45" y1="-618.9" x2="783.31" y2="-618.9" gradientTransform="translate(0 -562.11) scale(1 -1)" gradientUnits="userSpaceOnUse">
      <stop offset="0" stop-color="#e7b68c" stop-opacity="0"/>
      <stop offset=".13" stop-color="#e6b489" stop-opacity=".3"/>
      <stop offset=".26" stop-color="#e6b286" stop-opacity=".6"/>
      <stop offset=".37" stop-color="#e6b183" stop-opacity=".81"/>
      <stop offset=".46" stop-color="#e6b082" stop-opacity=".95"/>
      <stop offset=".51" stop-color="#e6b082"/>
      <stop offset=".55" stop-color="#e5af81" stop-opacity=".96"/>
      <stop offset=".62" stop-color="#e5af80" stop-opacity=".86"/>
      <stop offset=".72" stop-color="#e5ae7e" stop-opacity=".69"/>
      <stop offset=".82" stop-color="#e5ac7c" stop-opacity=".45"/>
      <stop offset=".94" stop-color="#e5aa79" stop-opacity=".15"/>
      <stop offset="1" stop-color="#e5aa78" stop-opacity="0"/>
    </linearGradient>
    <linearGradient id="Nepojmenovaný_přechod_7" data-name="Nepojmenovaný přechod 7" x1="755.45" y1="2374.24" x2="783.31" y2="2374.24" gradientTransform="translate(0 -2289.39)" gradientUnits="userSpaceOnUse">
      <stop offset="0" stop-color="#e7b68c" stop-opacity="0"/>
      <stop offset=".13" stop-color="#e6b489" stop-opacity=".3"/>
      <stop offset=".26" stop-color="#e6b286" stop-opacity=".6"/>
      <stop offset=".37" stop-color="#e6b183" stop-opacity=".81"/>
      <stop offset=".46" stop-color="#e6b082" stop-opacity=".95"/>
      <stop offset=".51" stop-color="#e6b082"/>
      <stop offset=".55" stop-color="#e5af81" stop-opacity=".96"/>
      <stop offset=".62" stop-color="#e5af80" stop-opacity=".86"/>
      <stop offset=".72" stop-color="#e5ae7e" stop-opacity=".69"/>
      <stop offset=".82" stop-color="#e5ac7c" stop-opacity=".45"/>
      <stop offset=".94" stop-color="#e5aa79" stop-opacity=".15"/>
      <stop offset="1" stop-color="#e5aa78" stop-opacity="0"/>
    </linearGradient>
    <linearGradient id="Nepojmenovaný_přechod_8" data-name="Nepojmenovaný přechod 8" x1="755.45" y1="2372.71" x2="783.31" y2="2372.71" gradientTransform="translate(0 -2289.39)" gradientUnits="userSpaceOnUse">
      <stop offset="0" stop-color="#e7b68c" stop-opacity="0"/>
      <stop offset=".13" stop-color="#e6b489" stop-opacity=".3"/>
      <stop offset=".26" stop-color="#e6b286" stop-opacity=".6"/>
      <stop offset=".37" stop-color="#e6b183" stop-opacity=".81"/>
      <stop offset=".46" stop-color="#e6b082" stop-opacity=".95"/>
      <stop offset=".51" stop-color="#e6b082"/>
      <stop offset=".55" stop-color="#e5af81" stop-opacity=".96"/>
      <stop offset=".62" stop-color="#e5af80" stop-opacity=".86"/>
      <stop offset=".72" stop-color="#e5ae7e" stop-opacity=".69"/>
      <stop offset=".82" stop-color="#e5ac7c" stop-opacity=".45"/>
      <stop offset=".94" stop-color="#e5aa79" stop-opacity=".15"/>
      <stop offset="1" stop-color="#e5aa78" stop-opacity="0"/>
    </linearGradient>
    <linearGradient id="Nepojmenovaný_přechod_9" data-name="Nepojmenovaný přechod 9" x1="911.38" y1="-649.28" x2="911.38" y2="-615.72" gradientTransform="translate(0 -562.11) scale(1 -1)" gradientUnits="userSpaceOnUse">
      <stop offset="0" stop-color="#ddd"/>
      <stop offset=".14" stop-color="#bebebe" stop-opacity=".99"/>
      <stop offset=".28" stop-color="#d5d6d5" stop-opacity=".9"/>
      <stop offset=".32" stop-color="#dfdbd3" stop-opacity=".93"/>
      <stop offset=".38" stop-color="#eee2d2" stop-opacity=".97"/>
      <stop offset=".44" stop-color="#f7e6d1" stop-opacity=".99"/>
      <stop offset=".5" stop-color="#fae8d1"/>
      <stop offset=".59" stop-color="#f6e6d1"/>
      <stop offset=".67" stop-color="#ece1d2"/>
      <stop offset=".72" stop-color="#dfdbd4"/>
      <stop offset=".81" stop-color="#cccbc7"/>
      <stop offset=".87" stop-color="#bebebe"/>
      <stop offset="1" stop-color="#ddd"/>
    </linearGradient>
    <linearGradient id="Nepojmenovaný_přechod_10" data-name="Nepojmenovaný přechod 10" x1="868.78" y1="-617.38" x2="896.64" y2="-617.38" gradientTransform="translate(0 -562.11) scale(1 -1)" gradientUnits="userSpaceOnUse">
      <stop offset="0" stop-color="#e7b68c" stop-opacity="0"/>
      <stop offset=".13" stop-color="#e6b489" stop-opacity=".3"/>
      <stop offset=".26" stop-color="#e6b286" stop-opacity=".6"/>
      <stop offset=".37" stop-color="#e6b183" stop-opacity=".81"/>
      <stop offset=".46" stop-color="#e6b082" stop-opacity=".95"/>
      <stop offset=".51" stop-color="#e6b082"/>
      <stop offset=".55" stop-color="#e5af81" stop-opacity=".96"/>
      <stop offset=".62" stop-color="#e5af80" stop-opacity=".86"/>
      <stop offset=".72" stop-color="#e5ae7e" stop-opacity=".69"/>
      <stop offset=".82" stop-color="#e5ac7c" stop-opacity=".45"/>
      <stop offset=".94" stop-color="#e5aa79" stop-opacity=".15"/>
      <stop offset="1" stop-color="#e5aa78" stop-opacity="0"/>
    </linearGradient>
    <linearGradient id="Nepojmenovaný_přechod_11" data-name="Nepojmenovaný přechod 11" x1="868.78" y1="-618.9" x2="896.64" y2="-618.9" gradientTransform="translate(0 -562.11) scale(1 -1)" gradientUnits="userSpaceOnUse">
      <stop offset="0" stop-color="#e7b68c" stop-opacity="0"/>
      <stop offset=".13" stop-color="#e6b489" stop-opacity=".3"/>
      <stop offset=".26" stop-color="#e6b286" stop-opacity=".6"/>
      <stop offset=".37" stop-color="#e6b183" stop-opacity=".81"/>
      <stop offset=".46" stop-color="#e6b082" stop-opacity=".95"/>
      <stop offset=".51" stop-color="#e6b082"/>
      <stop offset=".55" stop-color="#e5af81" stop-opacity=".96"/>
      <stop offset=".62" stop-color="#e5af80" stop-opacity=".86"/>
      <stop offset=".72" stop-color="#e5ae7e" stop-opacity=".69"/>
      <stop offset=".82" stop-color="#e5ac7c" stop-opacity=".45"/>
      <stop offset=".94" stop-color="#e5aa79" stop-opacity=".15"/>
      <stop offset="1" stop-color="#e5aa78" stop-opacity="0"/>
    </linearGradient>
    <linearGradient id="Nepojmenovaný_přechod_12" data-name="Nepojmenovaný přechod 12" x1="868.78" y1="2374.24" x2="896.64" y2="2374.24" gradientTransform="translate(0 -2289.39)" gradientUnits="userSpaceOnUse">
      <stop offset="0" stop-color="#e7b68c" stop-opacity="0"/>
      <stop offset=".13" stop-color="#e6b489" stop-opacity=".3"/>
      <stop offset=".26" stop-color="#e6b286" stop-opacity=".6"/>
      <stop offset=".37" stop-color="#e6b183" stop-opacity=".81"/>
      <stop offset=".46" stop-color="#e6b082" stop-opacity=".95"/>
      <stop offset=".51" stop-color="#e6b082"/>
      <stop offset=".55" stop-color="#e5af81" stop-opacity=".96"/>
      <stop offset=".62" stop-color="#e5af80" stop-opacity=".86"/>
      <stop offset=".72" stop-color="#e5ae7e" stop-opacity=".69"/>
      <stop offset=".82" stop-color="#e5ac7c" stop-opacity=".45"/>
      <stop offset=".94" stop-color="#e5aa79" stop-opacity=".15"/>
      <stop offset="1" stop-color="#e5aa78" stop-opacity="0"/>
    </linearGradient>
    <linearGradient id="Nepojmenovaný_přechod_13" data-name="Nepojmenovaný přechod 13" x1="868.78" y1="2372.71" x2="896.64" y2="2372.71" gradientTransform="translate(0 -2289.39)" gradientUnits="userSpaceOnUse">
      <stop offset="0" stop-color="#e7b68c" stop-opacity="0"/>
      <stop offset=".13" stop-color="#e6b489" stop-opacity=".3"/>
      <stop offset=".26" stop-color="#e6b286" stop-opacity=".6"/>
      <stop offset=".37" stop-color="#e6b183" stop-opacity=".81"/>
      <stop offset=".46" stop-color="#e6b082" stop-opacity=".95"/>
      <stop offset=".51" stop-color="#e6b082"/>
      <stop offset=".55" stop-color="#e5af81" stop-opacity=".96"/>
      <stop offset=".62" stop-color="#e5af80" stop-opacity=".86"/>
      <stop offset=".72" stop-color="#e5ae7e" stop-opacity=".69"/>
      <stop offset=".82" stop-color="#e5ac7c" stop-opacity=".45"/>
      <stop offset=".94" stop-color="#e5aa79" stop-opacity=".15"/>
      <stop offset="1" stop-color="#e5aa78" stop-opacity="0"/>
    </linearGradient>
    <linearGradient id="Nepojmenovaný_přechod_14" data-name="Nepojmenovaný přechod 14" x1="982.11" y1="-617.38" x2="1009.97" y2="-617.38" gradientTransform="translate(0 -562.11) scale(1 -1)" gradientUnits="userSpaceOnUse">
      <stop offset="0" stop-color="#e7b68c" stop-opacity="0"/>
      <stop offset=".13" stop-color="#e6b489" stop-opacity=".3"/>
      <stop offset=".26" stop-color="#e6b286" stop-opacity=".6"/>
      <stop offset=".37" stop-color="#e6b183" stop-opacity=".81"/>
      <stop offset=".46" stop-color="#e6b082" stop-opacity=".95"/>
      <stop offset=".51" stop-color="#e6b082"/>
      <stop offset=".55" stop-color="#e5af81" stop-opacity=".96"/>
      <stop offset=".62" stop-color="#e5af80" stop-opacity=".86"/>
      <stop offset=".72" stop-color="#e5ae7e" stop-opacity=".69"/>
      <stop offset=".82" stop-color="#e5ac7c" stop-opacity=".45"/>
      <stop offset=".94" stop-color="#e5aa79" stop-opacity=".15"/>
      <stop offset="1" stop-color="#e5aa78" stop-opacity="0"/>
    </linearGradient>
    <linearGradient id="Nepojmenovaný_přechod_15" data-name="Nepojmenovaný přechod 15" x1="982.11" y1="-618.9" x2="1009.97" y2="-618.9" gradientTransform="translate(0 -562.11) scale(1 -1)" gradientUnits="userSpaceOnUse">
      <stop offset="0" stop-color="#e7b68c" stop-opacity="0"/>
      <stop offset=".13" stop-color="#e6b489" stop-opacity=".3"/>
      <stop offset=".26" stop-color="#e6b286" stop-opacity=".6"/>
      <stop offset=".37" stop-color="#e6b183" stop-opacity=".81"/>
      <stop offset=".46" stop-color="#e6b082" stop-opacity=".95"/>
      <stop offset=".51" stop-color="#e6b082"/>
      <stop offset=".55" stop-color="#e5af81" stop-opacity=".96"/>
      <stop offset=".62" stop-color="#e5af80" stop-opacity=".86"/>
      <stop offset=".72" stop-color="#e5ae7e" stop-opacity=".69"/>
      <stop offset=".82" stop-color="#e5ac7c" stop-opacity=".45"/>
      <stop offset=".94" stop-color="#e5aa79" stop-opacity=".15"/>
      <stop offset="1" stop-color="#e5aa78" stop-opacity="0"/>
    </linearGradient>
    <linearGradient id="Nepojmenovaný_přechod_16" data-name="Nepojmenovaný přechod 16" x1="982.11" y1="2374.24" x2="1009.97" y2="2374.24" gradientTransform="translate(0 -2289.39)" gradientUnits="userSpaceOnUse">
      <stop offset="0" stop-color="#e7b68c" stop-opacity="0"/>
      <stop offset=".13" stop-color="#e6b489" stop-opacity=".3"/>
      <stop offset=".26" stop-color="#e6b286" stop-opacity=".6"/>
      <stop offset=".37" stop-color="#e6b183" stop-opacity=".81"/>
      <stop offset=".46" stop-color="#e6b082" stop-opacity=".95"/>
      <stop offset=".51" stop-color="#e6b082"/>
      <stop offset=".55" stop-color="#e5af81" stop-opacity=".96"/>
      <stop offset=".62" stop-color="#e5af80" stop-opacity=".86"/>
      <stop offset=".72" stop-color="#e5ae7e" stop-opacity=".69"/>
      <stop offset=".82" stop-color="#e5ac7c" stop-opacity=".45"/>
      <stop offset=".94" stop-color="#e5aa79" stop-opacity=".15"/>
      <stop offset="1" stop-color="#e5aa78" stop-opacity="0"/>
    </linearGradient>
    <linearGradient id="Nepojmenovaný_přechod_17" data-name="Nepojmenovaný přechod 17" x1="982.11" y1="2372.71" x2="1009.97" y2="2372.71" gradientTransform="translate(0 -2289.39)" gradientUnits="userSpaceOnUse">
      <stop offset="0" stop-color="#e7b68c" stop-opacity="0"/>
      <stop offset=".13" stop-color="#e6b489" stop-opacity=".3"/>
      <stop offset=".26" stop-color="#e6b286" stop-opacity=".6"/>
      <stop offset=".37" stop-color="#e6b183" stop-opacity=".81"/>
      <stop offset=".46" stop-color="#e6b082" stop-opacity=".95"/>
      <stop offset=".51" stop-color="#e6b082"/>
      <stop offset=".55" stop-color="#e5af81" stop-opacity=".96"/>
      <stop offset=".62" stop-color="#e5af80" stop-opacity=".86"/>
      <stop offset=".72" stop-color="#e5ae7e" stop-opacity=".69"/>
      <stop offset=".82" stop-color="#e5ac7c" stop-opacity=".45"/>
      <stop offset=".94" stop-color="#e5aa79" stop-opacity=".15"/>
      <stop offset="1" stop-color="#e5aa78" stop-opacity="0"/>
    </linearGradient>
    <linearGradient id="Nepojmenovaný_přechod_18" data-name="Nepojmenovaný přechod 18" x1="1095.44" y1="-617.38" x2="1123.3" y2="-617.38" gradientTransform="translate(0 -562.11) scale(1 -1)" gradientUnits="userSpaceOnUse">
      <stop offset="0" stop-color="#e7b68c" stop-opacity="0"/>
      <stop offset=".13" stop-color="#e6b489" stop-opacity=".3"/>
      <stop offset=".26" stop-color="#e6b286" stop-opacity=".6"/>
      <stop offset=".37" stop-color="#e6b183" stop-opacity=".81"/>
      <stop offset=".46" stop-color="#e6b082" stop-opacity=".95"/>
      <stop offset=".51" stop-color="#e6b082"/>
      <stop offset=".55" stop-color="#e5af81" stop-opacity=".96"/>
      <stop offset=".62" stop-color="#e5af80" stop-opacity=".86"/>
      <stop offset=".72" stop-color="#e5ae7e" stop-opacity=".69"/>
      <stop offset=".82" stop-color="#e5ac7c" stop-opacity=".45"/>
      <stop offset=".94" stop-color="#e5aa79" stop-opacity=".15"/>
      <stop offset="1" stop-color="#e5aa78" stop-opacity="0"/>
    </linearGradient>
    <linearGradient id="Nepojmenovaný_přechod_19" data-name="Nepojmenovaný přechod 19" x1="1095.44" y1="-618.9" x2="1123.3" y2="-618.9" gradientTransform="translate(0 -562.11) scale(1 -1)" gradientUnits="userSpaceOnUse">
      <stop offset="0" stop-color="#e7b68c" stop-opacity="0"/>
      <stop offset=".13" stop-color="#e6b489" stop-opacity=".3"/>
      <stop offset=".26" stop-color="#e6b286" stop-opacity=".6"/>
      <stop offset=".37" stop-color="#e6b183" stop-opacity=".81"/>
      <stop offset=".46" stop-color="#e6b082" stop-opacity=".95"/>
      <stop offset=".51" stop-color="#e6b082"/>
      <stop offset=".55" stop-color="#e5af81" stop-opacity=".96"/>
      <stop offset=".62" stop-color="#e5af80" stop-opacity=".86"/>
      <stop offset=".72" stop-color="#e5ae7e" stop-opacity=".69"/>
      <stop offset=".82" stop-color="#e5ac7c" stop-opacity=".45"/>
      <stop offset=".94" stop-color="#e5aa79" stop-opacity=".15"/>
      <stop offset="1" stop-color="#e5aa78" stop-opacity="0"/>
    </linearGradient>
    <linearGradient id="Nepojmenovaný_přechod_20" data-name="Nepojmenovaný přechod 20" x1="1095.44" y1="2374.24" x2="1123.3" y2="2374.24" gradientTransform="translate(0 -2289.39)" gradientUnits="userSpaceOnUse">
      <stop offset="0" stop-color="#e7b68c" stop-opacity="0"/>
      <stop offset=".13" stop-color="#e6b489" stop-opacity=".3"/>
      <stop offset=".26" stop-color="#e6b286" stop-opacity=".6"/>
      <stop offset=".37" stop-color="#e6b183" stop-opacity=".81"/>
      <stop offset=".46" stop-color="#e6b082" stop-opacity=".95"/>
      <stop offset=".51" stop-color="#e6b082"/>
      <stop offset=".55" stop-color="#e5af81" stop-opacity=".96"/>
      <stop offset=".62" stop-color="#e5af80" stop-opacity=".86"/>
      <stop offset=".72" stop-color="#e5ae7e" stop-opacity=".69"/>
      <stop offset=".82" stop-color="#e5ac7c" stop-opacity=".45"/>
      <stop offset=".94" stop-color="#e5aa79" stop-opacity=".15"/>
      <stop offset="1" stop-color="#e5aa78" stop-opacity="0"/>
    </linearGradient>
    <linearGradient id="Nepojmenovaný_přechod_21" data-name="Nepojmenovaný přechod 21" x1="1095.44" y1="2372.71" x2="1123.3" y2="2372.71" gradientTransform="translate(0 -2289.39)" gradientUnits="userSpaceOnUse">
      <stop offset="0" stop-color="#e7b68c" stop-opacity="0"/>
      <stop offset=".13" stop-color="#e6b489" stop-opacity=".3"/>
      <stop offset=".26" stop-color="#e6b286" stop-opacity=".6"/>
      <stop offset=".37" stop-color="#e6b183" stop-opacity=".81"/>
      <stop offset=".46" stop-color="#e6b082" stop-opacity=".95"/>
      <stop offset=".51" stop-color="#e6b082"/>
      <stop offset=".55" stop-color="#e5af81" stop-opacity=".96"/>
      <stop offset=".62" stop-color="#e5af80" stop-opacity=".86"/>
      <stop offset=".72" stop-color="#e5ae7e" stop-opacity=".69"/>
      <stop offset=".82" stop-color="#e5ac7c" stop-opacity=".45"/>
      <stop offset=".94" stop-color="#e5aa79" stop-opacity=".15"/>
      <stop offset="1" stop-color="#e5aa78" stop-opacity="0"/>
    </linearGradient>
  </defs>
  <g>
    <line class="st25" x1="637.44" y1="81.95" x2="637.44" y2="58.22"/>
    <polygon class="st35" points="639.17 80.78 637.44 87.21 635.72 80.78 639.17 80.78"/>
    <polygon class="st35" points="639.17 59.39 637.44 52.96 635.72 59.39 639.17 59.39"/>
  </g>
  <line class="st26" x1="633.8" y1="87.21" x2="652.86" y2="87.21"/>
  <line class="st26" x1="633.8" y1="52.96" x2="652.86" y2="52.96"/>
  <path class="st35" d="M627.54,74.48c-1.41,0-2.41-.84-3-2.22l-.05.02c-.59,1.24-1.55,1.78-2.52,1.78-1.78,0-2.98-1.5-2.98-3.47,0-2.17,1.36-3.26,2.76-3.26.95,0,1.97.47,2.62,1.84h.05c.55-1.4,1.53-2.26,2.9-2.26,1.95,0,3.26,1.67,3.26,3.81-.01,2.34-1.41,3.76-3.04,3.76h0ZM621.87,72.62c1.12,0,1.72-.85,2.07-2.14-.33-.97-1.02-1.71-2.03-1.71-.9,0-1.83.53-1.83,1.9,0,1.25.82,1.95,1.79,1.95h0ZM627.47,68.44c-1.36,0-2.02.95-2.45,2.47.38,1.31,1.24,2.02,2.31,2.02,1.14.05,2.14-.81,2.14-2.24s-.85-2.25-2-2.25Z"/>
  <line class="st26" x1="656.05" y1="26.91" x2="656.05" y2="45.96"/>
  <line class="st25" x1="662.49" y1="30.55" x2="762.89" y2="30.55"/>
  <polygon class="st35" points="662.49 32.27 656.05 30.55 662.49 28.82 662.49 32.27"/>
  <polygon class="st35" points="762.89 32.47 769.32 30.75 762.89 29.02 762.89 32.47"/>
  <line class="st26" x1="769.32" y1="27.11" x2="769.32" y2="46.16"/>
  <rect class="st29" x="122.55" y="29.2" width="81.28" height="81.28"/>
  <g>
    <path class="st35" d="M137.15,76.4h1.71v11.79h5.65v1.43h-7.36v-13.22Z"/>
    <path class="st35" d="M153.26,83.42h-5.14v4.77h5.73v1.43h-7.44v-13.22h7.14v1.43h-5.44v4.18h5.14v1.41h.01Z"/>
    <path class="st35" d="M156.06,76.57c1.04-.16,2.28-.28,3.63-.28,2.45,0,4.2.57,5.36,1.65,1.18,1.08,1.86,2.61,1.86,4.75s-.67,3.92-1.9,5.14c-1.24,1.24-3.28,1.9-5.85,1.9-1.22,0-2.24-.06-3.1-.16v-13ZM157.77,88.27c.43.08,1.06.1,1.73.1,3.65,0,5.63-2.04,5.63-5.61.02-3.12-1.75-5.1-5.36-5.1-.88,0-1.55.08-2,.18v10.43Z"/>
    <path class="st35" d="M167.62,90.41l5.47-14.23h1.33l-5.49,14.23h-1.31Z"/>
    <path class="st35" d="M175.8,82.7c0-.98-.02-1.79-.08-2.57h1.51l.08,1.53h.06c.53-.9,1.41-1.75,2.98-1.75,1.29,0,2.28.78,2.69,1.9h.04c.29-.53.67-.94,1.06-1.24.57-.43,1.2-.67,2.1-.67,1.26,0,3.12.82,3.12,4.12v5.59h-1.69v-5.38c0-1.82-.67-2.92-2.06-2.92-.98,0-1.75.73-2.04,1.57-.08.24-.14.55-.14.86v5.87h-1.69v-5.69c0-1.51-.67-2.61-1.98-2.61-1.08,0-1.86.86-2.14,1.73-.1.26-.14.55-.14.84v5.73h-1.69v-6.91h.01Z"/>
  </g>
  <rect class="st29" x="214.46" y="29.2" width="81.28" height="81.28"/>
  <path class="st35" d="M238.17,89.62l-3.36-13.23h1.81l1.57,6.69c.39,1.65.75,3.3.98,4.57h.04c.22-1.32.63-2.89,1.08-4.59l1.77-6.67h1.79l1.61,6.71c.37,1.57.73,3.14.92,4.53h.04c.27-1.45.65-2.92,1.06-4.57l1.75-6.67h1.75l-3.75,13.23h-1.79l-1.67-6.89c-.41-1.69-.69-2.98-.86-4.32h-.04c-.24,1.31-.53,2.61-1.02,4.32l-1.88,6.89h-1.8,0Z"/>
  <path class="st35" d="M251.1,90.41l5.47-14.23h1.33l-5.49,14.23h-1.31,0Z"/>
  <path class="st35" d="M259.28,82.7c0-.98-.02-1.79-.08-2.57h1.51l.08,1.53h.06c.53-.9,1.41-1.75,2.98-1.75,1.29,0,2.28.78,2.69,1.9h.04c.29-.53.67-.94,1.06-1.24.57-.43,1.2-.67,2.1-.67,1.26,0,3.12.82,3.12,4.12v5.59h-1.69v-5.38c0-1.82-.67-2.92-2.06-2.92-.98,0-1.75.73-2.04,1.57-.08.24-.14.55-.14.86v5.87h-1.69v-5.69c0-1.51-.67-2.61-1.98-2.61-1.08,0-1.86.86-2.14,1.73-.1.26-.14.55-.14.84v5.73h-1.69v-6.91h.01Z"/>
  <rect class="st29" x="306.37" y="29.2" width="81.28" height="81.28"/>
  <path class="st35" d="M326.8,75.69h1.73v13.93h-1.73v-13.93Z"/>
  <path class="st35" d="M331.43,82.7c0-.98-.02-1.79-.08-2.57h1.51l.08,1.53h.06c.53-.9,1.41-1.75,2.98-1.75,1.29,0,2.28.78,2.69,1.9h.04c.29-.53.67-.94,1.06-1.24.57-.43,1.2-.67,2.1-.67,1.26,0,3.12.82,3.12,4.12v5.59h-1.69v-5.38c0-1.82-.67-2.92-2.06-2.92-.98,0-1.75.73-2.04,1.57-.08.24-.14.55-.14.86v5.87h-1.69v-5.69c0-1.51-.67-2.61-1.98-2.61-1.08,0-1.86.86-2.14,1.73-.1.26-.14.55-.14.84v5.73h-1.69v-6.91h.01Z"/>
  <path class="st35" d="M346.34,90.41l5.47-14.23h1.33l-5.49,14.23h-1.31Z"/>
  <path class="st35" d="M354.53,82.7c0-.98-.02-1.79-.08-2.57h1.51l.08,1.53h.06c.53-.9,1.41-1.75,2.98-1.75,1.29,0,2.28.78,2.69,1.9h.04c.29-.53.67-.94,1.06-1.24.57-.43,1.2-.67,2.1-.67,1.26,0,3.12.82,3.12,4.12v5.59h-1.69v-5.38c0-1.82-.67-2.92-2.06-2.92-.98,0-1.75.73-2.04,1.57-.08.24-.14.55-.14.86v5.87h-1.69v-5.69c0-1.51-.67-2.61-1.98-2.61-1.08,0-1.86.86-2.14,1.73-.1.26-.14.55-.14.84v5.73h-1.69v-6.91h.01Z"/>
  <rect class="st29" x="490.18" y="29.2" width="81.28" height="81.28"/>
  <g>
    <path class="st35" d="M512.56,43.29c0-.98-.02-1.79-.08-2.57h1.51l.08,1.53h.06c.53-.9,1.41-1.75,2.98-1.75,1.29,0,2.28.78,2.69,1.9h.04c.29-.53.67-.94,1.06-1.24.57-.43,1.2-.67,2.1-.67,1.26,0,3.12.82,3.12,4.12v5.59h-1.69v-5.38c0-1.82-.67-2.92-2.06-2.92-.98,0-1.75.73-2.04,1.57-.08.24-.14.55-.14.86v5.87h-1.69v-5.69c0-1.51-.67-2.61-1.98-2.61-1.08,0-1.86.86-2.14,1.73-.1.26-.14.55-.14.84v5.73h-1.69v-6.91h.01Z"/>
    <path class="st35" d="M534.18,50.21l-.14-1.2h-.06c-.53.75-1.55,1.41-2.9,1.41-1.92,0-2.9-1.35-2.9-2.73,0-2.3,2.04-3.55,5.71-3.53v-.2c0-.78-.22-2.2-2.16-2.2-.88,0-1.81.27-2.47.71l-.39-1.14c.78-.51,1.92-.84,3.12-.84,2.9,0,3.61,1.98,3.61,3.89v3.55c0,.82.04,1.63.16,2.28h-1.58,0ZM533.93,45.37c-1.88-.04-4.02.29-4.02,2.14,0,1.12.75,1.65,1.63,1.65,1.24,0,2.02-.78,2.3-1.59.06-.18.1-.37.1-.55v-1.65h0Z"/>
    <path class="st35" d="M539.19,40.72l1.35,2.04c.35.53.65,1.02.96,1.55h.06c.31-.57.63-1.06.94-1.57l1.33-2.02h1.86l-3.24,4.59,3.34,4.91h-1.96l-1.39-2.14c-.37-.55-.69-1.08-1.02-1.65h-.04c-.31.57-.65,1.08-1,1.65l-1.37,2.14h-1.9l3.37-4.85-3.22-4.65h1.93Z"/>
    <path class="st35" d="M547.05,49.19c0-.73.49-1.24,1.18-1.24s1.16.51,1.16,1.24-.45,1.24-1.18,1.24c-.69,0-1.16-.53-1.16-1.24Z"/>
  </g>
  <g class="st15">
    <g class="st15">
      <g class="st15">
        <g class="st15">
          <g class="st15">
            <text class="st21" transform="translate(811.82 121.81)"><tspan x="0" y="0">{{strip_stock}}</tspan></text>
          </g>
        </g>
      </g>
    </g>
  </g>
  <g class="st15">
    <g class="st15">
      <g class="st15">
        <g class="st15">
          <g class="st15">
            <text class="st21" transform="translate(1041.63 121.34)"><tspan x="0" y="0">{{strip_price}}</tspan></text>
          </g>
        </g>
      </g>
    </g>
  </g>
  <g class="st36">
    <path class="st31" d="M767.2,13.93c-.08-.11-.15-.24-.22-.37-.36-.72-.77-1.08-1.26-1.08h-1.14c-.75-.01-1.46-.33-1.96-.88-.55-.54-.86-1.28-.85-2.05,0-1.08.87-1.95,1.95-1.96h0c1.03,0,1.88.74,2.59,2.24l.94,1.96c.35.74.72,1.18,1.13,1.32l.47.7-.87,1.33-.78-1.21h0ZM770.1,13.28c.35,0,.75-.34,1.19-.99l2.01-3.02c.73-1.08,1.38-1.63,1.98-1.63.43,0,.85.19,1.13.52.31.38.47.86.44,1.34-.03,1.16-.5,2.26-1.32,3.08-.63.86-1.62,1.37-2.69,1.39h-.84c-.53-.02-1.01.31-1.17.82l-.08.21c-.12.25-.26.5-.41.73l-7.11,11.41c-.36-.82-.55-1.7-.55-2.59-.02-.17-.02-.35,0-.52l7.18-10.74h.2M775.7,23.97c.06.31.08.62.08.94-.01.77-.19,1.53-.52,2.23l-5.72-9.31.94-1.46,5.22,7.6h0ZM763.77,8.36c-.35-.02-.7.12-.94.38-.24.23-.37.54-.38.86.08,1.21,1.04,2.16,2.25,2.25.75,0,1.13-.24,1.13-.75-.02-.36-.13-.71-.31-1.02l-.23-.47c-.46-.83-.94-1.25-1.56-1.25M772.19,12.66c0,.39.23.59.73.59.86-.07,1.64-.51,2.14-1.2.64-.66,1.01-1.53,1.04-2.45.04-.33-.04-.66-.21-.94-.13-.2-.37-.32-.61-.31-.33,0-.72.35-1.17,1.01l-1.45,2.2c-.24.32-.4.7-.47,1.1M769.32,15.24c-.32,0-.48.15-.48.46-.03.23.13.43.36.46.04.01.08.01.12,0,.32,0,.49-.16.49-.46s-.17-.46-.49-.46"/>
  </g>
  <g class="st15">
    <g class="st15">
      <g class="st15">
        <g class="st15">
          <g class="st15">
            <text class="st8" transform="translate(507.33 97.91)"><tspan x="0" y="0">{{length}}</tspan></text>
          </g>
        </g>
      </g>
    </g>
  </g>
  <g class="st15">
    <path d="M523.17,62.59h-5.75l-.44,2.99c.34-.05.64-.07,1.08-.07,1.31,0,2.62.3,3.63.97,1.13.71,1.95,1.98,1.95,3.79,0,2.85-2.37,5.17-6.05,5.17-1.72,0-3.17-.44-3.96-.87l.57-2.14c.64.35,1.93.78,3.29.78,1.66,0,3.24-.94,3.24-2.74s-1.26-2.83-4.25-2.83c-.83,0-1.45.05-2.05.14l.99-7.54h7.73v2.34h.02Z"/>
  </g>
  <g class="st15">
    <path d="M531.45,67.07c0-1.15-.02-2.09-.09-3.01h1.77l.09,1.79h.07c.62-1.06,1.66-2.05,3.5-2.05,1.52,0,2.67.92,3.15,2.23h.05c.34-.62.78-1.1,1.24-1.45.67-.51,1.4-.78,2.46-.78,1.47,0,3.66.97,3.66,4.83v6.55h-1.98v-6.3c0-2.14-.78-3.43-2.41-3.43-1.15,0-2.05.85-2.39,1.84-.09.28-.16.64-.16,1.01v6.88h-1.98v-6.67c0-1.77-.78-3.06-2.32-3.06-1.26,0-2.18,1.01-2.51,2.02-.12.3-.16.64-.16.99v6.71h-1.98v-8.12.02h-.01Z"/>
  </g>
  <g>
    <rect class="st28" x="30.65" y="29.22" width="81.28" height="81.28"/>
    <g>
      <path class="st35" d="M55.17,77.86l-3.7-15.11h2.94l1.43,6.86c.38,1.84.74,3.77.99,5.27h.04c.25-1.59.67-3.39,1.1-5.29l1.64-6.84h2.89l1.5,6.95c.38,1.79.69,3.48.92,5.11h.04c.27-1.66.63-3.39,1.03-5.22l1.57-6.84h2.8l-4.06,15.11h-2.96l-1.57-7.11c-.38-1.73-.65-3.16-.83-4.8h-.04c-.27,1.61-.56,3.07-1.01,4.8l-1.75,7.11s-2.97,0-2.97,0Z"/>
      <path class="st35" d="M76.23,77.86l-3.7-15.11h2.94l1.43,6.86c.38,1.84.74,3.77.99,5.27h.04c.25-1.59.67-3.39,1.1-5.29l1.64-6.84h2.89l1.5,6.95c.38,1.79.69,3.48.92,5.11h.04c.27-1.66.63-3.39,1.03-5.22l1.57-6.84h2.8l-4.06,15.11h-2.96l-1.57-7.11c-.38-1.73-.65-3.16-.83-4.8h-.04c-.27,1.61-.56,3.07-1.01,4.8l-1.75,7.11s-2.97,0-2.97,0Z"/>
    </g>
  </g>
  <g class="st15">
    <path d="M688.97,23.63v-.92l1.17-1.14c2.82-2.69,4.1-4.11,4.11-5.78,0-1.12-.54-2.16-2.19-2.16-1,0-1.84.51-2.35.93l-.48-1.05c.76-.65,1.85-1.12,3.13-1.12,2.38,0,3.38,1.63,3.38,3.21,0,2.04-1.48,3.69-3.81,5.93l-.88.82v.03h4.96v1.24h-7.05,0Z"/>
    <path d="M704.28,13.84h-4.22l-.42,2.84c.25-.03.49-.07.9-.07.85,0,1.7.19,2.38.59.87.49,1.58,1.45,1.58,2.84,0,2.16-1.72,3.77-4.11,3.77-1.21,0-2.23-.34-2.75-.68l.37-1.14c.46.27,1.36.61,2.36.61,1.41,0,2.62-.92,2.62-2.4-.02-1.43-.97-2.45-3.18-2.45-.63,0-1.12.07-1.53.12l.71-5.3h5.29v1.26h0Z"/>
    <path d="M710.49,17.63c0-.85-.02-1.55-.07-2.23h1.31l.07,1.33h.05c.46-.78,1.22-1.51,2.58-1.51,1.12,0,1.97.68,2.33,1.65h.03c.25-.46.58-.82.92-1.07.49-.37,1.04-.58,1.82-.58,1.09,0,2.7.71,2.7,3.57v4.84h-1.46v-4.66c0-1.58-.58-2.53-1.79-2.53-.85,0-1.51.63-1.77,1.36-.07.2-.12.48-.12.75v5.08h-1.46v-4.93c0-1.31-.58-2.26-1.72-2.26-.93,0-1.62.75-1.85,1.5-.08.22-.12.48-.12.73v4.96h-1.46v-6h0Z"/>
    <path d="M724.66,17.63c0-.85-.02-1.55-.07-2.23h1.31l.07,1.33h.05c.46-.78,1.22-1.51,2.58-1.51,1.12,0,1.97.68,2.33,1.65h.03c.25-.46.58-.82.92-1.07.49-.37,1.04-.58,1.82-.58,1.09,0,2.7.71,2.7,3.57v4.84h-1.46v-4.66c0-1.58-.58-2.53-1.79-2.53-.85,0-1.51.63-1.77,1.36-.07.2-.12.48-.12.75v5.08h-1.46v-4.93c0-1.31-.58-2.26-1.72-2.26-.93,0-1.62.75-1.85,1.5-.08.22-.12.48-.12.73v4.96h-1.46v-6h0Z"/>
  </g>
  <g class="st15">
    <path class="st35" d="M146.26,61.58c.58.34,1.98.92,3.4.92,2.16,0,3.04-1.22,3.01-2.39,0-1.77-1.66-2.53-3.38-2.53h-1.31v-2.07h1.27c1.31,0,2.97-.6,2.97-2.09,0-1.01-.76-1.86-2.39-1.86-1.22,0-2.44.53-3.06.94l-.64-2.05c.85-.6,2.51-1.15,4.3-1.15,3.08,0,4.67,1.7,4.67,3.66,0,1.56-.92,2.85-2.76,3.5v.05c1.82.32,3.29,1.7,3.29,3.72,0,2.53-2.12,4.53-5.82,4.53-1.82,0-3.38-.51-4.19-1.04l.64-2.14h0Z"/>
    <path class="st35" d="M158.02,64.5v-1.72l1.77-1.63c3.52-3.27,5.17-5.06,5.2-7.04,0-1.33-.71-2.51-2.67-2.51-1.31,0-2.44.67-3.2,1.24l-.83-2c1.08-.87,2.71-1.54,4.6-1.54,3.31,0,4.92,2.09,4.92,4.53,0,2.62-1.89,4.74-4.48,7.15l-1.31,1.13v.05h6.14v2.35h-10.14Z"/>
    <path class="st35" d="M180.9,56.93c0,4.81-1.89,7.82-5.45,7.82s-5.29-3.13-5.31-7.68c0-4.64,1.98-7.77,5.47-7.77s5.29,3.22,5.29,7.63ZM172.99,57.07c-.02,3.63.99,5.52,2.55,5.52,1.66,0,2.53-2.02,2.53-5.61s-.83-5.52-2.53-5.52c-1.52,0-2.58,1.86-2.55,5.61Z"/>
  </g>
  <g class="st15">
    <path class="st35" d="M248.58,52.11h-.05l-2.74,1.38-.48-2.14,3.63-1.79h2.37v14.95h-2.74v-12.39h.01Z"/>
    <path class="st35" d="M267.02,56.93c0,4.81-1.89,7.82-5.45,7.82s-5.29-3.13-5.31-7.68c0-4.64,1.98-7.77,5.47-7.77s5.29,3.22,5.29,7.63ZM259.11,57.07c-.02,3.63.99,5.52,2.55,5.52,1.66,0,2.53-2.02,2.53-5.61s-.83-5.52-2.53-5.52c-1.52,0-2.58,1.86-2.55,5.61Z"/>
  </g>
  <g class="st15">
    <path class="st35" d="M327.11,52.11h-.05l-2.74,1.38-.48-2.14,3.63-1.79h2.37v14.95h-2.74v-12.39h0Z"/>
    <path class="st35" d="M345.56,56.93c0,4.81-1.89,7.82-5.45,7.82s-5.29-3.13-5.31-7.68c0-4.64,1.98-7.77,5.47-7.77s5.29,3.22,5.29,7.63ZM337.65,57.07c-.02,3.63.99,5.52,2.55,5.52,1.66,0,2.53-2.02,2.53-5.61s-.83-5.52-2.53-5.52c-1.52,0-2.58,1.86-2.55,5.61Z"/>
    <path class="st35" d="M353.56,64.5v-3.79h-6.76v-1.84l6.09-9.31h3.33v9.01h1.93v2.14h-1.93v3.79h-2.67.01ZM353.56,58.57v-4.07c0-.85.02-1.72.09-2.6h-.09c-.46.94-.85,1.7-1.31,2.53l-2.74,4.09-.02.05h4.07,0Z"/>
    <path class="st35" d="M369.15,51.9h-5.75l-.44,2.99c.34-.05.64-.07,1.08-.07,1.31,0,2.62.3,3.63.97,1.13.71,1.95,1.98,1.95,3.79,0,2.85-2.37,5.17-6.05,5.17-1.72,0-3.17-.44-3.96-.87l.57-2.14c.64.35,1.93.78,3.29.78,1.66,0,3.24-.94,3.24-2.74s-1.26-2.83-4.25-2.83c-.83,0-1.45.05-2.05.14l.99-7.54h7.73v2.34h.02,0Z"/>
  </g>
  <g class="st15">
    <path class="st33" d="M665.78,117.19c-.09-1.69-.2-3.73-.18-5.24h-.05c-.41,1.42-.92,2.93-1.53,4.61l-2.14,5.89h-1.19l-1.96-5.78c-.58-1.71-1.06-3.28-1.4-4.72h-.04c-.04,1.51-.13,3.55-.23,5.37l-.32,5.2h-1.49l.85-12.14h2l2.07,5.87c.5,1.49.92,2.83,1.22,4.09h.05c.31-1.22.74-2.56,1.28-4.09l2.16-5.87h2l.76,12.14h-1.53l-.31-5.33h-.02,0Z"/>
    <path class="st33" d="M670.54,110.38h1.57v10.82h5.19v1.31h-6.75v-12.14h-.01Z"/>
    <path class="st33" d="M682.42,117.06v1.17h-4.45v-1.17h4.45Z"/>
    <path class="st33" d="M687.73,112.29h-.04l-2.03,1.1-.31-1.21,2.56-1.37h1.35v11.7h-1.53v-10.23h0Z"/>
    <path class="st33" d="M694.05,122.52v-.97l1.24-1.21c2.99-2.84,4.34-4.36,4.36-6.12,0-1.19-.58-2.29-2.32-2.29-1.06,0-1.94.54-2.48.99l-.5-1.12c.81-.68,1.96-1.19,3.31-1.19,2.52,0,3.58,1.73,3.58,3.4,0,2.16-1.57,3.91-4.03,6.28l-.94.86v.04h5.26v1.31h-7.47v.02h-.01Z"/>
    <path class="st33" d="M710.49,111.93c-.32-.02-.74,0-1.19.07-2.49.42-3.8,2.23-4.07,4.16h.05c.56-.74,1.53-1.35,2.83-1.35,2.07,0,3.53,1.49,3.53,3.78,0,2.14-1.46,4.12-3.89,4.12s-4.14-1.94-4.14-4.99c0-2.3.83-4.12,1.98-5.28.97-.95,2.27-1.55,3.75-1.73.47-.07.86-.09,1.15-.09v1.3h0ZM710.04,118.68c0-1.67-.95-2.68-2.41-2.68-.95,0-1.84.59-2.27,1.44-.11.18-.18.41-.18.7.04,1.93.92,3.35,2.57,3.35,1.37,0,2.29-1.13,2.29-2.81Z"/>
    <path class="st33" d="M713.69,121.58c0-.67.45-1.13,1.08-1.13s1.06.47,1.06,1.13-.42,1.13-1.08,1.13-1.06-.49-1.06-1.13Z"/>
    <path class="st33" d="M725.59,116.54c0,3.98-1.48,6.18-4.07,6.18-2.29,0-3.83-2.14-3.87-6.01,0-3.93,1.69-6.09,4.07-6.09s3.87,2.2,3.87,5.92ZM719.23,116.72c0,3.04.94,4.77,2.38,4.77,1.62,0,2.39-1.89,2.39-4.88s-.74-4.77-2.38-4.77c-1.39,0-2.4,1.69-2.4,4.88h.01Z"/>
    <path class="st33" d="M735.16,110.82v1.04l-5.1,10.66h-1.64l5.08-10.35v-.04h-5.73v-1.31h7.39,0Z"/>
    <path class="st33" d="M744.92,110.82v1.04l-5.1,10.66h-1.64l5.08-10.35v-.04h-5.73v-1.31h7.39,0Z"/>
    <path class="st33" d="M747.2,121.58c0-.67.45-1.13,1.08-1.13s1.06.47,1.06,1.13-.42,1.13-1.08,1.13-1.06-.49-1.06-1.13Z"/>
    <path class="st33" d="M752.24,121.4c.34.04.74,0,1.28-.05.92-.13,1.78-.5,2.45-1.13.77-.7,1.33-1.73,1.55-3.12h-.05c-.65.79-1.58,1.26-2.75,1.26-2.11,0-3.46-1.58-3.46-3.58,0-2.21,1.6-4.16,4-4.16s3.87,1.94,3.87,4.93c0,2.57-.86,4.38-2.02,5.49-.9.88-2.14,1.42-3.4,1.57-.58.09-1.08.11-1.46.09v-1.3h0ZM752.82,114.67c0,1.46.88,2.49,2.25,2.49,1.06,0,1.89-.52,2.3-1.22.09-.14.14-.32.14-.58,0-2-.74-3.53-2.39-3.53-1.35,0-2.3,1.19-2.3,2.84Z"/>
    <path class="st33" d="M768.86,116.54c0,3.98-1.48,6.18-4.07,6.18-2.29,0-3.83-2.14-3.87-6.01,0-3.93,1.69-6.09,4.07-6.09s3.87,2.2,3.87,5.92ZM762.5,116.72c0,3.04.94,4.77,2.38,4.77,1.62,0,2.39-1.89,2.39-4.88s-.74-4.77-2.38-4.77c-1.39,0-2.4,1.69-2.4,4.88h.01Z"/>
    <path class="st33" d="M770.96,121.58c0-.67.45-1.13,1.08-1.13s1.06.47,1.06,1.13-.41,1.13-1.08,1.13c-.63,0-1.06-.49-1.06-1.13Z"/>
    <path class="st33" d="M782.29,122.52l-1.55-2.68c-.63-1.03-1.03-1.69-1.4-2.39h-.04c-.34.7-.68,1.35-1.31,2.41l-1.46,2.67h-1.8l3.71-6.14-3.56-6h1.82l1.6,2.84c.45.79.79,1.4,1.12,2.05h.05c.34-.72.65-1.28,1.1-2.05l1.66-2.84h1.8l-3.69,5.91,3.78,6.23h-1.83,0Z"/>
  </g>
  <g>
    <rect class="st29" x="398.27" y="29.2" width="81.28" height="81.28"/>
    <g>
      <path class="st34" d="M420.22,66.34v-1.68l1.73-1.59c3.43-3.19,5.05-4.94,5.07-6.86,0-1.3-.7-2.44-2.6-2.44-1.28,0-2.38.65-3.12,1.21l-.81-1.95c1.05-.85,2.65-1.5,4.49-1.5,3.23,0,4.8,2.04,4.8,4.42,0,2.56-1.84,4.62-4.37,6.98l-1.28,1.1v.04h5.99v2.29h-9.89v-.02h0Z"/>
      <path class="st34" d="M438.32,66.34v-3.7h-6.59v-1.79l5.94-9.08h3.25v8.79h1.88v2.09h-1.88v3.7h-2.6ZM438.32,60.55v-3.97c0-.83.02-1.68.09-2.53h-.09c-.45.92-.83,1.66-1.28,2.47l-2.67,3.99-.02.04s3.97,0,3.97,0Z"/>
      <path class="st34" d="M448.34,66.34l-4.89-15.12h3.01l2.06,6.86c.58,1.91,1.08,3.68,1.48,5.52h.04c.4-1.79.94-3.63,1.55-5.47l2.2-6.91h2.94l-5.23,15.12h-3.16Z"/>
    </g>
  </g>
  <g class="st32">
    <g>
      <g>
        <polygon class="st30" points="656.49 53.39 656.49 86.94 879.54 86.94 1167.31 86.94 1167.31 53.39 656.49 53.39"/>
        <path class="st37" d="M1167.31,53.39v33.56h-510.82v-33.56h510.82M1167.75,52.96h-511.7v34.42h511.7v-34.42h0Z"/>
      </g>
      <rect class="st27" x="880.03" y="53.39" width="25.53" height="33.56"/>
      <rect class="st27" x="656.44" y="53.11" width="26.84" height="34.28"/>
      <g>
        <g>
          <rect class="st23" x="642.12" y="53.24" width="27.86" height="4.09"/>
          <rect class="st13" x="642.12" y="55.9" width="27.86" height="1.78"/>
        </g>
        <g>
          <rect class="st10" x="642.12" y="82.79" width="27.86" height="4.09"/>
          <rect class="st7" x="642.12" y="82.45" width="27.86" height="1.78"/>
        </g>
      </g>
      <g>
        <g>
          <rect class="st2" x="755.45" y="53.23" width="27.86" height="4.09"/>
          <rect class="st9" x="755.45" y="55.9" width="27.86" height="1.78"/>
        </g>
        <g>
          <rect class="st16" x="755.45" y="82.8" width="27.86" height="4.09"/>
          <rect class="st5" x="755.45" y="82.43" width="27.86" height="1.78"/>
        </g>
      </g>
      <rect class="st3" x="655.95" y="53.61" width="510.86" height="33.56"/>
      <g>
        <g>
          <rect class="st22" x="868.78" y="53.23" width="27.86" height="4.09"/>
          <rect class="st11" x="868.78" y="55.9" width="27.86" height="1.78"/>
        </g>
        <g>
          <rect class="st12" x="868.78" y="82.8" width="27.86" height="4.09"/>
          <rect class="st6" x="868.78" y="82.43" width="27.86" height="1.78"/>
        </g>
      </g>
      <g>
        <g>
          <rect class="st17" x="982.11" y="53.23" width="27.86" height="4.09"/>
          <rect class="st4" x="982.11" y="55.9" width="27.86" height="1.78"/>
        </g>
        <g>
          <rect class="st1" x="982.11" y="82.8" width="27.86" height="4.09"/>
          <rect class="st14" x="982.11" y="82.43" width="27.86" height="1.78"/>
        </g>
      </g>
      <g>
        <g>
          <rect class="st18" x="1095.44" y="53.23" width="27.86" height="4.09"/>
          <rect class="st19" x="1095.44" y="55.9" width="27.86" height="1.78"/>
        </g>
        <g>
          <rect class="st20" x="1095.44" y="82.8" width="27.86" height="4.09"/>
          <rect class="st24" x="1095.44" y="82.43" width="27.86" height="1.78"/>
        </g>
      </g>
    </g>
  </g>
  <g class="st15">
    <path class="st0" d="M421.7,73.95v15.5h-2.83v-15.5h2.83Z"/>
    <path class="st0" d="M424.94,74.16c1.01-.18,2.41-.32,4.32-.32,2.07,0,3.59.44,4.58,1.26.92.76,1.52,1.98,1.52,3.43s-.46,2.69-1.33,3.52c-1.13,1.13-2.9,1.66-4.9,1.66-.53,0-1.01-.02-1.38-.09v5.84h-2.81v-15.29h0ZM427.75,81.38c.34.09.8.12,1.38.12,2.12,0,3.4-1.04,3.4-2.85s-1.2-2.64-3.15-2.64c-.78,0-1.33.07-1.63.14v5.24h0Z"/>
    <path class="st0" d="M446.26,76.5c-.41,0-.87,0-1.45.07-3.13.37-4.65,2.3-5.01,4.37h.07c.74-.85,1.86-1.45,3.36-1.45,2.58,0,4.58,1.84,4.58,4.88,0,2.85-2.09,5.33-5.27,5.33-3.63,0-5.63-2.76-5.63-6.44,0-2.87,1.03-5.22,2.6-6.71,1.38-1.29,3.17-2.02,5.31-2.21.62-.07,1.08-.07,1.43-.05l.02,2.21h0ZM444.93,84.53c0-1.72-.94-2.97-2.6-2.97-1.06,0-2,.64-2.44,1.54-.11.23-.18.51-.18.9.05,1.98.99,3.59,2.81,3.59,1.47,0,2.41-1.26,2.41-3.06Z"/>
    <path class="st0" d="M449.28,85.61c0-1.86,1.08-3.13,2.81-3.89v-.07c-1.56-.76-2.28-2-2.28-3.31,0-2.44,2.16-4.09,4.99-4.09,3.22,0,4.69,1.93,4.69,3.77,0,1.26-.67,2.58-2.3,3.38v.07c1.63.62,2.85,1.91,2.85,3.77,0,2.67-2.25,4.46-5.45,4.46-3.5,0-5.31-2-5.31-4.09h0ZM457.16,85.47c0-1.52-1.13-2.34-2.78-2.8-1.4.41-2.21,1.38-2.21,2.62-.05,1.26.92,2.41,2.51,2.41,1.49,0,2.48-.94,2.48-2.23h0ZM452.49,78.23c0,1.22,1.01,1.96,2.44,2.35,1.01-.3,1.86-1.13,1.86-2.25,0-1.03-.62-2.12-2.14-2.12-1.43,0-2.16.94-2.16,2.02h0Z"/>
  </g>
</svg>