<?xml version="1.0" encoding="UTF-8"?>
<svg id="Vrstva_1" xmlns="http://www.w3.org/2000/svg" version="1.1" viewBox="0 0 31.18 31.18">
  <!-- Generator: Adobe Illustrator 29.7.1, SVG Export Plug-In . SVG Version: 2.1.1 Build 8)  -->
  <defs>
    <style>
      .st0 {
        fill: #b3cee3;
      }
    </style>
  </defs>
  <path class="st0" d="M28.35,31.18H2.83C1.27,31.18,0,29.91,0,28.35V2.83C0,1.27,1.27,0,2.83,0h25.51c1.56,0,2.83,1.27,2.84,2.83v25.51c0,1.57-1.27,2.83-2.83,2.84ZM2.83,1.89c-.52,0-.94.42-.94.95v25.51c0,.52.42.94.94.94h25.51c.52,0,.94-.42.94-.94V2.83c0-.52-.42-.94-.94-.94H2.83Z"/>
  <path class="st0" d="M23.35,6.92c-.52-.5-1.34-.5-1.86,0l-3.43,3.43c-.06-.04-.12-.09-.17-.14-.59-.46-1.17.07-1.17.07l-5.33,5.21-.14.39-.18.74-.83.85c-.12-.11-.24-.21-.36-.31-.17-.14-.41-.11-.55.06,0,0,0,0,0,0-.13.17-.11.41.06.55,0,0,0,0,0,0,0,0,.11.09.3.26l-.7.71c-.11-.1-.22-.19-.33-.28-.17-.14-.41-.11-.55.06,0,0,0,0,0,0-.13.17-.11.41.06.55,0,0,0,0,0,0l.27.23-.93.95s-.13.24.05.42l2.99,2.99s.21.1.35-.04l.92-.93c.11.12.2.22.31.35.08.09.19.13.29.13.22,0,.39-.18.39-.39,0-.1-.04-.19-.1-.26-.12-.14-.23-.25-.34-.38l.7-.7.27.3c.08.09.18.13.29.13.21,0,.39-.17.39-.39,0-.1-.04-.19-.1-.27-.11-.12-.2-.22-.31-.34l.85-.85s.53-.03.74-.01c.21,0,.44-.21.44-.21l5.7-5.6s0-.49-.3-.79l-.16-.2,3.44-3.44c.51-.51.52-1.33.01-1.85,0,0,0,0-.01-.01,0,0-1.01-1-1.01-1ZM18.95,11.09l2.43-2.43c.35.14.79.48,1.18,1.31l-2.38,2.38c-.35-.39-.77-.84-1.23-1.26Z"/>
  <rect class="st0" x="5.77" y="16.79" width="2.33" height="14.9" transform="translate(19.17 2.19) rotate(45)"/>
</svg>