<?xml version="1.0" encoding="UTF-8"?>
<svg xmlns="http://www.w3.org/2000/svg" version="1.1" viewBox="0 0 31.18 31.18">
  <!-- Generator: Adobe Illustrator 29.7.1, SVG Export Plug-In . SVG Version: 2.1.1 Build 8)  -->
  <defs>
    <style>
      .st0 {
        fill: #b3cee3;
      }
    </style>
  </defs>
  <g id="Vrstva_1">
    <path class="st0" d="M28.35,31.18H2.83C1.27,31.18,0,29.91,0,28.35V2.83C0,1.27,1.27,0,2.83,0h25.51c1.56,0,2.83,1.27,2.84,2.83v25.51c0,1.57-1.27,2.83-2.83,2.84ZM2.83,1.89c-.52,0-.94.42-.94.95v25.51c0,.52.42.94.94.94h25.51c.52,0,.94-.42.94-.94V2.83c0-.52-.42-.94-.94-.94H2.83Z"/>
  </g>
  <g id="Vrstva_2">
    <g>
      <path class="st0" d="M14.12,23.75h-6.68c-.65,0-1.18-.53-1.18-1.18v-12.8c0-.16.13-.29.29-.29h1.8c.16,0,.29.13.29.29v11.33c0,.33.27.59.59.59h5.05s2.61,0,2.61,0h5.05c.33,0,.59-.27.59-.59v-11.33c0-.16.13-.29.29-.29h1.8c.16,0,.29.13.29.29v12.8c0,.65-.53,1.18-1.18,1.18h-9.63Z"/>
      <path class="st0" d="M18.53,8.87h1.7c.41,0,.74.33.74.74v5.03c0,.15.12.27.27.27h.43c.15,0,.28-.12.28-.28v-5.01c0-.41.33-.74.74-.74h1.93c.16,0,.29-.13.29-.29v-.88c0-.15-.12-.27-.27-.27h-6.12s-5.88,0-5.88,0h-6.12c-.15,0-.27.12-.27.27v.88c0,.16.13.29.29.29h1.93c.41,0,.74.33.74.74v5.01c0,.15.12.28.28.28h.43c.15,0,.27-.12.27-.27v-5.03c0-.41.33-.74.74-.74h7.59Z"/>
    </g>
  </g>
</svg>