<?xml version="1.0" encoding="UTF-8"?><svg id="Vrstva_2" xmlns="http://www.w3.org/2000/svg" viewBox="0 0 31.37 31.39"><defs><style>.cls-1{fill:#b4cee3;}.cls-2{fill:none;stroke:#b4cee3;stroke-linecap:round;stroke-linejoin:round;}</style></defs><path class="cls-1" d="M28.44,2.1c.46,0,.84.38.84.83v25.51c0,.46-.38.84-.83.84H2.93c-.46,0-.84-.38-.84-.83V2.94c0-.46.38-.84.83-.84h25.51M28.44.1H2.93C1.36.1.09,1.37.09,2.94v25.51c0,1.56,1.27,2.83,2.83,2.83h25.51c1.56,0,2.83-1.27,2.83-2.83V2.94c0-1.56-1.27-2.83-2.83-2.83h0Z"/><polygon class="cls-2" points="6.67 24.99 9.2 26.8 8.84 21.42 6.1 19.8 6.67 24.99"/><path class="cls-2" d="M8.84,21.42c7.11-3.63,12.83-6.06,15.41-7.59,1.41-.83,2.22-1.86,2.22-3.19,0-3.14-4.57-4.68-9.9-5.64-7.78-1.41-9.89-2.03-9.89-2.91,0-.41.48-.8,1.32-1.21"/><path class="cls-2" d="M6.1,19.8c7.45-3.34,12.08-5.3,14.74-6.54,2.14-.99,2.69-2,2.69-3.02,0-2.06-2.03-2.99-8.75-4.14-7.93-1.36-9.9-2.8-9.9-4,0-.5.58-.94,1.64-1.4"/><path class="cls-2" d="M22.5,12.25c-1.94-2.53-6.1-3.08-9.4-3.87-2.78-.67-7.96-1.82-7.96-3.2l-.26-3.08"/><path class="cls-2" d="M9.2,26.8c3.01-1.73,4.45-2.65,11.14-6.38,2.3-1.28,5.43-2.78,5.64-4.98l.5-4.95"/><path class="cls-2" d="M14.21,1.06c-2.25.81-4.44,1.63-5.75,2.2"/></svg>