<?xml version="1.0" encoding="UTF-8"?>
<svg id="Vrstva_1" xmlns="http://www.w3.org/2000/svg" version="1.1" xmlns:xlink="http://www.w3.org/1999/xlink" viewBox="0 0 70 37">
  <!-- Generator: Adobe Illustrator 30.4.0, SVG Export Plug-In . SVG Version: 2.1.4 Build 226)  -->
  <defs>
    <style>
      .st0 {
        fill: none;
      }

      .st1 {
        isolation: isolate;
      }

      .st2 {
        fill: #fffcd6;
      }

      .st3 {
        clip-path: url(#clippath);
      }

      .st4 {
        fill: #364e5a;
      }
    </style>
    <clipPath id="clippath">
      <rect class="st0" y="0" width="70" height="37"/>
    </clipPath>
  </defs>
  <g class="st3">
    <path class="st2" d="M0,5C0,2.24,2.24,0,5,0h60C67.76,0,70,2.24,70,5v27c0,2.76-2.24,5-5,5H5c-2.76,0-5-2.24-5-5V5Z"/>
  </g>
  <g class="st1">
    <g class="st1">
      <path class="st4" d="M32.3,16.24h-1.78l-1.7-5.96c-.07-.26-.16-.63-.27-1.12-.11-.49-.18-.83-.2-1.02-.05.29-.12.67-.22,1.13s-.19.81-.26,1.04l-1.65,5.93h-1.78l-1.29-5-1.31-4.99h1.67l1.43,5.82c.22.93.38,1.76.48,2.47.05-.39.13-.82.23-1.3s.19-.87.27-1.16l1.63-5.84h1.62l1.67,5.87c.16.54.33,1.35.51,2.43.07-.65.23-1.48.49-2.49l1.42-5.81h1.65l-2.6,9.99Z"/>
      <path class="st4" d="M45.54,16.24h-1.78l-1.7-5.96c-.07-.26-.16-.63-.27-1.12-.11-.49-.17-.83-.2-1.02-.04.29-.12.67-.22,1.13s-.19.81-.26,1.04l-1.65,5.93h-1.78l-1.29-5-1.31-4.99h1.67l1.43,5.82c.22.93.38,1.76.48,2.47.05-.39.13-.82.23-1.3.1-.48.19-.87.27-1.16l1.63-5.84h1.62l1.67,5.87c.16.54.33,1.35.51,2.43.07-.65.23-1.48.49-2.49l1.42-5.81h1.65l-2.6,9.99Z"/>
    </g>
  </g>
  <g class="st1">
    <g class="st1">
      <path class="st4" d="M23.49,24.19c0,.38-.07.71-.22,1s-.36.51-.62.69-.58.3-.94.37v.05c.68.09,1.19.3,1.53.66s.51.81.51,1.38c0,.5-.12.94-.35,1.32s-.59.68-1.07.9-1.09.33-1.84.33c-.45,0-.87-.04-1.26-.11s-.75-.19-1.1-.36v-.91c.36.18.74.31,1.16.41s.82.15,1.21.15c.78,0,1.35-.16,1.69-.47s.52-.74.52-1.27c0-.37-.1-.67-.29-.9s-.47-.4-.83-.5-.8-.16-1.3-.16h-.86v-.83h.86c.46,0,.86-.07,1.18-.21s.57-.33.74-.58.25-.54.25-.88c0-.43-.14-.77-.43-1s-.68-.35-1.18-.35c-.3,0-.58.03-.83.09s-.48.15-.7.26-.44.24-.66.38l-.49-.67c.31-.24.69-.45,1.14-.63s.96-.26,1.53-.26c.88,0,1.53.2,1.97.6s.66.91.66,1.52Z"/>
      <path class="st4" d="M30.72,26.46c0,.7-.05,1.32-.16,1.86s-.27,1.01-.5,1.39-.52.67-.88.86-.79.3-1.29.3c-.64,0-1.16-.17-1.58-.52s-.73-.85-.93-1.51-.31-1.45-.31-2.38.09-1.7.28-2.36.49-1.16.9-1.52.96-.53,1.64-.53c.64,0,1.18.17,1.59.52s.73.85.93,1.51.3,1.45.3,2.37ZM26.05,26.46c0,.8.06,1.46.18,1.99s.32.93.59,1.19.63.4,1.07.4.8-.13,1.07-.39.47-.66.59-1.19.18-1.2.18-2-.06-1.44-.18-1.97-.32-.93-.59-1.2-.63-.4-1.08-.4-.81.13-1.08.4-.46.67-.58,1.2-.18,1.19-.18,1.97Z"/>
      <path class="st4" d="M37.58,26.46c0,.7-.05,1.32-.16,1.86s-.27,1.01-.5,1.39-.52.67-.88.86-.79.3-1.29.3c-.64,0-1.16-.17-1.58-.52s-.73-.85-.93-1.51-.31-1.45-.31-2.38.09-1.7.28-2.36.49-1.16.9-1.52.96-.53,1.64-.53c.64,0,1.18.17,1.59.52s.73.85.93,1.51.3,1.45.3,2.37ZM32.91,26.46c0,.8.06,1.46.18,1.99s.32.93.59,1.19.63.4,1.07.4.8-.13,1.07-.39.47-.66.59-1.19.18-1.2.18-2-.06-1.44-.18-1.97-.32-.93-.59-1.2-.63-.4-1.08-.4-.81.13-1.08.4-.46.67-.58,1.2-.18,1.19-.18,1.97Z"/>
      <path class="st4" d="M44.44,26.46c0,.7-.05,1.32-.16,1.86s-.27,1.01-.5,1.39-.52.67-.88.86-.79.3-1.29.3c-.64,0-1.16-.17-1.58-.52s-.73-.85-.93-1.51-.31-1.45-.31-2.38.09-1.7.28-2.36.49-1.16.9-1.52.96-.53,1.64-.53c.64,0,1.18.17,1.59.52s.73.85.93,1.51.3,1.45.3,2.37ZM39.77,26.46c0,.8.06,1.46.18,1.99s.32.93.59,1.19.63.4,1.07.4.8-.13,1.07-.39.47-.66.59-1.19.18-1.2.18-2-.06-1.44-.18-1.97-.32-.93-.59-1.2-.63-.4-1.08-.4-.81.13-1.08.4-.46.67-.58,1.2-.18,1.19-.18,1.97Z"/>
      <path class="st4" d="M52.4,30.76h-1.18l-3.09-4.17-.91.82v3.35h-1v-8.57h1v4.27c.22-.25.45-.51.69-.76s.47-.51.7-.76l2.5-2.75h1.17l-3.41,3.71,3.54,4.85Z"/>
    </g>
  </g>
</svg>