<?xml version="1.0" encoding="UTF-8"?>
<svg id="Vrstva_1" xmlns="http://www.w3.org/2000/svg" version="1.1" xmlns:xlink="http://www.w3.org/1999/xlink" viewBox="0 0 70 37">
  <!-- Generator: Adobe Illustrator 30.4.0, SVG Export Plug-In . SVG Version: 2.1.4 Build 226)  -->
  <defs>
    <style>
      .st0 {
        fill: none;
      }

      .st1 {
        isolation: isolate;
      }

      .st2 {
        fill: #fcdf6c;
      }

      .st3 {
        clip-path: url(#clippath);
      }

      .st4 {
        fill: #364e5a;
      }
    </style>
    <clipPath id="clippath">
      <rect class="st0" y="0" width="70" height="37"/>
    </clipPath>
  </defs>
  <g class="st3">
    <path class="st2" d="M0,5C0,2.24,2.24,0,5,0h60C67.76,0,70,2.24,70,5v27c0,2.76-2.24,5-5,5H5c-2.76,0-5-2.24-5-5V5Z"/>
  </g>
  <g class="st1">
    <g class="st1">
      <path class="st4" d="M25.7,6.25v6.47c0,.74-.16,1.38-.48,1.94-.32.55-.77.98-1.37,1.28-.6.3-1.32.45-2.15.45-1.24,0-2.2-.33-2.89-.98s-1.03-1.56-1.03-2.71v-6.44h1.64v6.32c0,.83.19,1.43.57,1.83s.97.59,1.76.59c1.54,0,2.31-.81,2.31-2.43v-6.31h1.63Z"/>
      <path class="st4" d="M37.48,16.24h-1.78l-1.7-5.96c-.07-.26-.16-.63-.27-1.12-.11-.49-.18-.83-.2-1.02-.05.29-.12.67-.22,1.13s-.19.81-.26,1.04l-1.65,5.93h-1.78l-1.29-5-1.31-4.99h1.67l1.43,5.82c.22.93.38,1.76.48,2.47.05-.39.13-.82.23-1.3s.19-.87.27-1.16l1.63-5.84h1.62l1.67,5.87c.16.54.33,1.35.51,2.43.07-.65.23-1.48.49-2.49l1.42-5.81h1.65l-2.6,9.99Z"/>
      <path class="st4" d="M50.72,16.24h-1.78l-1.7-5.96c-.07-.26-.16-.63-.27-1.12-.11-.49-.17-.83-.2-1.02-.04.29-.12.67-.22,1.13s-.19.81-.26,1.04l-1.65,5.93h-1.78l-1.29-5-1.31-4.99h1.67l1.43,5.82c.22.93.38,1.76.48,2.47.05-.39.13-.82.23-1.3.1-.48.19-.87.27-1.16l1.63-5.84h1.62l1.67,5.87c.16.54.33,1.35.51,2.43.07-.65.23-1.48.49-2.49l1.42-5.81h1.65l-2.6,9.99Z"/>
    </g>
  </g>
  <g class="st1">
    <g class="st1">
      <path class="st4" d="M23.81,30.76h-5.61v-.81l2.29-2.33c.43-.43.78-.81,1.08-1.15s.51-.67.67-.99.23-.68.23-1.08c0-.48-.14-.85-.43-1.11s-.67-.38-1.13-.38c-.41,0-.77.07-1.09.21s-.64.34-.97.6l-.52-.66c.23-.19.47-.36.74-.51s.55-.27.86-.35.63-.13.98-.13c.53,0,.98.09,1.37.28s.68.45.89.79.31.74.31,1.21-.09.87-.27,1.26-.43.77-.76,1.15-.7.78-1.14,1.21l-1.86,1.86v.04h4.38v.89Z"/>
      <path class="st4" d="M30.72,26.46c0,.7-.05,1.32-.16,1.86s-.27,1.01-.5,1.39-.52.67-.88.86-.79.3-1.29.3c-.64,0-1.16-.17-1.58-.52s-.73-.85-.93-1.51-.31-1.45-.31-2.38.09-1.7.28-2.36.49-1.16.9-1.52.96-.53,1.64-.53c.64,0,1.18.17,1.59.52s.73.85.93,1.51.3,1.45.3,2.37ZM26.05,26.46c0,.8.06,1.46.18,1.99s.32.93.59,1.19.63.4,1.07.4.8-.13,1.07-.39.47-.66.59-1.19.18-1.2.18-2-.06-1.44-.18-1.97-.32-.93-.59-1.2-.63-.4-1.08-.4-.81.13-1.08.4-.46.67-.58,1.2-.18,1.19-.18,1.97Z"/>
      <path class="st4" d="M37.58,26.46c0,.7-.05,1.32-.16,1.86s-.27,1.01-.5,1.39-.52.67-.88.86-.79.3-1.29.3c-.64,0-1.16-.17-1.58-.52s-.73-.85-.93-1.51-.31-1.45-.31-2.38.09-1.7.28-2.36.49-1.16.9-1.52.96-.53,1.64-.53c.64,0,1.18.17,1.59.52s.73.85.93,1.51.3,1.45.3,2.37ZM32.91,26.46c0,.8.06,1.46.18,1.99s.32.93.59,1.19.63.4,1.07.4.8-.13,1.07-.39.47-.66.59-1.19.18-1.2.18-2-.06-1.44-.18-1.97-.32-.93-.59-1.2-.63-.4-1.08-.4-.81.13-1.08.4-.46.67-.58,1.2-.18,1.19-.18,1.97Z"/>
      <path class="st4" d="M44.44,26.46c0,.7-.05,1.32-.16,1.86s-.27,1.01-.5,1.39-.52.67-.88.86-.79.3-1.29.3c-.64,0-1.16-.17-1.58-.52s-.73-.85-.93-1.51-.31-1.45-.31-2.38.09-1.7.28-2.36.49-1.16.9-1.52.96-.53,1.64-.53c.64,0,1.18.17,1.59.52s.73.85.93,1.51.3,1.45.3,2.37ZM39.77,26.46c0,.8.06,1.46.18,1.99s.32.93.59,1.19.63.4,1.07.4.8-.13,1.07-.39.47-.66.59-1.19.18-1.2.18-2-.06-1.44-.18-1.97-.32-.93-.59-1.2-.63-.4-1.08-.4-.81.13-1.08.4-.46.67-.58,1.2-.18,1.19-.18,1.97Z"/>
      <path class="st4" d="M52.4,30.76h-1.18l-3.09-4.17-.91.82v3.35h-1v-8.57h1v4.27c.22-.25.45-.51.69-.76s.47-.51.7-.76l2.5-2.75h1.17l-3.41,3.71,3.54,4.85Z"/>
    </g>
  </g>
</svg>