<?xml version="1.0" encoding="UTF-8"?>
<svg id="Vrstva_1" xmlns="http://www.w3.org/2000/svg" version="1.1" xmlns:xlink="http://www.w3.org/1999/xlink" viewBox="0 0 70 37">
  <!-- Generator: Adobe Illustrator 30.4.0, SVG Export Plug-In . SVG Version: 2.1.4 Build 226)  -->
  <defs>
    <style>
      .st0 {
        fill: none;
      }

      .st1 {
        fill: #cfecf5;
      }

      .st2 {
        clip-path: url(#clippath);
      }

      .st3 {
        fill: #364e5a;
      }
    </style>
    <clipPath id="clippath">
      <rect class="st0" y="0" width="70" height="37"/>
    </clipPath>
  </defs>
  <g class="st2">
    <path class="st1" d="M0,5C0,2.24,2.24,0,5,0h60C67.76,0,70,2.24,70,5v27c0,2.76-2.24,5-5,5H5c-2.76,0-5-2.24-5-5V5Z"/>
  </g>
  <g>
    <path class="st3" d="M29.5,7.5c-.94,0-1.68.33-2.21,1s-.81,1.58-.81,2.75.26,2.15.78,2.78,1.27.94,2.25.94c.42,0,.83-.04,1.23-.13.4-.08.81-.19,1.24-.32v1.4c-.78.3-1.67.44-2.67.44-1.46,0-2.59-.44-3.37-1.33-.78-.89-1.18-2.15-1.18-3.8,0-1.04.19-1.95.57-2.73s.93-1.38,1.65-1.79,1.57-.62,2.54-.62c1.02,0,1.96.21,2.83.64l-.59,1.36c-.34-.16-.69-.3-1.07-.42s-.77-.18-1.19-.18Z"/>
    <path class="st3" d="M43.34,16.24h-1.78l-1.7-5.96c-.07-.26-.16-.63-.27-1.12s-.17-.83-.2-1.02c-.04.29-.12.67-.22,1.13s-.19.81-.26,1.04l-1.65,5.93h-1.78l-1.29-5-1.31-4.99h1.67l1.43,5.82c.22.93.38,1.76.48,2.47.05-.39.13-.82.23-1.3.1-.48.19-.87.27-1.16l1.63-5.84h1.62l1.67,5.87c.16.54.33,1.35.51,2.43.07-.65.23-1.48.49-2.49l1.42-5.81h1.65l-2.6,9.99Z"/>
  </g>
  <g>
    <path class="st3" d="M17.43,25.73c-.28-.12-.51-.21-.7-.26s-.38-.07-.56-.07c-.22,0-.46.07-.71.2s-.47.3-.67.5v-.87c.2-.21.41-.36.65-.47s.5-.16.79-.16c.24,0,.48.03.71.08s.51.15.86.3c.29.12.52.21.71.26s.37.08.54.08c.23,0,.47-.07.71-.2s.47-.3.66-.5v.86c-.19.2-.4.36-.64.47s-.5.17-.79.17c-.23,0-.47-.03-.7-.08s-.52-.15-.87-.3ZM17.43,28.04c-.28-.12-.51-.21-.7-.26s-.38-.07-.56-.07c-.22,0-.46.07-.71.2s-.47.3-.67.5v-.87c.2-.21.41-.36.65-.47s.5-.16.79-.16c.24,0,.48.03.71.08s.51.15.86.3c.29.12.52.21.71.26s.37.08.54.08c.23,0,.47-.07.71-.2s.47-.3.66-.5v.86c-.19.2-.4.36-.64.47s-.5.17-.79.17c-.23,0-.47-.03-.7-.08s-.52-.15-.87-.3Z"/>
    <path class="st3" d="M21.73,27.1c0-.52.04-1.02.11-1.51s.19-.95.37-1.37.41-.8.7-1.12.67-.57,1.11-.75.98-.27,1.6-.27c.18,0,.37,0,.57.03s.37.05.5.08v.84c-.14-.05-.31-.09-.5-.11s-.37-.04-.56-.04c-.73,0-1.3.16-1.71.47s-.72.75-.9,1.29-.29,1.15-.32,1.83h.06c.12-.2.28-.37.46-.53s.42-.28.68-.38.58-.14.93-.14c.5,0,.94.1,1.31.3s.66.5.87.88.31.86.31,1.41c0,.59-.11,1.1-.33,1.53s-.53.76-.93.99-.89.35-1.44.35c-.42,0-.8-.08-1.15-.24s-.66-.4-.92-.71-.46-.71-.61-1.18-.22-1.02-.22-1.64ZM24.61,30.05c.53,0,.96-.17,1.28-.51s.48-.85.48-1.54c0-.56-.14-1.01-.43-1.34s-.71-.49-1.29-.49c-.39,0-.73.08-1.02.24s-.51.37-.67.61-.24.5-.24.75.04.52.11.79.19.51.35.74.35.41.59.54.52.21.84.21Z"/>
    <path class="st3" d="M34.16,26.46c0,.7-.05,1.32-.16,1.86s-.27,1.01-.5,1.39-.52.67-.88.86-.79.3-1.29.3c-.64,0-1.16-.17-1.58-.52s-.73-.85-.93-1.51-.31-1.45-.31-2.38.09-1.7.28-2.36.49-1.16.9-1.52.96-.53,1.64-.53c.64,0,1.18.17,1.59.52s.73.85.93,1.51.3,1.45.3,2.37ZM29.49,26.46c0,.8.06,1.46.18,1.99s.32.93.59,1.19.63.4,1.07.4.8-.13,1.07-.39.47-.66.59-1.19.18-1.2.18-2-.06-1.44-.18-1.97-.32-.93-.59-1.2-.63-.4-1.08-.4-.81.13-1.08.4-.46.67-.58,1.2-.18,1.19-.18,1.97Z"/>
    <path class="st3" d="M41.02,26.46c0,.7-.05,1.32-.16,1.86s-.27,1.01-.5,1.39-.52.67-.88.86-.79.3-1.29.3c-.64,0-1.16-.17-1.58-.52s-.73-.85-.93-1.51-.31-1.45-.31-2.38.09-1.7.28-2.36.49-1.16.9-1.52.96-.53,1.64-.53c.64,0,1.18.17,1.59.52s.73.85.93,1.51.3,1.45.3,2.37ZM36.35,26.46c0,.8.06,1.46.18,1.99s.32.93.59,1.19.63.4,1.07.4.8-.13,1.07-.39.47-.66.59-1.19.18-1.2.18-2-.06-1.44-.18-1.97-.32-.93-.59-1.2-.63-.4-1.08-.4-.81.13-1.08.4-.46.67-.58,1.2-.18,1.19-.18,1.97Z"/>
    <path class="st3" d="M47.88,26.46c0,.7-.05,1.32-.16,1.86s-.27,1.01-.5,1.39-.52.67-.88.86-.79.3-1.29.3c-.64,0-1.16-.17-1.58-.52s-.73-.85-.93-1.51-.31-1.45-.31-2.38.09-1.7.28-2.36.49-1.16.9-1.52.96-.53,1.64-.53c.64,0,1.18.17,1.59.52s.73.85.93,1.51.3,1.45.3,2.37ZM43.21,26.46c0,.8.06,1.46.18,1.99s.32.93.59,1.19.63.4,1.07.4.8-.13,1.07-.39.47-.66.59-1.19.18-1.2.18-2-.06-1.44-.18-1.97-.32-.93-.59-1.2-.63-.4-1.08-.4-.81.13-1.08.4-.46.67-.58,1.2-.18,1.19-.18,1.97Z"/>
    <path class="st3" d="M55.84,30.76h-1.18l-3.09-4.17-.91.82v3.35h-1v-8.57h1v4.27c.22-.25.45-.51.69-.76s.47-.51.7-.76l2.5-2.75h1.17l-3.41,3.71,3.54,4.85Z"/>
  </g>
</svg>